/* XPM */
static char *_fe32f23a60849e6f02bf1a2d957d5besQL06QOyGUOaQWY5[] = {
/* columns rows colors chars-per-pixel */
"100 100 79 1 ",
"  c #120505",
". c #210909",
"X c #2E0D0C",
"o c #0B2626",
"O c #0B2627",
"+ c #0A2727",
"@ c #0C2626",
"# c #0C2627",
"$ c #0D2727",
"% c #0A2728",
"& c #0D2728",
"* c #0D2729",
"= c #0B2828",
"- c #0B2829",
"; c #0D2B28",
": c #0E2A28",
"> c #0F2B2B",
", c #0C2C29",
"< c #0E2E29",
"1 c #0D2C2A",
"2 c #0D2D2B",
"3 c #0F2C2A",
"4 c #0E2F2C",
"5 c #102E2A",
"6 c #102E2B",
"7 c #112F2B",
"8 c #102F2C",
"9 c #0F302B",
"0 c #0F312D",
"q c #0F332E",
"w c #10302A",
"e c #11312A",
"r c #10302B",
"t c #10322A",
"y c #11322A",
"u c #13332A",
"i c #13342B",
"p c #11302D",
"a c #11322D",
"s c #10312E",
"d c #13342D",
"f c #10342E",
"g c #10352F",
"h c #14372F",
"j c #13392F",
"k c #14382D",
"l c #14392D",
"z c #163B2D",
"x c #153B2F",
"c c #153C2F",
"v c #153E2F",
"b c #113730",
"n c #133630",
"m c #123731",
"M c #123830",
"N c #133831",
"B c #143A32",
"V c #123D33",
"C c #133D33",
"Z c #163C30",
"A c #143C33",
"S c #153C33",
"D c #153D33",
"F c #143E34",
"G c #163F35",
"H c #193F30",
"J c #5C1E1C",
"K c #17402E",
"L c #174031",
"P c #174035",
"I c #1A4531",
"U c #194432",
"Y c #1B4732",
"T c #184436",
"R c #184637",
"E c #1A4637",
"W c #1C4937",
"Q c #1B4A3B",
"! c #22573A",
/* pixels */
"qqqqqVVVVV4q4q4qfpqq>>45>+4O*>,q>q499999uuuuu55994$O%%%+++++%O%%O##*O>+#+$+w99999wutt,$;;;$$$$$ooooo",
"qqqqqCVVVVq4q4qqffjq>>$4>O>$#44,q,999999uuuuww4945O4%O%+++++,%>%4##*+OO#$+$99999iwtwu,;;;;$$$$$Ooooo",
"qqqqqCCCVVqqp4qqqfpq4>OO>O,O>%4q,q4>9pwpuuuuuwp5$4OO+,#o++++O,O+##4$OOOO$$+w9999wwuuu;;;;;$$$$$Ooooo",
"qqqqqCCCVVq4qq4ppfqp>>>>,>O4*>4>>>qqwww9uuuiuw54q4+++OOo++++%+O,O#oO$>OO$+$99999uuttt;;;;;$$$$$Ooooo",
"qqqqqCCCCA4f9q4pppfq4554,*>,,*>q4q>5wp9wiiwiu45449+$O+4o++++,4OO+++>+>$$+$$wq4>9wiwwt;;;+;$$$$$ooooo",
"CCCCCbbbff554>>##*4#pppdqCFFVVbBfCM!!!!!IIYIIjjjjjlffffIUUUUMzcLKjzMzzifffwzxxxxzzzzz;49,>+Oo$o$+$+$",
"CCCCCbbbMM#5>>>##5*#pfpdpFFFVFbNMBB!!!!!IIIIIxjjjjqfixiIUUUUCKLKzCzfjciqfufAijxjzzzzl44444@@@@$o$+$$",
"CCCCCbbbbb>>>>5$##55pjBpqLFFVFbBNbM!!!!!IIIIIfjjjjfiffqIUUUUKKCLKzxxjjxdfxizzjxizzzll,4,5;@@@@o$$$+$",
"CCCCFbbbbb*6*65*5***6pBpfFFAFAfBNNN!!!!!IIIIIdBjBzddddfIUUIIVzFAHxxxizfiffixxddAzzzzi5>,4,%O$ooo$+$o",
"CFCCFbbbbb656*5#**#5ffppfFFAFABjNNN!!!!!IIIIIxjjjzfuffdIUUIIAIKKZZxxjxdiiifxxxxzzzzzx54>,4#O$$@$$$o$",
"%****>ppppq*>6*BBBBBdpNNdBMBBBpffppERRRRzACzHuipwixlzAz5999w555557774wxixxidwdddlllzx45555+$$+$#$o$o",
"****>pppq545665BBBBBbNdpfBBMBMfppfpERRRRAzAKAidufwlxzxz5999955555777w5ixxixdddddlzllBw5554$#o$O$o$o$",
"*****pppqp54>q>BBBBBN5pdBBBMBBpffdpRQRRRzAHxBidfipzAxxdw5i5i55555777w5xiixluddddlllllw5555#$+$$+$O$O",
"*****ppp5>>q>>4BBBBBNNBBpBfBbBpppppTRRRRzHAzLwdwfizzzAH55p5p5555577755llxixdddddlzlll55555+$+$+$O$O$",
"****%6p66p>>665bSSNbd6fppBABBBp6fpfERRRRAAzxZupduuxxzzzpi6ww55555777w7ixixidddfplllliq49554$$$+O@#O#",
">4>>>q>>p6>>>65pp6NnnNBdMWTEEEWWWWWxjzAjHzAHZ!!!!!AxAzAddpddp5ww7dddddlAzxxwwww4#$OO$w59p554wwi;>#4$",
",>,>,>q>4>>>>$5pfBBpBBBdNEEEEEWWWWWMxzzBZZZZZ!!!!!xHAHxddfidwi555dddddlxizz55p5p+$+$>wpw99ttttq;##$;",
",,,>,>>4>>4>59wfppdpfdNNNEEEEEWWWWWzBBAxZZZZZ!!!!!xxzxBpdifdw55ppdddddxHzxA5w5w5$$$OOw9ww9ttt9i$;;;;",
">4,,,>,>>454>4>ffdfpnndNdEEWEEWWWWWKzMBxZZZZZ!!!!!xHAHHdffid77w7upddddHdxlx54w4w+$+$$9p9wwtttt4$;$$;",
",,>,,q,44>>4>>>pBwdBnnnNNEEWEEWWWWWAjAxBZZZZZ!!!!!xBzAS6dddf77775dduddBxxxx5pw5w$$$O$9w9wwtttt4>$<;$",
"O>4$>bMMCjjMMMMMMBMB5>p9wfffff!!!!!!!!!!!!!!!JJJJJBHxxxHZZZZHZZZZZZZZZZZxxxdixuijjjljKKKKKwww5559,4+",
"$4#O,bbFxAbMMMMBBMBM6599pfffif!!!!!!!!!!!!!!!JJJJJxxBHxHZZZZBZZZZZZZZZZZZZHixuxujzlKzKKKKK555554,4+4",
"4O+4>BFbAMMMMMjBMBMB9999wfjdff!!!!!!!!!!!!!!!JJJJJHHxBHBZZZZZZZZZZZZZZZZZZZiwiiljzjlxzKKKK55559;4,44",
"4;>5#FMMMBMMMMfBBMMM9999pfpffd!!!!!!!!!!!!!!!JJJJJxBHxxxZZZZZZZZZZZZZZZZZZZuxuxizjzjAKKKKK55549444w4",
"#$5+5zCjCjjfbNpBMfBB54545pqfpf!!!!!!!!!!!!!!!JJJJJZZZZZZZZZZZZZZxAHxxZZZzAziuxudjzKAzKKKKK9;ww;;$,4,",
"$4;5$4,;;4ffBdfpp45p4545>BAzHAJJJJJJJJJJJJJJJ     JJJJJJJJJJJJJJJJJJJJZZAzL###*5i9pi9if99i;9w59lqlji",
"w;4$5;5;>5fdj6f5454454q95HzAxxJJJJJJJJJJJJJJJ     JJJJJJJJJJJJJJJJJJJJZZzAF>#5##wwfpwdifii,w$49qqqi9",
";4$5$4$445dfdffw5454454>5AzHHBJJJJJJJJJJJJJJJ     JJJJJJJJJJJJJJJJJJJJZZzHz##*#*ipwidiwuwqw,ww;iliji",
";44$;4>$$5qfifq94555>5955AAHzAJJJJJJJJJJJJJJJ     JJJJJJJJJJJJJJJJJJJJAzAAz>5*#5puiwuddiii,ww$4qiqfi",
"5$>55$>54$q9df9454555q4>5zzAxHJJJJJJJJJJJJJJJ     JJJJJJJJJJJJJJJJJJJJHAHzx>$$##d6dippipiq9,;9>9lffq",
"95>w9;ww555>544cBBxZ!!!!!JJJJJ                                        JJJJJ#5#5#HBzAzxdiiiLKKKKCzzzi",
"949;455545>4w5>cxHxx!!!!!JJJJJ                                        JJJJJ###*#xHABKdidjqCzKzcczACx",
"4q4>454544$4>44zzAAz!!!!!JJJJJ                                        JJJJJ5$5%$AzxHBdidijzzKKccxxxx",
"4w>555w4<944+>4BAzHA!!!!!JJJJJ                                        JJJJJ*####zLxxxidiiiKCcCKcxxiC",
"555645$w<<4;444xHzCz!!!!!JJJJJ                                        JJJJJ#5*$#IMAxzuxufxAKKcKcxxzz",
"bpbbb5>455q994p!!!!!JJJJJ               .........................          JJJJJ**#56#5#$$iw9i9+$#$$",
"bBpMj>455>p9wpq!!!!!JJJJJ               .........................          JJJJJ###**5##5#5pwf9#$O$O",
"MbbMq$$45*4qffp!!!!!JJJJJ               .........................          JJJJJ55#*###5##ipiwiOO$O$",
"fBbBj4>>>5ppqw4!!!!!JJJJJ               .........................          JJJJJo*5o###54#wfpwf>o@$o",
"BqSpjO4>>4f9pqp!!!!!JJJJJ               .........................          JJJJJ#*##5**o$$fipfw+o4O$",
">,,,,#>44O!!!!!JJJJJ               ........................................     JJJJJ5#o*#5544wPAIPP",
",>,,,,>OO>!!!!!JJJJJ               ........................................     JJJJJ##5*#q>w5;KDFPP",
",,,,>4O;#5!!!!!JJJJJ               ........................................     JJJJJ#o5$$9494pDTDGP",
",,,,,$O4#4!!!!!JJJJJ               ........................................     JJJJJ**#$$55545FDTPP",
">>>4,$$4>>!!!!!JJJJJ               ........................................     JJJJJ#5#$49;ww4IGGDS",
"qq4pq499wpBzHAxJJJJJ          ..........XXXXXXXXXXXXXXXXXXXXXXXXX..........     JJJJJ5####OOOO#56665",
"4qq6qp9q5pHxxxHJJJJJ          ..........XXXXXXXXXXXXXXXXXXXXXXXXX..........     JJJJJ#5*##+OOO$:6665",
"q9fqp5w5p5xBHxAJJJJJ          ..........XXXXXXXXXXXXXXXXXXXXXXXXX..........     JJJJJ#o*$5#O$OO45666",
"qssspw6ppqzAHzAJJJJJ          ..........XXXXXXXXXXXXXXXXXXXXXXXXX..........     JJJJJ#5#$+OOO#O55>>4",
"6pssdwppp4AKxxHJJJJJ          ..........XXXXXXXXXXXXXXXXXXXXXXXXX..........     JJJJJ#*#5+$O##o46>>5",
">q>qpfpipf!!!!!               ..........XXXXXXXXXXXXXXXXXXXXXXXXXXXXXX..........JJJJJ$%*O$qjpqfiqqwp",
"q>b>wffffw!!!!!               ..........XXXXXXXXXXXXXXXXXXXXXXXXXXXXXX..........JJJJJ55$#4qqqqffqiqf",
"q4pq4pdffp!!!!!               ..........XXXXXXXXXXXXXXXXXXXXXXXXXXXXXX..........JJJJJ$5###pqqfffiqqq",
"4qpwwfwffp!!!!!               ..........XXXXXXXXXXXXXXXXXXXXXXXXXXXXXX..........JJJJJ#*#5offqqfwqqqq",
"4ffwwifffp!!!!!               ..........XXXXXXXXXXXXXXXXXXXXXXXXXXXXXX..........JJJJJ#$#5$ff9qqqiwqq",
"qwfffAAzxHxxHBx          ..........XXXXXXXXXXXXXXXXXXXXXXXXXXXXXXXXXXX..........JJJJJ*5#%$#>>o4OO+,O",
"fdffdzzAAHZZZZZ          ..........XXXXXXXXXXXXXXXXXXXXXXXXXXXXXXXXXXX..........JJJJJ##$#5o#*5#O++++",
"xfAzdHAzxxZZZZZ          ..........XXXXXXXXXXXXXXXXXXXXXXXXXXXXXXXXXXX..........JJJJJ*%5#5#*##OO+++O",
"fdfdMFAHZZZZZZZ          ..........XXXXXXXXXXXXXXXXXXXXXXXXXXXXXXXXXXX..........JJJJJ####*5#5*#>++OO",
"pxfzdBzAZZZZZZZ          ..........XXXXXXXXXXXXXXXXXXXXXXXXXXXXXXXXXXX..........JJJJJ*5$*###o#*#++OO",
"9fpffw6ppw!!!!!     ...............XXXXXXXXXXXXXXXXXXXXXXXXXXXXXXXXXXXXXXXX.....JJJJJ$5*o#*54OO#+$oo",
"fpdwppp>w5!!!!!     ...............XXXXXXXXXXXXXXXXXXXXXXXXXXXXXXXXXXXXXXXX.....JJJJJ###5###O$#oO+oo",
"pppfpwp6p6!!!!!     ...............XXXXXXXXXXXXXXXXXXXXXXXXXXXXXXXXXXXXXXXX.....JJJJJ#$55o#O#>4oOOoo",
"fdfpfp>p6p!!!!!     ...............XXXXXXXXXXXXXXXXXXXXXXXXXXXXXXXXXXXXXXXX.....JJJJJ#*%#o55#OO+$+$o",
"wdpfw>wqq5!!!!!     ...............XXXXXXXXXXXXXXXXXXXXXXXXXXXXXXXXXXXXXXXX.....JJJJJ5*$5%>#>>>O+$O+",
"*5#O4xMfMMBAAzH     ..........XXXXXXXXXXXXXXXXXXXXXXXXXXXXXXXXXXXXXXXXXXXXX.....JJJJJ$###*BMpzq>5$4>",
"5>O45MMMBjAzHHB     ..........XXXXXXXXXXXXXXXXXXXXXXXXXXXXXXXXXXXXXXXXXXXXX.....JJJJJ#5$##xMjxj454>5",
"#5#4>MMMpxHxxxx     ..........XXXXXXXXXXXXXXXXXXXXXXXXXXXXXXXXXXXXXXXXXXXXX.....JJJJJ#*#5*jfMMj$5:44",
"O>5#%fMMjMAxZZZ     ..........XXXXXXXXXXXXXXXXXXXXXXXXXXXXXXXXXXXXXXXXXXXXX.....JJJJJ$%#4$qCMAf55>>w",
"$5#4*xMMpxAHZZZ     ..........XXXXXXXXXXXXXXXXXXXXXXXXXXXXXXXXXXXXXXXXXXXXX.....JJJJJ55$#+MbfAx55;$5",
"qfpff!!!!!ZZZZZZxxxxXXXXX......... XXXXXXXXXXXXXXXXXXXXXXXXXXXXXXXXXXXXXXXXJJJJJ#$$$#$5##$KcKcz*>ooO",
"fifpf!!!!!ZZZZZZBHBHXXXXX.........XXXXXXXXXXXXXXXXXXXXXXXXXXXXXXXXXXXXXXXXXJJJJJ##5$#$*##5CKcLz#@#o>",
"ffipf!!!!!HBZZZZzAAzXXXXX..........XXXXXXXXXXXXXXXXXXXXXXXXXXXXXXXXXXXXXXXXJJJJJ###*######KcKKc+5OO#",
"wfffd!!!!!HxZBZZAzHAXXXXX..........XXXXXXXXXXXXXXXXXXXXXXXXXXXXXXXXXXXXXXXXJJJJJ55#555$>#5LzCcK+#$O#",
"fdfwp!!!!!xBIBHBHzBzXXXXX..........XXXXXXXXXXXXXXXXXXXXXXXXXXXXXXXXXXXXXXXXJJJJJ##5#O#5*#5AKccKO##$#",
"iiiiiHHHxIddfdpwpp4pLLLLHifxddXXXXXxjfxipdwfpXXXXXpwppp5>>55XXXXX4>>45XXXXXXXXXXbpfMfpdMpfwp9qqjbjxB",
"iiiiiKHHHHddbdfpwpp9LLLLAxBdBxXXXXXxxjijfdppfXXXXXwpwpp5945>XXXXX5$w55XXXXXXXXXXpMfBBpddqq9pqpqbfBdf",
"iiiiwIHHHH6Bdffppw9pKHLLIdddfdXXXXXwfjjjpfwfpXXXXXfwfdp5544>XXXXX445$9XXXXXXXXXXMpBpfdfdfjpfq9pBxBBB",
"iiiiiHHHHHpdBdBwp9qpIASHxxxfddXXXXXjixqzpddpfXXXXXwpwpiw55>5XXXXX4:4w9XXXXXXXXXXfMpMfiBdBfp9p9pfBfBx",
"iiiiiHHHHHddppppw9p5HAIIKfdfxdXXXXXljjxxpfpfpXXXXXfwpwpw>4>4XXXXX555w4XXXXXXXXXXBpBpBfpfdip9ffpBMxff",
"%O%%*BBBSM>bqppffdjdidffipfpdfAzMISXXXXX65665fidfdfwpdwXXXXX>%*>4$4#O4q566666666BIBFDDDDDDBdBNd5>$w5",
",>%O>BBBSbbbwqjffffpfddddfwffiAALMbXXXXX65665zfzfzwfwwfXXXXX%>,%4$#4>>>w>6666665BABFDDDDDDBdxbN55454",
"%%4O#fBBbSspb>BpxdAffdddddffppHzFzxXXXXXp5665fAfxuwdfwdXXXXX>%>,$45OO+4:5q6666p5FHFADDDDDDBNBpB555>5",
",%**>xBbNS6qMfpdpdfddifffwfibpIMCzBXXXXX565pwfifwxfwpdwXXXXX>>O>4O+>#4f$44666656FAAADDDDDDNNABf5;>>4",
"%---*NNbBfpfpB5fffffdfffffpfpqLMCzCXXXXX66955ippxi9fwifXXXXX5>>>$>$4O>>455>45555FBDDDDFDSFNSfBp56>>q",
"%-->*ndnpNdNfdNpdzdzwwpwwYYYYYAILLI49;w4BBCzBw>>>>4#$w$5,*O*44>445>,>599456NBBBNQQQQWFFBFSSGWALp>Nfp",
"*->-*n6NdNpdddfidiidp5ppwYYYYYIALLK$9;$9zzzjz56>55$w$$##O>>O5q4454>>>4q>qp6BdBbBQQQQQFBFBFDPFAFM6pb6",
">>->*NNN6NfpdpfzAfzdpfwppYYYYYzILLI54w9>zALcz4>>>5$$$#54##O>95444$4+>>4q>>6NBBBzQQQQQBFBFBDFTFFbN>bb",
"->>->bbpffd6dBpfixAdpwppwYYYYYKILLL5>945ccKzf>4>>>#5#$;$$4O$q444w4>4>4>4w>qMBBBBQQQQQFBFBFGGGGGNb66N",
"*-%,-bnnffdjppwxdiidpp4ppYYYYYAIKKL454w5cccfz>>5>>#5$>#5$$$$4p44>>,>,>>49p>CpBBAQQQQQBFBFBGGGGSNnNN>",
"s>q066**>$;45>$5wwwwzCHdAzFMzF5www54$>#$4>>4559445##5##5$;;;$44>4944q99jfxjQQQQQQQQQQSSSSSDPGGSNmmNb",
">->>>*6655<$4545ipw5xxfxzFAIFzpwww4>455>4>>549ww54#>###54#4495>4$44>49qqffqQQQQQQQQQQSSSSSDPGGDNmmmN",
"$>446>>>554>;5wwwwiwBzAxzzCCKC4wwww5O44>>>4>454:q5####*5$44;>4>6>4>4>4qqAffQQQQQQQQQQSSSSSGGGGGNbbbb",
"4>4>>>4>$>5$5;$iwiwwBfBHCCKKFKwwwww#4$>>,#4$4w54>4*##*#>$4$+4>>54>454>qqqpfWQQQQQQQQQSSSSSGGGGGNMMbN",
"94q>44>>4>54$5$wpwiwMAzzBAxCIxww45445>55:<44>$4>4w*Oo*#5>O#44>p5>>44q>ffpbpQQQQQQQQQQSSSSSSVGNGNMMfj",
"qqqMpffqqjpffjfAzfzizzCAzzCBfM6655$4$$;;;##O>o45#>OO>o>5q54fMpddMfBBBBKAFSFEDEEESSSSSBSSSSb6bnp6>555",
"fMbqbqqbqbpMbpMbxxpAzzxxxfFxCj4>44>>5;94$$;$4+$54OO>O4O49444zdBBMBBxxbBFHBKEPPRRHSSSSBBFZHppwpq45>$w",
"jpbjbqbqbqbqpMMfqxMdzAxxxjjxMj>>>O,>$4;;$;$##>>O$O+$OO>44954dBdxBBBBBBFBBFBTERELAASSFBBHBAfpfpf5>>45",
"MpqbbqbqqbbbqjMfBxxBzxxxAMMCFj>>>,>>5$>O;$$4*%+$O>O>$4O94445BdBdpBxBBxIAAAAERERPFAKAASBAAApfpfp5;w54",
"pbbpbbqbbqpMbffBdxffAxxxzzjjfj>44>,>;4+>$<;$#5%5>#4#+$$45qp>dBdbBbxBBxBAAKAEPPRRBABCHSBFAApfwff55$>5"
};
