/* XPM */
static char *_de7d25c079a4ce6952c63a2af5e48a2MtKpHyQDAtsw9pKJ[] = {
/* columns rows colors chars-per-pixel */
"50 50 69 1 ",
"  c #120505",
". c #210909",
"X c #2E0D0C",
"o c #0A2727",
"O c #0C2626",
"+ c #0C2727",
"@ c #0D2727",
"# c #0A2728",
"$ c #0D2728",
"% c #0D2729",
"& c #0B2829",
"* c #0C2929",
"= c #0D2929",
"- c #0D2B28",
"; c #0E2A28",
": c #0F2B2B",
"> c #0C2C29",
", c #0D2D2B",
"< c #0E2F2C",
"1 c #102E2A",
"2 c #102E2B",
"3 c #112F2B",
"4 c #102F2C",
"5 c #0F302B",
"6 c #0F332E",
"7 c #10302A",
"8 c #11302B",
"9 c #10322A",
"0 c #11322A",
"q c #13332A",
"w c #13342B",
"e c #10302C",
"r c #10312E",
"t c #13352C",
"y c #11342E",
"u c #10352F",
"i c #12342F",
"p c #13382F",
"a c #14382D",
"s c #14392D",
"d c #163B2D",
"f c #153B2F",
"g c #153E2F",
"h c #113730",
"j c #133630",
"k c #133830",
"l c #133831",
"z c #133A31",
"x c #143B30",
"c c #143A32",
"v c #123D33",
"b c #133D33",
"n c #163C30",
"m c #143C33",
"M c #163F35",
"N c #193F30",
"B c #5C1E1C",
"V c #17402E",
"C c #174031",
"Z c #174035",
"A c #1A4531",
"S c #194432",
"D c #1B4732",
"F c #184436",
"G c #184637",
"H c #1A4637",
"J c #1C4937",
"K c #1B4A3B",
"L c #22573A",
/* pixels */
"666bb6<6hy==1%*6:,56qqq8:oo*ooo*O##Oo-558007--OOOO",
"666bb66<4h=<==*555<<qwq85o*ooo*o%O%%OO55587o-OO%OO",
"666bb4<614%1<==:<<48www:5oooo#o*O%O=%-:800o7=-OOO-",
"bbbhh1==%%ll4MmbhzLLSSSfpw6tSSCVfffqyyfpdd:o=O*O%O",
"mcchh=11%%41iMMcztLLSSSfpwwwSSgCNffiiqwgdd:>>o-O#O",
"%%%h<4=2ccllich4<yFHgcn88fff555:312qwgwiss77:-OOOO",
"%%%44:<4lcl4ctf4hhHHcnnwtffa88:5y18qgwiiss878OoOOO",
"%%%44:22lhjhhzcy44HHnnnt1ffg8811188fwfwwss:5:--OOO",
"<=<<::6:yyhlhGHJJJfgnnnLLgnnt614wiwnda81oO855988%-",
"=<:%::=1yyilhGHJJJccnnnLLnnntt18iiinan18--588861=-",
"*:*zfhhzzcy1<tuLLLLLLLLBBnnnnnNcnnnnnnqqwaVVV577::",
"*==zzhzhpn=16t6LLLLLLLLBBnnnnnfgnnnnnnqfagVVV777>:",
"=:-fztzhzz:85ttLLLLLLLLBBnnnnnnnnnnncNg8pggVV5:5>:",
">>-:,tut4<<1,nnBBBBBBBB  BBBBBBBBBBngfO%8w8ww>5>6w",
"::>>*ytt=y:1:nnBBBBBBBB  BBBBBBBBBBnfc-Ot8www>5>s6",
"5577<<:>ncLLLBB                    BBB*=nV8t6VbCff",
"5:8::>::cgLLLBB                    BBBO%nVtiwVfVff",
"55:656>4nfLLLBB                    BBBO%ncwqtgVfw*",
"ppz*:5y4LLBBB       ............      BBO2==7:8w%O",
"zut5:51yLLBBB       ............      BB%%O-=5w5O*",
"*>>*=LLLBB        ....................  BB2OO2:5ZZ",
":*>:=LLLBB        ....................  BB%O2158ZZ",
">*>:=LLLBB        ....................  BB--O=<:ZZ",
"65651nnnBB     .....XXXXXXXXXXXX......  BBO%OO%O::",
"5p<44cnnBB     .....XXXXXXXXXXXX......  BB-==*##5:",
":66ttLLL       .....XXXXXXXXXXXXXXX.....BB%%#t4yt5",
"56>ttLLL       .....XXXXXXXXXXXXXXX.....BB-O=6yy66",
",66:6LLL       .....XXXXXXXXXXXXXXX.....BB%%=yt4t6",
"yctccnnn     .....XXXXXXXXXXXXXXXXX.....BB-O=O1=oo",
"yhtNfnnn     .....XXXXXXXXXXXXXXXXX.....BB-%O%%Ooo",
":ty1yLLL  ........XXXXXXXXXXXXXXXXXXXX..BBO%O%OOoo",
"t6441LLL  ........XXXXXXXXXXXXXXXXXXXX..BBO21#=-oo",
"<yy:1LLL  ........XXXXXXXXXXXXXXXXXXXX..BB=-%==%%O",
":==niNcV  .....XXXXXXXXXXXXXXXXXXXXXXX..BB%O-qtc1=",
":==ziNnn  .....XXXXXXXXXXXXXXXXXXXXXXX..BB-=%czh11",
"665LLnnncgXXX.....XXXXXXXXXXXXXXXXXXXXBB-%O%OggnO=",
"t6tLLcnnnnXXX.....XXXXXXXXXXXXXXXXXXXXBB=%%#=ggg#O",
"6wwLLgnnnnXXX.....XXXXXXXXXXXXXXXXXXXXBBOO=%-gggO%",
"8wwgniiqy1NnSfiXXXbt:tyXX5y641XX11<XXXXXifhjtt:8tz",
"wwwSVlii:yNNnwiXXXwn86yXX8:t14XX=1:XXXXXiithuy16zh",
"#%%cc4<hzytz4<ycnnXX6=4tt8ywXX=6*:=:2414ncMcMcpp11",
"###zc<l<hw<ttjhgbnXX5:88z1y<XX==*==42144cZgMchtz:4",
"=#Ohllytttttyy4nnnXX8:5y8t1tXX===:=4::6<MMczMzzh%%",
"*:%ll4hwth<41DJNCV55fgg1>:==%=5:*5=<4<tzKKcZcMMMl1",
"#:&h8wp5tt:64DDNVV::ggc1:=7--O>655*5y:zfKKMccMMMll",
"4:221-:-y1gncgS1855*::=<5oOO=:<:>:<thyKKKJcccMMMlh",
"<::%7-7711fpzNc158o:-=111%O%<%:2=<<6yyKKKKcMMMMMhh",
"<<<:::o:w8cfzgC588:7::<11%O%=%<<<<<yyhKKKKMccMMMhh",
"<hhlj<hhfhzfffz=42<#=--%==O=<<ftcczMcgHFccMMf:t<<<",
"hhh4rujhyhfffzf=2=:%==-==O=O<<ficzfcMfFFMcccMy8511"
};
