/* XPM */
static char *efbbc8bfdd7c476fdf65f9e236bcbc2fs8HJBBKVH5rGjQ5v[] = {
/* columns rows colors chars-per-pixel */
"100 100 63 1 ",
"  c #2E1A07",
". c #4D2804",
"X c #643A00",
"o c #6E4000",
"O c #6F4100",
"+ c #704100",
"@ c #704101",
"# c #714200",
"$ c #724200",
"% c #734300",
"& c #724302",
"* c #744400",
"= c #754400",
"- c #754401",
"; c #744503",
": c #794600",
"> c #794700",
", c #7A4700",
"< c #7B4601",
"1 c #794502",
"2 c #774806",
"3 c #7B4800",
"4 c #7D4900",
"5 c #7E4800",
"6 c #7E4900",
"7 c #7E4902",
"8 c #7F4A02",
"9 c #7E4A03",
"0 c #7F4A03",
"q c #7F4C03",
"w c #7E4C06",
"e c #804C05",
"r c #804D06",
"t c #814E06",
"y c #824F09",
"u c #83510B",
"i c #83510C",
"p c #83520E",
"a c #84530E",
"s c #835310",
"d c #855510",
"f c #865511",
"g c #885916",
"h c #885817",
"j c #895B18",
"k c #8A5A19",
"l c #8A5B19",
"z c #8A5B1A",
"x c #8A5D1B",
"c c #8B5C1C",
"v c #8B5D1C",
"b c #8B5D1D",
"n c #8D5F20",
"m c #8E6121",
"M c #906527",
"N c #916528",
"B c #916629",
"V c #92662A",
"C c #92662B",
"Z c #92682C",
"A c #94692D",
"S c #956B30",
"D c #956B31",
/* pixels */
"$$$$$$$$$$O$X$$:::::X=X=$O$XO$$$$$$$X$$OO$X$$O$O$$=$$$$$$$$$X$X==3::::X====$X=====$$$==$X====$X====$",
"$$$$$$$$$$$$=$O:::::$$$O$$$=$$$$$$=$=$X$$$=$X$$$X=$$$$$$$$$$==$=X:::::$=$X=X$=$X$$$$$X=X$=$X=X$=$X=X",
"$$$$$$$$$$$$$$$:::::$X=$$=$$=$$$$$$=X$=$=$$$=$O==X$$$$$$$$$$==X=$:::::$=X$=$X=X$$$$$$$=$X=X$====X$=$",
"$$$$$$$$$$X=$=X:::::O$$$$X$OX$$$$$$X=O$$X$O$$$$X$$$$$$$=$$$$$X$=$:::::$X===X$===$$$$$==X$===$X$X===X",
"$$$$$$=$$$O$O=$:::::$$$O$O$O$X$$=;=$$O$X$$O==X$$$$=$$$;=$$$$X$X=$::3::O$=$X==$X===$$$=$XX===X$X$=$X=",
"O$$$O:::::$$$X$$$$O$$=X$X$$$$=O$$X$=$$$=$=$X$$O$$O$=X$X:::::==$=O$X=O$OO=X$==X$=X=X$X===$=$X=====X$=",
"OO$$$3::::=$$$O$=$$$O$$$=$O=$$X$$X$X$=$$$X$=$$X=X$$X=$O:::::==X=$$OOO$$O=============X$XX=X$=$X=====",
"$OX=X5::::X$O$=XX$O$=X=X$$$X$O=$==O$$X$OO$$X$O$O=$O$$$$:::::$X$==X$$OOOO$X$X$X$XX$X$=$==$====X$=$X$X",
"$O$=$:::::$$O=$$O$OOO$O$$$$O$=O$$=$X=$X$X$X=$X=$=X=X$=$:::::X$X=O$OOO$O$$$$O$=O$=X==1=X$X$X=X===X$X$",
"X$$X$:::::$=$XO$OOO$=X$$$=X$$X$$X====X====$=O$$$=$=$X=X:::::==$=OOO$OOOO$=X$$X$$=$X$X$====$=$=$X====",
"53:::O=$X$$XOO$34444$O$$O:::::=$$=$$$$$$==X=$$O$$X::53:$X$X$==X=O84454XXXXX:::::$=====$$$$X=X=X$=$X=",
":::::$X$=$O$$$O54444$$X=$:::::X$X=X$$$$$$X$==X$$==:::33=====$X$=O44455XXXXX:::::X=X$X$$$$$$=$====X$=",
":::::OOOOOO$X$$54444$OOOX:::::OO======$$X=$OO$=$$=:::::X$=$$X$X=O55444XXXXX:::::==$$$$$$$$X==$X====$",
":::::$$O$$OO=$O54444OO$$=3::::$OX$X$:X$=$=$$=XX$X=:::::$X=X1==$=O44444XXXXX:::::X$1XX$$=$$$==X$=$X=X",
":::::OO$OOOOOOO54444O$$O$5::::OO=X1$====X$$=$$OO=X:::::====X1XX=O54544XXXXX:::::=X=$==$=$=$=====X$=$",
"OOO$O;;;;;455445444445555X$$O$::333$X=X==$$X$OOO$$&&&$==X$1Xe3ee4>>:4;4:45:O$=X$:=;=;$X=X=$X$X$X===X",
"OOOOO;;;;;444444444444445OOOO$:::::OOO$=OOOOOOOO$O&&&&&$OO$O54444>>>>>>4>4>OX=$O=$$$:X$$$O$=$$X$=$X=",
"OOOOO;;;;;444444444444445OO$OO:::::OOO$XOOOOOOOO$O&&&&&OX$$$55444>>>>>4>4>4O$O$$$$==;$O$X$$XO$=O=X$=",
"OOOOO;;;;;444444444444445OOO$$:::::OOO=$OOOOOOOOOO&&&&&O=$O=44444>>>>>44;44O$OOO$;=$=$X==$O$$X$O====",
"OOOOO;;;;;444444444444445O$OOO:::::OOO=XOOOOOOOOOO&&&&&O$$$X44444>>>>>4>44:OOO$O=$=;:X$O$$$$$=O$$X$X",
"$$O;$4444444444444444444444444wwwwwsssss&&&XOOOOOOOOOOO444444444444455;$;;;44444:::::X=$O=$$$O$$OOO$",
"OO$O$5444444444444444444444444wwwwwsssssX&=1OOOOOOOOOOO444444444444445;;;$;54444:::::$$$$XO$$$X=OOO$",
";O$$O4444444444444444444444444wwwwwsssss&1X&&OOOOOOOOOO444444444444444$;;;;54444:::::O$=O$$XX=$$OOX=",
"O$O$$4444444444444444444444444wwwwwsssss$X=&OOOOOOOOOOO544444444444444;;=$=54444:::::$$X$$$=$O$=OO$=",
"$;OOO8444444444444445548884454wwwwwsssss$&X&$XOOOOOOOOO544444444555544;$$;;54555:::::$X1X1$=X=$XO$$O",
"55558ddddd4444444444ttwtwOOOOOOOOOOOOOOO&=1:1DDDDDDDDDD11111;;;$;$;;;;4:44:$O$$=$O$OXe33<<X1$===X$OO",
"w5w55ddddd4444444444ttttwOOOOOOOOOOOOOOO1===:DDDDDDDDDD11111$=;$====;;:44:5OOOX=OX=$X<3<<<1XX$XX$XX$",
"55w58ddddd4444444444tttttOOOOOOOOOOOOOOO&:&=1SDDDDDDDDD11111;=;;;;$;$;5444:OO$$=O$$$1<<<<<=====$$OO$",
"5ww55fdddd4444444444wttttOOOOOOOOOOOOOOO===;1DDDDDDDDDD11111;$;;;$;;;;4:;4:OX===X$X=X<<<<<X1====OOOX",
"55555fdddd4444444444tttwtOOOOOO$OOOOOOOO;;=&$DDDDDDDDDD11111====;;;$$$44444O$=$X===11e<<ee1X$X$X$XO$",
"w5e5w58558uuuuu44444uutyu88w55DDDDD44455DDDDD..........DDDDDDSSSD44454DDSSDOX=X$=$=X1XX1=Xysysy22222",
"5e5e555885uuuuu44444utuyu888weDDDDD44444DDDDD..........DDDDDDSSSD44444DDSSSO$====X1X==1X1Xaysya22222",
"eeeeeee384uuuuu4e<3eyyyyeeeww5DDDDD44444DDDDD..........DDDDDDDDDD44444DDDDDOOO$$OOX=$O$X=Xauuuy22222",
"e<eee<ee48uuuuu8<e33yyyyye3e5wDDDDD44444DDDDD..........DDDDDDDDDD44444DDDDDO$OOOX$$O$$$=1Xaauua12222",
"eXe<<ee384uuuuu83e3eyyyyyee5w5DDDDD44444DDDDD..........DDDDDDDDDD44444DDDDDOOOO;=$$$$O$$1=aauau32222",
"tteeehzzxxqqq8qDSADDDDDDA....................          ....................DDDDDSSSSS$$$X==XX<Xe;;;;",
"eeeeejjzxjw5e88DSSSSDDDDS....................          ....................DDDDDDDDDD$$$$$X$OO$;$$;;",
"eeeeejzzjj8t5e8DSSDDDDDDS....................          ....................DDDDDDDDDD$$$$$==$$O$;;==",
"eeeeejjxxx88e5eDDDDDDDDDS....................          ....................DDDDDDDDDD$$$=$$OX=O;;$$;",
"eeeeezzgxxqweeeDDDDDDDDDS....................          ....................DDDDDDDDDD$$$=;X$$$O;;==;",
"hkzzze3ee<ADDDD..........                                                  ..........DDDDD3544445544",
"zkzzze3<<eDDDDD..........                                                  ..........DDDDD5544445544",
"zzzzhee<<3SSDDD..........                                                  ..........DDDDD4444444444",
"zzzzk3<ee3DSDDD..........                                                  ..........DDDDD4444444444",
"kcccze333eSSDDD..........                                                  ..........DDDDD4444444444",
"SSSSD..........                                                                      ..........DDDDD",
"SSSSS..........                                                                      ..........DDDDD",
"DDSSS..........                                                                      ..........DDDDD",
"DDDDD..........                                                                      ..........SDDDD",
"DDDDS..........                                                                      ..........SDDDD",
"                                                                                                    ",
"                                                                                                    ",
"                                                                                                    ",
"                                                                                                    ",
"                                                                                                    ",
"ckkkkckcck                                                                                =====34>>4",
"zzzzzzkckc                                                                                ;====3:44;",
"zzzzzzzkck                                                                                ====;::::4",
"zzzzzzkkkj                                                                                ;;===34:::",
"zzzzzzkkck                                                                                ;;===:4:4;",
"VNNNNkkkhh<e33ezbbbb                                                            4444355544444455:555",
"VNNNNkkkkhe<3eecbbbb                                                            44445555444444455555",
"NNNNNkkkkkeeee3cbbbb                                                            44444444444444555555",
"NNNNNkkkkk<e<3ecbbbn                                                            44444444444444555555",
"NNNNNzkkhc:5555bbbbb                                                            44444444444444455555",
"kklkllzzzzbbbbbgggggkcjcjsffaf                                        854444444444444444444444444444",
"zkkkkzzzzzcnbbbgggggckcjcfsffa                                        584444444444444444444444444444",
"zkkklzzzzzccbbbgggggjcjcjsffff                                        444444444444444444444444444444",
"lkzzllllcjccbbchggggxxcjldfaaa                                        444444444444444444444444444444",
"lzzzlllljcncbbbhggggjjjclaffff                                        444444444444444444444444444444",
"SSDDDzlccjNNMMNXXXXXnnnnmxllgxxxjzxbbbbbzzzzzzzzzzNNNNMMNNNMlnnxb44444444444444444444444444444444444",
"SSDDDzzzjcNNNNNXXXXXnnnncxlllgxjxgxbbbbnzzzzzzzzzzNNNNMVNNNBlxlxb44444444444444444444444444444444444",
"SSDDScjcjcNNNNNXXXXXnnnnmlkllllllllcnccckcjcjkcjzzNNNNNNNNNNnlnnx44444444444444444444444444444444444",
"SSDDSzcjcjNNNNNXXXXXnnnnmlkzlllllllcnccccjchccjczzNNNNNNNNNNccxlb54444444444444444444444444444444444",
"DDDDDczcckNNNNNXXXXXnnnnnzzzllllllllbcclhckckccjzzNNNNNNNNNNccccx44444444444444444444444444444444444",
"DDDDDSSDSScjchcNMVMMlllljzzzllllllllxjxxcjcjkNNNNNyyyyykllllcllzxaaaaa44444hhhhhhhhhh444444444444444",
"DDDDDDDDSDkjckkNNNNNlllljcjcllllkkkljkjjjchcjNNNNNyyyyykllllllzzxaaaaa44444hhhhhhhhhh444444444444444",
"DDDDDDDDDDckkccNNNNNkkllzjcjllllkklljcjkckcjcMNNNNyyyyykllllllzzxaaaaa44444hhhhhhhhhh444444444444444",
"DDDDDDDDDDkcjckNNNNNkkzzzzjcjcllkkzzjcjcjcjccMNNNNyyyyyzlllllzzzjaaaaa54444hhhhhhhhhh444444444444445",
"DDDDDDDDDDckckjNNNNNkkkzzzcjclllzzzzjkjjchckcNNMNNyyyyyzlllllczzjaaaaa55444hhhhhhhhhh444444444444445",
"DDDDDDDDDDDDDDDNNNNNmmmmmlclllVVNNNckcchMMZNMchhcjckcjcSDDDDaaaaaaaaaa3w77effffffffffaassse33e<zbbbb",
"DDDDDDDDDDDDDDDNNNNNmmmmMlllclVMNNNjjkkcZNZMNcccjchckcjSDDDDaaaaaaaaaae777efffffffffsaaysy3ee3ecbbbb",
"DDDDDDDDDDDDDDDNNNNNmmnnnlllllMNNNNkchcjNZNMMcckckkjckcSDDSSaaaaaaaaaae77w7sfffffffffappss33e33cnbnc",
"DDDDDDDDDDDDDDDNNNNNmmnnnlllllNNNNNckcjcMMNZNchchcckcjcDDDSSaaaaaaaaaa3w77efffffffffspppaye33e3ccccc",
"DDDDDDDDDDDDSSSNNNNNMnMnncccccNNNNNkcjcjZNNCNccjcjckccjDDDDDssasaaaasa77w77sfffffffffpapsyee3e3ccccc",
"DDDDDDDDDDcckccASSSSDADDSSSDSSzzjkcNNNNNjcjcchjcjcDDDDSSDDDDDDSSSzzzkcCCCCADDDDDwwtwwteereyyysyfffff",
"DDDDDDDDDDkcckcSSSSSDDDDSSDDSSzzkcjNNNNNckcjcjcjchDDDDDDDDDDDDDDSzzzkjCCCCCSDDDDttttteeeeesasssfffff",
"DDDDDDDDDDchjcjSSSSSDDDDDDDDSSzzcjcNNNNNjchchcjcjcDDDDDDDDDDDDDDSzzzccCCCCCSDDDDtwwttweeeesysyafffff",
"DDDDDDDDDDcckcjSSSSSDDDDDDDDDDccjcjNNNNNcjchcjjccjDDDDDDDDDDDDDDScckccCCCCCDDDDDrrrrreeeeesppppfshff",
"DDDDDDDDDDkjchcSSSSSDDDDDDDDDDcjjxcNNNNNkcjckkcckcDDDDDDDDDDDDDDSkkckjCCCCCDDDDDrrrrreereesypppfssff",
"DDDDAcjcckDDDDDZAAAADDDDDDDDDDSSDDDNNNNNkkkkkDDDDDDDDDDDDDDDDDDDDDDDDDSSDDDDDDDDDDDDSDDDSDACVVCzjccj",
"DDDDDkcjkcDDDDDZAAAADDDDDDDDDDSSDDDNNNNNkkkkkDDDDDDDDDDDDDDDDDDDDDDDDDDSDDDDDDDDDDDDDDDDDDNCVVVzkckc",
"DDDDDzzzckSDDDSAAAAADDDDDDDDDDDDDDDNNNNNkkkkjSSDDDDDDDDDDDDDDDDDDDDDDDDDDDDDDDDDDDDDDDDDSSVVVVVzcjcj",
"DDDDDczzjkSDDDDAAAAADDDDDDDDDDDDDDDNNNNNkkkkcDDDDDDDDDDDDDDDDDDDDDDDDDDDDDDDDDDDDDDDDDDDDSVVVVVzjcjc",
"DDDDDzzzkcDSDDSZAAAADDDDDDDDDDDDADDmNNMMchkkjSDDDDDDDDDDDDDDDDDDDDADDSDDDDDDDDDDDDDDDDDDDDVVVVVzjjxh",
"ZZCCCnnnnncjjccDDDDDDDDDDDDDDDjjxxxxhxjhbzzcbjjjhhDDDDDDDDDDDDDDDNNNNNDDDDDDDDDDDDDDDDDDDDjjjjjcccbc",
"ZZZZZnnnnnjjjjjSDDDDDDDDDDDDDDjjjjjjjjjjccxxxjjjjjSDDDDDDDDDDDDDDNNNMMDDDDDDDDDDDDDDDDDDDDhhjjjbbccc",
"ZZZZZnnnnnjxjccDDDDDDDDDDDDDDDjjjjjjjjjjbbxxxgjjjjSDDDDDDDDDDDDDDNMMMMDDDDDDDDDDDDDDDDDDDDjjjjjbcccc",
"ZZZZZnnnnnzbzjjSDDSSDDDDDDDDDDjjjjjjjjjjxxxxbjjjjjSSDDDDDDDDDDDDDMMMMMDDDDDDDDDDDDDDDDDDDDjjjjhbcccc",
"ZZZZZnnnnnzhzjcSDDDSDDDDDDDDDDjjjjjjjjjjxxxxxjjjjjSSDDDDDDDDDDDDDMMMMMDDDDDDDDDDDDDDDDDDDDjjjjjbcccc"
};
