/* XPM */
static char *bdc07f8c6e9a44b1d416523a15c0ef6bhANT5GfkI3F4lovd[] = {
/* columns rows colors chars-per-pixel */
"50 50 76 1 ",
"  c #0A2627",
". c #0A2727",
"X c #0C2626",
"o c #0C2727",
"O c #0D2727",
"+ c #0B2728",
"@ c #0D2728",
"# c #0D2729",
"$ c #0B2829",
"% c #0C2929",
"& c #0E2928",
"* c #0E2929",
"= c #0D2A28",
"- c #0D292A",
"; c #0F2B2B",
": c #0C2C29",
"> c #0E2E29",
", c #0F2F29",
"< c #0D2D2B",
"1 c #0E2C2A",
"2 c #0E2F2C",
"3 c #102D2B",
"4 c #112F2B",
"5 c #102E2C",
"6 c #112F2C",
"7 c #0F302B",
"8 c #0F322D",
"9 c #0F332E",
"0 c #123229",
"q c #10302A",
"w c #13332A",
"e c #13342B",
"r c #12312D",
"t c #10302E",
"y c #10322E",
"u c #10352F",
"i c #12352E",
"p c #12342F",
"a c #11372E",
"s c #11372F",
"d c #12382F",
"f c #14382D",
"g c #14392D",
"h c #163B2D",
"j c #14382E",
"k c #153E2F",
"l c #173F2F",
"z c #113730",
"x c #133630",
"c c #123830",
"v c #133831",
"b c #143B30",
"n c #143A32",
"m c #133D33",
"M c #163C30",
"N c #163D30",
"B c #153D33",
"V c #163F35",
"C c #193F30",
"Z c #17402E",
"A c #174031",
"S c #174035",
"D c #174235",
"F c #174435",
"G c #1A4531",
"H c #194432",
"J c #1B4732",
"K c #1A4635",
"L c #184637",
"P c #1A4637",
"I c #1A4837",
"U c #1C4937",
"Y c #1A4A3A",
"T c #1B4A3B",
"R c #1C4E3A",
"E c #22573A",
/* pixels */
"999mm929sy#*1*$19129wwwq3**  .$. * X* 81qwq,1= =XX",
"999mm992iy*11**81981wwwq1.   ..**X# =X83wq====XXXX",
"999mmy29yy#3*$*9913ywww39  X..$. X**XXqy,e=8*.XXX*",
"mmmzc****#yxsBmdsdEEHHHhdsssHHZABhh0syhihg=:*XX=XX",
"BBBsz*3**#yxzBBihzEEHHHih0r0HHkkhiCi0hihhh111.# *X",
"###yy115Bvzrxzkyy9PKkBCyxhkC8931605iiixigg,3q.XX X",
"###5y151BvxxxzByy5PKBBhqyikiqq3333qihiiwgg83q=X=XX",
"###y5515vv5xxxvyyyPPkhC9qkshwqq3wqqhihrigg3,3=XXXX",
"*119*8*5sixxxKPUUUdB,*3HZissiyq3iiqhiH3q=.qqq,qwX=",
"11$1911*yyxxiKPUUUBh,33vBhsh0i3wwwikii5q==qqqe9q**",
"*:*cBdcdhs5qsqiyysqykkh9y333**iisscxwwhiehZZZ8q311",
"$*1ccccvcB1yqyiiqs55chk333q3**hissshhi0hkdZZZ133:1",
"1$=dkdiivcyq9siisi3yvBvyy33q**c9xihqMi0idZZZZ1q11:",
"1111*sii1y15*yy3y3hiRRRIHqyqmcdc0z1hwM0xqqsq9q18sd",
"11111sss535*3syy3yiiRRRKIq3yddddqq3hwhz0qr0rw1q*si",
"181q31*1ys93*yyshszh1s1qys9s11**wyswqr*5hh0iwkZkik",
"q313=811ys133yyisxss2552x2e9*3**y0yqi319yhq0skkkhi",
"11y3811=yyy93yyqzyiiz5x2ttys1***ysiqqw*9sy0hwkkkk=",
"ccc1=syy33131y,sys3q33*hc5911*8*q53*3111kHihh8qeX#",
"ccd*X9qy5531333sqsq1#39Bm11y*1$85q33&38*CH0ie3sqX ",
"1::**s*y53yys3qTRUsiiii32**911**wqy5yqdBy0dddqq,DV",
"11:$*39359yyiyyTTThriis351**11*5qyw531hhyhdds8q1BD",
":*:*=y3y130yyqyUTUsyiss35*#*111*q0qq3qkddgddd,=qDV",
"9998yBBBkvssiPV59ysy3*30s59*y2*2qyqdzhqq3w===.= 55",
"99qqyhBBCviszVVxry9s111ey*139*113,qhsd1qw313# +X33",
"y*8yyshsxiHHHyyhkkidIIIDKqqq1s38=,3iwdhhwysvss9sy0",
"191eiiyhhzHHCyyChvddIIIKD9qq3y3q,=3sdikiiqrhiiyyyy",
"y8yyyixzysCCH5yvhBddIIIKK1y3qqq33=3ssshksskisssyqs",
"shs33yiyrxshsq3sywBd3*3***3*3q13*1s533   =seikBB. ",
"yii33iirysiis*3yrwcd131**3*38=3133*133 #  ysivvB. ",
"i3y3yBGHkh0sw31kvd11*1**1531**==33qisrzikdqq3kss  ",
"yyy55HVCkCxww1*vkB*******91***==yq3yiiizsBiqyzzs =",
"ys3qyGCVCC0rh=1khd*****1*191****y33ssyssvkx22zxz X",
"*33siy5yis3s3Bk3q333***118q813hcsssPKKsiUUDBDzxv31",
"***sh5ryhx333kB33333****1qqs31kviiiPKKdcTTDBBsxB13",
"syykBxvzy0Cvk33333X=mdmssy33y533iiyyqycxBn#+*X=X *",
"0yyhvvBhyyBch3331q1=kdB0s*s3y333xrs,3ivkBv *X* =XX",
"wyyChBvhy9hhd53qq1==mBkssy33qy*9xxswqwzsBB+X# X X=",
"wwwZCssry3HBZvs0y1shyqy33s3s33=133,333hsdiiisyy3sv",
"iwiZCyyr3yCkHiyssqiiysyq*qqq33=*333,q3ssxxirsqyyhs",
"$$*vhyyyirywiiyCvBsy333ewsqs$*1****11355BvBBBcBz33",
"$$$vvyyysxiiiyykhky3333swqy1**$*11*9y335BBBBBcvz33",
"$$#hkyyyiiiiyiyMkBqy333sdq9s$***+1*11355BBBBBxiv33",
"**3yxyiy0h3q3GHHAAq1kkk**1****91111*sqvvUTnBBVVDyy",
"**$ze9qywr52qGGGAA13kBk*3*====19111952vxTTDvvVVVxy",
"22;33=31wyvhkkC5qq11=1*y1*==1*1112*9isRTTTvBBDVVzz",
"22;#3=33qwcBkBvyqq*13*1q5X*X1113*99sxyTTTTvVBVVVzz",
"**2238=3qqhkdBCqqq1111133*X#*113211ycvTTTTBBvVVVdd",
"zzyx99z9ivhhhvB=3*2*$==***.*19sizcvBBBDKBBBvBsyy33",
"zxz9uzyzxzBkhcv2*3****=$*.*.91dsBvhBBBDKvBBBvyyy13"
};
