/* XPM */
static char *_49d7baf1ed24c2bcefdac0a169f236egwbqNqQGcIM1oj3v[] = {
/* columns rows colors chars-per-pixel */
"100 100 86 1 ",
"  c #0B2626",
". c #0A2627",
"X c #0A2727",
"o c #0C2626",
"O c #0C2627",
"+ c #0D2727",
"@ c #0A2728",
"# c #0B2728",
"$ c #0D2729",
"% c #0B2829",
"& c #0E2928",
"* c #0D2B28",
"= c #0E2A2A",
"- c #0F2B2B",
"; c #0C2C29",
": c #0F2C29",
"> c #0F2F29",
", c #0D2D2B",
"< c #0F2F2B",
"1 c #0E2D2C",
"2 c #0E2F2C",
"3 c #102D2B",
"4 c #112F2B",
"5 c #102F2C",
"6 c #112F2C",
"7 c #0F302B",
"8 c #0E302C",
"9 c #0F332E",
"0 c #123229",
"q c #10302A",
"w c #10322A",
"e c #13332A",
"r c #13342B",
"t c #11302D",
"y c #12312D",
"u c #10332C",
"i c #11322D",
"p c #10302E",
"a c #13342D",
"s c #10352F",
"d c #12352E",
"f c #12342F",
"g c #11372E",
"h c #14372D",
"j c #14372F",
"k c #12392E",
"l c #13392F",
"z c #14392D",
"x c #163B2D",
"c c #143B2E",
"v c #153B2F",
"b c #163D2E",
"n c #113730",
"m c #133630",
"M c #123731",
"N c #123830",
"B c #133831",
"V c #143930",
"C c #143931",
"Z c #123D33",
"A c #133D33",
"S c #163C30",
"D c #143C33",
"F c #153C33",
"G c #143E34",
"H c #163F35",
"J c #193F30",
"K c #17402E",
"L c #174031",
"P c #174133",
"I c #174035",
"U c #174435",
"Y c #1A4531",
"T c #194432",
"R c #1B4732",
"E c #1A4635",
"W c #184436",
"Q c #184637",
"! c #1A4637",
"~ c #1A4837",
"^ c #1C4937",
"/ c #1A4A3A",
"( c #1B4A3A",
") c #1B4A3B",
"_ c #1C4E3A",
"` c #22573A",
/* pixels */
"99999ZZZZZ29292999f92&9**@@*3@2222233qt9eeeee32383* ...@@@XX;X;X @$O@$O&  $28q8q:rr>r:;:;& & &Ooo   ",
"99999AZZZZ929299f99f**===*=@@@222222m333eeeee0q8q2X XX@@@@XXX;@@*$@$*  & *O2q8q8r>>r8;***&& O &o    ",
"99999AAAZZ99t2999tt93====*$;=;2222238fqqeeeee38322 *XXXXXXXX;@@;$@*O$ $OOO q8q88rr>r:***2*O&&&Oo    ",
"99999AAAZZ92992t9f9t*=3==@=@$32222223qqqeeere3q822 XX  XXXXX@@@  $@ @$O  *O9q8q8>rr>0***&&OOOOOo    ",
"99999AAAAAt382t9ttf9*t22=22;@=222293qqt8qrrrq2q822;*X ;* 2 2@: :;;@& 2&&O&:8qq920rq00;:;&;* O&O     ",
"AAAAAnnnff23*3**O3**ttqtnDFZFZnnnll`````YYYYRlllllrff9fRxTxTNGAxxccNlcrrfq7hlxxfzzbzb;;;;2  ooo *O  ",
"AAAAAnnnfN3$3=3$$O*$fftltFIIZZDDNCC`````YYYTTxllllr7r7lTTTTTKAKAKcxllxlqrfcGllxcbzzbl8>8:&ooooo&oO&&",
"AAAAAnnnnN=3=3*$*O$*tltCtZZZFInMNll`````YYYTTcllllff7l7RTTTTKLKKxhlcllfrf77xxlrxxbbzb;;:8&oooo OO  O",
"ZFZFFnnnnn*3=33$$$$$ftfqnIFZIFlNCmC`````TTRRTxflCcrtfreRTTTTGxLLGbxcjcrfrftcecccxxxxz32;8; *OOO  && ",
"ZZZFFnnnnn3*3$3O$$$*ffff9ZIIZZNgnCN`````TTRRTxCllcjertjRTTRTKKLxbcScjcfrfrfJScmxxxxxc23:;2  O o&    ",
"=$$$=2tt9t33*33mCFCFcjttnnNNFNtfftm!QQQQxGlxLfrm3rccxxc39qq3>2q9333e33xcczeyemfrzzzzc33333 O  & &  &",
"$$$$=3tt9222333mFmDCtfNmmCFNCNfqtftIQQQQxxxAxtrqfrczcGc388qt33333e333qrxzzCemerfzzzzx33332O &      &",
"$$$$$3nt3t3$t=tCCFCFtmmmmnCnNCtff8tQQQUEGbbbSetrqrxGccce3rr3>3>33e33e3zjrecefrfrzzzzz&3>33*   X OOOO",
"$$$$=33ttt=2*32CFCDmmmttmnCCCCftqffUQQ/UCJGCCyqeqfcczGj3qq3t3>3>3y3e3eecccjjrfrfzzzzz02033 :O@ *OOOO",
"$$$$$33ttt23323DnFCnmtmmmNnDCCftffq~QEEEbbCbbjejfjccxxxqr3qq33>33q333eycceeffrffzzzzz23333*&*&&:O OO",
"=2==*29=393=323tmtnmmmmmm!!!!E^^U^^CAANG3qqq3bbFxbyefCntejee3e3e3ejyjexcxGxqqq3t&o&o&0>3qqqt2::&*&*O",
"2;=,,*2222*2$3$tnttmnymmm!!!!!^^^^/NxFFN>>>>3xLLGKjcl9lfrfrf823e2trfrfxjxcx33qqq& O *t8tw7ww7>>&3&* ",
"2=;,;2=*=93=33=mmnmncmmmm!!!!!^^^^^xANxx>>>>qxGFxxcflrl8f7l70033rffrfrbjxjx33qt3  &&Oqqq>7wwwr>;&&**",
",,,,2=2=3=*2233mmmmtmmmCCEQQ!!!^^^^FGccC>>:>3xxxGxflfltjrlrfqqe38rl7rjcxxzc3qtyq & O&2qqqqwwww>&:&&*",
";=;=2*323*2q3$=mmtqtmmcCNE/U!!^^^^^NxcxG>>:29KFKxxlfcfCnf7fr43q3rfr9zrjccGb33q3q  &OO2q8qqwwww8: ***",
"=@**;nnnlNCNNNNCNFNC33928frrlqlfffr8qr33xCGcC3trf83qt33=$*;*jctf7cgglfhfeecejeeyxllcxKKKKKr83>33;*;2",
"=*=**nNFGfNNNNNNCNCN33838f9f9f99ff9rqr3eAlCCcffqfq33332==*$;yjlfk7gg9crfcyecqccelxxllKKKKK3220332;2;",
"***2=NDFlGNNNNNCNCnCq8q89qf9f9qf9ff233qqNFCCCt2fq33qq33*;=;*9l9lllgglgrxjecyceecllllcKKKKK3q33q&;2;2",
"=$===ZCnGNNNNNNNFNcl8q8q8f9grflffrf0r8ftCCNxCqqtqf3q33q*3@2&l9l99gggggfrycejeccqxxlxxKKKKK3333882;*2",
"**=*&llclNcngNNNNfCN3238qqflfl9tqft8r8qqFNNCCttfq8333932=@9*tf9lfcfllfrxjjecjtjclhfxxKKKKK83308q;232",
"=*,=::8;2*ffrff8928t29832qtttlttf9fxfffx_____~EE~Er83tqNNNcNNfflfrqrr8lfeecrreer78jr8rqfh73q:;;c9qr8",
"*2;;:;:;3*tfrftq*339332323ltfqfq88fffxfx_____EEEEE8tqfqlNZCNlcl9fqjq8rxrcrfrrfrrhr8qqrfrrr>>;;>fxr7x",
"*=**:;::*8rffff83232*3322f9ftfqtrqqcctGn_____EEEEEfqq8qGFNNF77llxqqrr>rxjccrrrfr0rrfjfqe7r;;>>>79f99",
"3*2*&:;:3*rffrqqq232*3232ttf9fqf8r9ffcfc_____EE~EEtqqf8NNxCNcll7fqqt8rrfcbejneyr3qejeqqjhr8>>>8lrfrf",
"3**&:;:3*2f8fff8*3833q32qttft3t3r8fNCfCf_)___EEREE8f88qcZNlCc9lccqrrrrxxeybtqfjejj3e3jje7h;:;:>7crfq",
"3923233323228&28tfcl93233tf2ttfnffngllflm2tt828999fq9r3$9*=3==***tfqqt7rqre33*33trcecfqjl7KcKbAAxxnG",
"33323qq3333&8;2rfftf2232239f99Nnflfgf9lf39tt8t9788r9tjq3*33=$$=*2qfrff8rr333*q83jxejcree79LKcKxxAxCx",
"2t*8333*22*2;28tfNm323238qttftgflfflfgggppppp29299t97l722&3*3*=$*ttftfqfrrq32=9=mnccejeyxrxAKcccGxGx",
"*q332339322&22qtfttm32328f8989fgfgflgggnpppp3mt=2t9t7f77*3$3$$$3*tff8fqq87q8*2=2cfyexerrrfKKcKxccxtC",
"3t88333q3382;*3fntnm23233q3tqfxlgfccl9ng3ppppn2m99998t3*3333==$32qfqrqq3qqr22=*2qxnGcrrxrrLxLKclcccc",
"Nfflf83$O2t29232qt332=9=938t38>fff822888323$=MnDlxq8t9t2&**$*=3=q3q388q23*&2=9=2KKbbbctjflqq98f:+O& ",
"nNNnl22*33q8tf8222393=3t23333ttfhfr83:2;33=3txCcxN8t882*2=*222=2923333***2@=2=2=TxKxbeCrrx80fq2$+OO&",
"NNnNf**2&2fq8tf23322=33=339tqtff7fq>8q&2$332*CCCGN8qt8t**=$=2=,2*32332$$**2=32=2xLKTKjjjfr8fttq O& O",
"nNnCf83=*28q98323332=2329t33q2rffrr8>&3032333CCCCC32q233====,,,,q232t3*3$;=22=2=KKxLxeefrxfrqfq*& &O",
"nNmfft=*3*9tftt323233233*32t2r8frfr:32:233**2CCCclf8898*==$,,,,,8q3ttq33=*===p,2bLxTKcecfx8qfqtO O& ",
"**;;;*;= *28qt39=p=pm99pt8r8r8//_//fflflfh9ltqt32t=*==3=2=33*$==*3q3qjt3tt3Nxzccjfx9cllcll8822>EAFZI",
"=*;;;=;*&&2ttq32=313p9t9fq8t8t/////frflrfffrCt2333=39==33=*3*3==3qqjq3t3qqqxcjccctx799l9l9:8q8>KIPII",
";;;;*=$=&23ftt93p=ppf99t9qt8r8_////lfcft9rffq3ttt9==$*===3=3====*qqtrj3q3tqxcccfx79ccc7crl8>q33LII!I",
";;;;;$;**2tt8q32323=99t9f8tf8t////_rflfCfl9hj38q33==3*2=9*3$====3fqqqq333t3xcfcc99cr7ccgcl>8qq3GILIF",
";;;;;=*$*33q3t2923889f99tf9ttf^///^lffmtlfrff8883q*===t=*3*2====*ttq0>>8t3tcxNxcrlrhrhhhll2:222GZ!FJ",
"9t9t9222q2GCGCGFcANcffhflITZUItjf7qfrftc88;:8>rrtt*t*3*9t832==3=*8qt88lgxCl3qt92r8er>;**:; .   23333",
"938tt3tt3fGCGCCxGcAcl9lfNIIZUPfq8rr9fttt&8:28087ft39*3288829=*==*t3q0qlllllqqq08rqrqr;;:;* X   &3333",
"9tf8f2t9t3GGTGGxGcxAfllrNZ~U!Lrffffr8jft8&2&q8r7qt3*2*288893=3==qqqqq8lllllq38q800000:&;***X   2*t2t",
"t239f8q3tqACGGCbGbCCjfnffEIZL!ttqftjltff3**8878ffr2233qt9223**==3330:qlhkkk8>80r000r0&O2*&*X  &8333*",
"m92mq8t9ttAAbGCGCCbblfNtfELIELffjrft9rfq:8388rf9qf*2*8*29292*33=3q02qqhlkkc>>8>q00080&2***X** *;2*23",
"23p28rfqtfllcexGjjjjTTbEKfNffqcGCCxCfcflE~~~TEUUUU3qf8392tq9q3t20&&>q&ffl97Kccccr7l78xxnflf727999rtt",
"m2929q9fftlfjcjyjjjjTGTLLqftttcxCxCffCAN~~E/EUUUUEq3qqqt23qtq*223>3&23flfcfccccc8l79rftcfc99f9fr8f8f",
"=2q29tf08ffcffxfjCjcTTTLPtqftfCGGccyllff~~~~)UUUUU3qqt3q39tq3>3>2>&>::ffl7ccccccr89f7KfGxffff999f77l",
"2t898tfqrffncfxfCnjrZLLLTfftfqxCxGCxlllx~~~~QIUUUUttq9qtttqq02qq8:>&:8fcfc7hcccl9fr87fxnfcl999f97998",
"2t98qfrffrfxxffxmtfNTTKKLtfqqtCxNxxClllfEE~~EEELUE23q3q38q30>33>3:3*::tffrfhclcg>2f99cfxfc99qf98l;92",
"nffff38232r8ffftcfflf9cfft82q*nfnrfCNNfl83*23===**3**3382q>33333&32&8839888:*X*X;X*;:ffrffAAAAA **;*",
"ffrfc33333ltfn3mffffxffft23*2qr9fr7cNlll3*3*3$==3*3O3=3*38:>238*=9=*2=3t33*  @ @ ** XffffhAxAGZ2XXXX",
"hlfcf33333tfc3tmfffflflrftq83qrrrqflNPnn3*333*==$$3333*2*q3>3&*33=223233333@@ @  .  X9rfffAACG9 XXXX",
"l7fff323qqfNjmmmffffffflfq238qrffrrlAnNN=3*33$==*=3$3$333*333333$3*2=233332@ . O *XX*llflfZFxGC*XXXX",
"fcfcf3t333rq3tm3fffnlfc9f8t*32rtrrflglgA3*3**3====33$3=33238=*332*292=33t3=...@*X    9rfffFNlAG&XXX*",
"8qfqfq3322LUFPPxxKxxrrhff&2&3*CCCNn*;;***$3&3O====3333t=$==***$**33q33tffltlNNttCAGGlqfqqflNnmn.X   ",
"l>tftqt939ILPPIKcKLcxrrrrq&2*3CCFCF=;;;*3*O3O3+*==33*3**3*$$$=$$*33q38lftftNtfNnGlxfN8q9tfl9nmnoXX  ",
"f8f8qt2tqtLIITLxKxxK7hrrq&&>**CmCCC=*=$=&&O33&=3$=*3$333$$$**&&**3qqqffrlffltCfncCAcA7f8tqnnnCn.@ XX",
"qftrft3t32TILILLxcKxrrlrr3&&**DcGFn$;$;*3O3O3&*$3=*3333$O3*$*&&O*q3q33ffqtfflfNnNxAlKr8ft3nnmmn..   ",
"fq92t22333PIFTFxKxxxfrrrr232&9cCcCC&3Oo$=*=====*$=882q***===***=+33333ffffflg9nlNDDNCtt9t8nmnjn & & ",
"*2*==CNNnCtjjtrjcjjGqqqtqAxGCx33>3q333333$O==*3==3r8qqt3t===CmccfjncmmT~U~TgfNfc~_^//IUIULncCCn33*2&",
"**=$*NNNnnqy33jfcmcjqftqqxGCxG333>3&3&3==$$3 **3t23tf8t9339tCCxGGCfCnNEUUU~fNlfN)^^))FZQAGcCnCm*33*3",
"****=NNNcCt3tj3Cyxycq3tqqGCxcx33&3>3*3*3$$*O;23***928tt*=3*=CCNFcfcnClUEUUTlfll9)/))/IIFILCnCmn33*33",
"***2=CnnNNtjjqtxbctxqqqyqCCKGF233>3>3&2&=;*$*$*322tqfr8q3*33CCCDCmNncnJIEUEflffc)/)))FILGGCfCCf332*3",
"@;&**CNnNNjq3ftfbycjqq33qbGxCx3q>3>3*3&2@=3*$3q8*q8tq8q8*8t*xCmmcfClnCE!EEUfflNN)^^)^PFFIUNNnCf3*23*",
"ttfrtCNGxCCmCcctqttfGSCJF3>3>383233&&&&&nDDCNtf9tft2tqt8qf9tt3333tflftttqrtllNCcIIZFF$@@O*  & && * &",
"ftqffZcxCCCcCClfjtfqCbDCx33>3>3>3q*&&&&&FDDGZnct9rt3238rq8tq3333tttlrrffrf8lANNNZNGFF=$@$ &  O&  &  ",
"f8lqjCCCbxNNCcCtfqftJCCCC33>e302:02&&&&&GlGAccrfll888qt9tqtt3333tqjtrfqqjr3CAllNFFFFC@  @@ $O  * &O ",
"qfqf6SbjCFGCCcCttfqtCxGbFq323&3>8::&&&&&xAxxI77f8rq3t3qt8q8f32332jjfffrrqftxNNlNFFFFF@@X$@O* & OO& &",
"lrffaSSbGCccxllffqjtCGCGG33333>388:&&&&&AANGK9tfffqt3fqq8tq8=pp=3fttqf8rfqqCNNNNFFCFZ*&* *  *&$O2 &&",
"rrr7eJJJKLttfff33f3ybLbGbjxflcqq978llhhhfqq9982qqq8tt3t8q32q===%233q320*332NnNNnmnNmtnl7ff9t29tffNff",
"rrrrrxJJJJjtfffqq8qtTxTTKnrfqttf989lrl7xtfqff83&8qqfqqt3*33===@3*3233302q32rgnnnttCffffxNt2f8ttlCjmC",
"rrrrfKJLJJynffftqft3GLGKTxfxxn98989ccAxffqftt88qq*t3tfq3*t=3==2=*23*8::3228rnnnnCmlffffffN39q92lncnC",
"rrrrrKLLJJjtrrfqq8qfKTATxnffcf9879>llfllqf8rt3322*tfqf333t=32=@@*=32::0>3>3lnnnnnNftf9lrffqtfttNmCcm",
"rrrrrKLbJJyjfffqtt38FTxKTfxf7l7f899hllfxf8ftqq8338qtfqr3*39**;3=*39*832;>3:lnnnnttnNlf9fhf8f88tCmnnc",
"@;@@*GCCCmn3989ffffrfrlrfrf8ffAbCGGttq8qq3333lqc7f8rqf33=@@=@==@=$=$=*3*832333t3IxFFFIDJZFfCcCf3323*",
"@@$$$CCCCnn2ff9rlfflrf7ff9rhf>GcxGxqqffq333q3ccqxfr8fqt*=====,*2;;*,**t2q23332t3GANIFFFZFHCCnCf3*233",
"$@2@;nCCCC9n8tff9rfrr78lrrl8ffGxGxCqqqqtq33q3n9f7xrftqq*$==$2@==$==**$232333q333FFIZJZDFZDDCNCc9*332",
"@,@$*nCCCC39N9fflflfrffff7tfqqxGGxG3f8f8332tqqltcgqfqf3*@=$$%3===;*=*=32q*9q3333FFFLZIFFDHmmCCt*t3**",
"@$%%@nCNCCttlqnffffh7hftrff9flcCcCx2qqq333833cmm7f8q3rt*=**$====;==;=2*333233t23INIZLFFZFDnNfCc**=3t",
"%=$%$mmmnntCtt3ffrfrr8tq8RRRTRTKRbTtq8q>GxNKx*3=8q&3*&3&$$$$23222===2=22922cCCCC)))))FFFFZIHEAFtnttt",
"%==,$mtCmmfjflfrrrccr8ttqRRRRRFKTGK&q2>3xxxxG3*333&&*&O $*$ 22392==2=332323CCCCC)))))FFZFFIIIIINm9tt",
"=$%=*mfftNtttrfxfc7f2q8q3RRRRRFTbGT22332xGxAx*33O2::O3*3O$$*932333$**=93932cCCCC)))))FFFFZIFIFFmm2nn",
"$$$=%mmmffqqctfrcrrrttt3fRRRRRLLbGKqq2=2xGxCm33*33&&&*&&$*$@323292=2*=22888CCCCC)))))DFHFZHHHHHB3np=",
",=%,=Mmpfqfjfjffrcfj33t3qRRRRRLLTKT33*23xZKxG3**3&&3&&&&*@$*23222*=2=222892cCCCC)))))DDCDDHHHHDmmmmm",
"p1112==$&3&3*3$qqqqqCxCScKFKFKqqqq33333=q*3*33q238OOO&&&=*;*32*3*32=*2ntf9f/^))))))))FCHDDFHHHFMMMMM",
"==11=2==332**3*3qerqGCcSCCLZLFqqq22****$3**&238323&O$O 2;*==*92*223=29ffrff//^)))))))FHBDDIHHHFDMMMN",
"*22*2=3=**32;:3qqqeqSCcCNKGKZK92qqq*=*3*=*2*=3923q$OO$O3=**=32*q2*23=29nfff/)))))))))HSHDDHHHHHBlgnN",
"3*393=238&**:&2qeqeqCcCSGFxGKFq2qtqq=3$332=*232393O**OO***=*==23323223ntfjf_)))))))))mHBDDHHHHFBlfNN",
"328*29=388&8:;33q3qqbCccxGGKxCqq333===**2=3=*33323$O$$O***2=9*33=32293f9ntC))))))))))HFFDDDDHFIDflfc",
"n9fft9tnl7ffrfjmccjcCccGxlCZNc*3=*2;;23*$@**$*;***$O$@*32933mnjjnnCCnCZFZFC!P!!HFFFFDHBFFFm2n9p=832>",
"nntnnm9n9nNtNntNfNAcccScSmDCCA*==3=2**3**=&&&@*$$*@*@$$22393fjjjmCCCGcCDbFCEEUUUFFFFFFFZLFttq9f*323&",
"9nnmN999n99nn9nNxNflCccScmccNC3*3=2=3**2+=O**;*@*=$@@**33232mJjjCCCCFCFZLFGEU!I!FFFFINFCCFtf9f98*323",
"Nt3ntn9n9n9NflnfxlNfxcxcxlnGCZ2===*=;;2=+ &&$$=$$$$@$*@29392CymcfCCFCCGCFLZE!UQUFFFFFFDFGGf99qq&&23&",
"n9mnn9n9n9Nt9ffCfllNGccSxAljNN=*32==;*=*3&&&*$*****$O$O23232tmcnGFCCxxCGFFFTIQI!FFFFFNZJGN9ttrf33:3q"
};
