/* XPM */
static char *_1528b6acff746a6de5fe4ed63d8ed52o2qnO6y9UOHAXNE7[] = {
/* columns rows colors chars-per-pixel */
"100 100 73 1 ",
"  c #643A00",
". c #6E4000",
"X c #6F4100",
"o c #704100",
"O c #704101",
"+ c #714200",
"@ c #724200",
"# c #734300",
"$ c #724302",
"% c #744300",
"& c #744400",
"* c #754400",
"= c #754401",
"- c #744503",
"; c #794600",
": c #794700",
"> c #7A4700",
", c #7B4601",
"< c #794502",
"1 c #774806",
"2 c #7B4800",
"3 c #7D4800",
"4 c #7D4900",
"5 c #7D4901",
"6 c #7E4800",
"7 c #7E4900",
"8 c #7E4A01",
"9 c #7E4802",
"0 c #7E4902",
"q c #7F4A02",
"w c #7E4A03",
"e c #7F4A03",
"r c #7F4B03",
"t c #7F4C03",
"y c #7F4C04",
"u c #7E4C06",
"i c #804C05",
"p c #804D06",
"a c #814D06",
"s c #814E06",
"d c #804E07",
"f c #824F09",
"g c #83510B",
"h c #83510C",
"j c #83520E",
"k c #84530E",
"l c #825310",
"z c #835310",
"x c #855410",
"c c #855510",
"v c #865511",
"b c #885916",
"n c #885817",
"m c #895B18",
"M c #8A5A19",
"N c #8A5B19",
"B c #8A5B1A",
"V c #8A5D1B",
"C c #8B5C1C",
"Z c #8B5D1C",
"A c #8B5D1D",
"S c #8D5F20",
"D c #8E6121",
"F c #8E6123",
"G c #906527",
"H c #916528",
"J c #916629",
"K c #92662A",
"L c #92662B",
"P c #92682C",
"I c #94692D",
"U c #956B30",
"Y c #956B31",
/* pixels */
"@@@@@@@@@@@XX%@;;;;;@ @@X %@@@@@@@@ %@@X@ %@@X%@@X@@@@@@@@@@X%@@,i,i,,, i ,  i , ii 6 ,  , i ,, , , ",
"@@@@@@@@@@@@@ @;;;;;@%@@X@@@@@@@@@@@@@@XXX@@@X @@@@@@@@@@@@@@ @@ i i,, 6 , ii , i  , 6 ii , ,  i i ,",
"@@@@@@@@@@@@@X@;;;;;@XX%@%@X %@@@@@XX@ %@@ @ @@X @@@@@@@@@@@@@XX i,6 ,    , i ,  i  , ,  i,   i i i ",
"@@@@@@@@@@ % X@;;;;;@@@ @ @X@X@@@@@XX@@@@@%X%@@X%X@@@@@@@@@@@% @, ,iii 6ii , , i6 6, i , i ,i  , , ,",
"@@@@@@@@@@@@%@@;32;;@@@X@@ %@@@@@@%@@@@@%@@X@@@X@@@@@@@@@@@%@@ %,i,aii , i  i ,  i ii i , ,  , i i i",
"X@@@@;;;;;@@@@XX @@@@% XXX@X@@X@X@@% %X@ @@@@% X@@X@@XX;;;;;XX@@ ,    i , i  , ,, ,  , , i ii , i , ",
"XX@@X;;;;; %@@@ XX@%@X@@@@@XX %@X@@ @@X@XX@%@X@@X %@ @@;;;;;% @@i , ,  , i ,i ,  , , i, ,  i , i , ,",
"@X %X;;;;;@XX@@%@@@ @X@@ %@@X@@@% XX@@% @@@ @X@@X@@@%@@;;;;;@@XX , , ,, , ,  , ii i ,  i i  ,  i, i ",
"@@% @;;;;;X@ @@@X@XXX@ %@@@X@@ @@@XXXX@@ @@@@XX%@@@@ @@;;;;;@XX@, , ,  , , , , , , i , , i ,i , , i ",
"X@@@@;;;;;X@%@XXXXX@XX@X@% X@@%X@@ @@XXX%@XX@@@ @% @%XX;;;;;@@%  , , i, i , , , , , 6 i , ,  , , , ,",
";;;;;X@@X %@@X@23838@@XX@;;;;;@XXX%%@@@@@@@ %@X@@X;;2;;X@X@@@X@@ a66ai     ii,ii , , i i i i, , i i ",
";;;;;X% X@@@ X@38282XXX@X;;;;;@@@@@%@@@@X@@% @X@@X;;;;;X@X % X@@ i6iai     i , ,, i  ,6 , ,  i , ,  ",
";;;;;X@@@XXX%@@33828X@@XX;;;;;@@ %@@@@@@X@@ %@@@ @;;;;;@@%XX%@@X ai6i,     i, i, i , i i i , ii ,  i",
";;;;;XXXXX@@@@X38283XXXX@;;;;; %@@X@@@@@% XX@@% %@;;;;;@@ @@@@@X,ai6,i      ,,i,  , , , i , ,  , ii ",
";;;;;@XXX@XXX@X33833@X@@@;;;;;@X@@X@@%@@@XX@@XX@@X;;;;3 @@XX@@ % aiii,     ii,iii, i i i 6 i i   i ,",
"XXXXX-----833333833333333@% XX;;;;;X %@X@@XXXXXXX@$$@%-@XX@X333ia ,ii 66iia 6   , i i , 6 , ,  i, , ",
"XXXXX-----383828382838383XXX@X;;;;;X@%@@XXXX%%%,XX$$$$$XX@@@3333, i iiii,ii  , ii i i , ,  i i   ,, ",
"XXXXX-----828283828382822-@X@X;;;;;X@ @%XXX@ %  XX$$$$$@XX@%3338i,iii,i i i,i ,  i , i , i  , iii  ,",
"XXXXX-----283838383828383XXXXX;;;;;XXX %XX@@%% ,XX$$$$$X@@X 8383iiii ,ii6ii  ,i i, ii 6 i  , ,,   , ",
"XXXXX-----838282828283823X@XX@;;;;;XXX% XX% @%, XX$$$$$XXXX@2828a i ii,,,ia i   6 , ,, , ,, i  , i i",
"@X@@@3332838282828283838382833uuuuulljjlXXX$i  ,XXXXXXX383838283i,i,ia,i i,ii,i,iii,i 6 , , , , ,  i",
"X-XX@2338382838383838282828332uuuuulllvlX@-  ,i XXXXXXX328283828,i,iia  i  i,i,i, ,,a  , i , i i i  ",
"@@X@-8382828382838282838383838uuuuuljvvv $@@, , XXXXXXX383828383i,i,i6 i, iii,i,,,, i  , ii ,  ii  i",
"-X-XX2838383828382838382828283uuuuuvlllv<%-  i ,XXXXXXX328382828,i,66ii  i,i,i,i ,iii i , i  i  i  i",
"X-X@ iiiii2i283838383333323333yuuuulllvl, ,, i  % XXXXX383333333ii,ii, ii 6aiiaaiii,   6  6 ,  ,  i ",
"3333ihxvgx2283828282sssss-XXXXXXXXXXXX%  ,,  i99i9@XXX@9-2<<----i  ii ,ii6i  ,  , i ,i6i,, , i,  ii ",
"w3wwihxxxvi228382838sssssXXXXXXXXXXXXX@@ i,ii6662i@X@  9;<<<-%--ii,i ii,,,i ,  i , , ,6,6, ,, ii i  ",
"www3ixxxxh,i83838382sssssXXXXXXXXXXXXXXX,i  ,i66,i@@@%@<;<<<%-%- i  i i,,ii, ,, , ,  ,,,6i,  ,  ,  i",
"3iii,fvxvk3333383828ssdssXXXXXXXXXXXXXXX 66,,6iaii  @@X<<<<;-%-%, ii i66,ii , iii , 6i66i6 ,, %   , ",
"i2,iivxhkv3383838283ssddsXX@XXX@XXX@XXXX,6 i 6ia,ii @@X<<<<;%-%-i , i 6ii a  ,   , 6 i66aa,  i   i  ",
"iii,iii,iifgggg83838ggdfg3y3w3gfffdi3iwwffffg,, i  i %@@@ XXs3i3ai ,, agggg,i , , , 6     vgvgh9a<11",
"i2iii,,ii2fgggg38282sgffg3wiwiffffdiid3dffffg  , i  @XX@@%@@3s3sa ii igaggg  , i , , , 6i ggggh9i911",
"2iiis3s388ggggg32838dgsgf33iwyggffg3s3s3fffff@@@@X@ @ %@@X%@s3iiai  i ggaga  i  , i , i  6vvffgi1111",
"ii33i33338ggggg88383fdggfiiii3ygffg33s3sfffff@% @X@%XX@@@X @iii3a i,,igggaf6,  i i , ,i , fffvv 1111",
"iiii333383ggggg33833ffgsfii33igyfffds3s3gffff%@@ @@@@@ @ @@Xd3i3a6,i iagggf  , ,, i  , i ,gvhgvi1111",
"2i3isNMMVVtty8scvjkvvkcchi8s3d8233388s8s@% @ %@X%XX@@@%X%@@X@X@@ i  i , , ,,i ,  , ,i 6 i ,  , i----",
"ii3isMVVVVi38ttkvvjvcccck8s8tt88288t88d8@@@XXXX@@@X@ %@X@@% X %@ i i i6  6i ,  ii ,  i i i , 6 i--%-",
"ii3i8MMMMM8ss8tcjvjvccccvss8tt88888ts88s% @X@@XX@@X@@@@@X@@@X@@@, i i ,i6  , ,i  , i, 6 i , , , -%-%",
"8ss8sVMVVms8s8skvjvvcccccs88yy382888tt8sX@@@XX@XX %@@X@@X@XX@%@X,,6  i6  6, i ,  i, ,  i , , i i%-%-",
"888s3VMMMVs888svvvvjccccc88s8882828tttt8X@@% @XXX@@@@X %% @@@ @X i ,i   i  , , i,  , ,6 i i , , -%-%",
"VVMMVVMMMMVVMMN32838jcccc88828383832222238388X@@@@% XXX@@@X@2333i,, ii,iiia , i  , ,, , , i,, i63382",
"MVVMMMMVVMMMbVN38382ccccj88283828282222282823XXXX@@@@@XX@@X@3333i,,i,ii,6ia, i ii i  i i ,i i ,i3338",
"VVMMMMMAVMbVNNN32828ccccc88328282822222228383XX@X@XX %@XX %@8283i, iiiii6ii i i  i ,, 6 i , i, i3383",
"MMMVAVMMMMVMNNN38383cccck82883838382222283823@XX% @@@@XXX@@@3838iii, ii666i, i ,  ,  , 6  ,i ,ii3838",
"VMMMMMMVMVMMMVV33333ckcck33383333882222238882XXX@@@@X@X@XXX-8233ai6,iii,,i,  %% i  , ,  i  i i a8383",
"MMVVMVMMMVMVMMMMVMVVVVVVV33838llljj88282sysss88333XXX@X33333---- ii6ia ii,ii,iii i,  i66aa,,ii,62828",
"MVMMVMVMMMVMVMMAMVMMVMVMV28282lllll22828sssss83833@XXXX83833%%@%,i,i,ii,i,iii2,ii i,iaiiii,i, ii8382",
"MMVMMMVMVMMMVMMVMMVMMMVMV83838lllll88283sssss38233@X@XX38333%%%% ,i,i,,i,i662,i2 6 6 ai6i6,,,iii2838",
"AVMMBBBMMVMVMMMABBBBBBBBB23333lllll38383ssaas33338XX@XX33328--%% aa66iii,i,i22i,i ,6 i,iii iii,,8283",
"MMMABBBmVbMVMVMMBBBBBBBBB23333lllll83838saads33333@XXX@33383-@%%i ii66iii,i,i22i ,   ,i,6ii,i ii3828",
"AAAAABBBMMMMVMVMBBBBBBBBAMAVVVy88ysccccc--%---%-@----@-338388333,i,i,i ii  i,,,,i, 6iii6i,i,i,i,8383",
"AAAAABBBMVVMMMAMBBBBBBBBMMVMVVyytt8ccccc-------%--@@@@-382823333i,i,i,, ,i ,,,,,6 ,6 i66,i,i,i,i2828",
"AAAAAABBBBBBMBBBBBBBBBBBMVBBBB8ytttccccc%-%-%;%%-%-@@--3828282836i,iii , i ai6,,, i, ai6i,i,i66,8382",
"AAAAAMBBBBBBABBBBBBBBBBBMMBBBByytttccccc-%-%%%%;%-@@%@-3383838286ii,iiiii ,i,,,, 66 ,iii,i iii6i2833",
"AAAAAMMBBBBBBBBBBBBBBBBBAVMBBB3388tcccvk--%- 2, --@-@-@382333383iiaa,i  , i , i6 ,,  a6iiaaiaa,i8232",
"MVMMMVABBBBBBBBBBBBBBBBBMMMABBAVVVVccvkvkvkvxiii333232238888----i , , i,iiiiiiiiiiia,666ia , i ,2222",
"BBBBNNNNBBBBBBBBBBBBBBBBCNNNNNNNVVVkvvvjxxxxxii2iii,ii,,8888---- i  i ,i,i6ii,i,66666,i,,i i, ii2;-2",
"BBBBCCNNBBBBBBBBBBBBBBBBMNCCCNNNMVMvvjccxvxxxi2,ia ii ii8888---@,iii ii,i,ii,i,i66666i,ii66 ,i ,;22:",
"BBBBMMNNBBBBBBBBBBBBBBBBMBNNNNNNMMVvccccxvxxx22ii6ii,i,i8888-%-%,  ,iiii,iaii,i,6666a i,i6 6  i,2;22",
"BBBBBBNNBBBBBBBBBBBBBBBBBBCNNCNNVMMvccccxxxhxii266 i,,,i8888%-%-i i , iii, i,i,i6666ii,iiii i,,6;222",
"HHHHHMMMNN2i233ASBSBBBBBBBBBMCvvvvgi833ii,i6i66666i,666iaaaa32i26i,ii,i,,i,i ai6,iiii6i,aii6i,i63i2i",
"HHHHHMMMMni3333ABSBSBBBBBBBBMMvvvvvi333366,i,666666ii6iiaaaa3iii6,i,,i,ii,i,i,iii6iai6,i iii,66633i2",
"HHHHHMMMMMi333sVSBSCBBBBBBBBMMkvgvva,ii2i6i6i666666666iaaaaa6i,i6iiii,i,i6 a,i,i,ii i,i,i,i,i,66iii,",
"HHHHHMMMMM33ii3NBSBCBBBBBBBBMMvvvvv ii2i,i,6666666,ii66aaaaa6ia 66ia i,i,iiii,i,i,,i,i,i,i,i,i66ia i",
"HHHHHMMMBB;333iNAAAAMMVAMMVVVVkvccc333333333333333383s3dyfdd3333383828282i,2i22i,2i22i,2i22i,2ii3333",
"MMMMVMVMBBAAAAAbbbbbAMMMVvcckvy8yyy883y3VVNNVugdddvkcck3y333333883828383,ii,,i,ii,,i,ii,,i,ii,,,2883",
"MMVVMVMMBBAAAAAbbbbbVMMMMlvcvvyyyyy33333VMNAMyygddvvccv3232y338338283828i2,i2i,2i22ii2,i2i,2,ii,8382",
"MMMMMMMVBBAAAAAbbbbbMMAVMvvkjvyyyyy8y3y2MMVMVguuddkvccc3y3333838838382832,i2i,2i2,i,2,i2i,2i22i22838",
"MMMVVVMMBBAAAABbbbbbVMMMNcvkccyyi3s3y333MAMAMfyfysvkccc83833383338382828,2i,i2,ii,,i,2i,2ii,i,2i8383",
"VVMMMMMVBBAAAAAmbbbbMVVMNkvvccyyid833833MMMVVyfugsvvccc383y2833s82828383i,2i,i2,i2i22i2ii2,i,ii22828",
"IYYYYMMVABHHHHH     SSSSDVNNbVVVVbVAAAAAAAAAAAAAAANNMMVDFFFDVAANV33838282ii22i2i,2i,ii,2,2,22,,28382",
"YYYYYVMMMMHHHHH     SSSSAVNNNbVmMMVAAAAAAAAAAAAAAANbVVVFFFFDAVAAV8828283,i2,i,2ii,2i,2i,,ii2ii,i2838",
"YYYYYMMMAVHHHHH     SSSSDNNNNNNNNNNAAAAAAAAAAAAAAAVbNNNDFFFFANANA838283838382i22i,,i2,i2i,2i,,i,8383",
"YYYYYAVMMMHHHHH     SSSSSNNNNNNNNNNAAAAAAAAAAAAAAAMVNNNDFFFFAAAAV38283828282i22i,i22ii2,i2i22ii22828",
"YYYYYNNNMAHHHHH     SSSSSNNNMMNNNNNAAAAAAAAAAAAAAAVbNNbGFFFFAAAAV8388883333822222i2i,i,i22i,i,2i8382",
"YYYYYYYYYYMMAMMHHHKGNNNNNNNNVCNNNNNNNNNNBBBBBHHHHHdgfffNNNNNBMMBVjjjkj28832mnnMnnvnnn,i2i,,i,i2,2838",
"YYYYYYYYYYMVMMVHHHHHNNNNVMMMMMMVNNNNMMmBBBBBBHHHHHfffffNNNNNNNBBVkkkkk83283bbMnnnnnnn2i,i22i2i,28383",
"YYYYYYYYYYMAMAMHHHHHNNNNMMVVMVMMNNNNVmBBBBBBBHHHHHffffgbNNNNMCBBVkkkkk3883;bbbnnnnnnn,2i,,i2i2,i3828",
"YYYYYYYYYYMMMMAHHHHHNNMMMVMMVMVMNNVMbVBBBBBBBHHHHHfffffVNNNNMBBBMkkkkk33282mnnnnnnnnni,ii,i,,ii,8333",
"YYYYYYYYYYVMVMMHHHHHNbVVMMVMMMVMbVbMVbBBBBBBBHHHHHfffffMNNNNBBBBVhkkkk33838mnnnnnnnnvi22i2,i22i23333",
"YYYYYYYYYYYYYYYHHHHHDDDDDNNANAKGHHHMMABBHHJJHVBBVMMMMMMYYYYYkkkkkkkhvhww2iivvvvvvvvvvjjjjj38382AAAAA",
"YYYYYYYYYYYYYYYHHHHHDDDDGNNNNNHHHHHVMMBBHHJJHBBBMMAVVVMYYYYYkkkkkkkjjvwwii2vvvvvvvvvvjjjjj33838AAAAA",
"YYYYYYYYYYYYYYYHHHHHDDSSSNNNNNHHHHHMVABBJJJJLVBBMAMMMMVYYYYYkkkkkkhvhvww2i2vvvvvvvvvvjjjjj33383AAAAA",
"YYYYYYYYYYYYYYYHHHHHDDDSSNNNNNHHHHHMMMBBJJJJHBBBMMAMMVMYYYYYkkkkkkvhhjww2iivvvvvvvvvvjjjjj33828AAAAA",
"YYYYYYYYYYYYYYYHHHHHGSGSDBMMANHHHHHAMMAMJJHHHVBBVAMMVVMYYYYYkkkkkhvhfv9wii,vvvvvvvvvvljjjj83283AAAAA",
"YYYYYYYYYYVMAMMYIYUUYIYYYYYYYYNNMVMHHHHHVVBBBBBBMMYYYYYYYYYYYYYYYVMVCMLLHLLYYYYYiiaaiiiidyjjjjjcvvvv",
"YYYYYYYYYYMMVMVIYUUUYYYYYYYYYYCNMMVHHHHHBBBBBBBBMMYYYYYYYYYYYYYYYMVMMCLLLLLYYYYYiaauiiiiddjjjjjcvvvv",
"YYYYYYYYYYMVMMVYYYUUYYYYYYYYYYCNAMMHHHHHBBBBBBBBAVYYYYYYYYYYYYYYYMAMMMLLLLLYYYYYaaaafwiiiijjjjkcvvvv",
"YYYYYYYYYYMMVMMYIYIYYYYYYYYYYYBBMMVHHHHHVMMMMAVMMMYYYYYYYYYYYYYYYVMMVAHLPKPYYYYYdididiiiiijjjjjvvvvv",
"YYYYYYYYYYAMAMMYYYYYYYYYYYYYYYBBVVMHHHHHMMAVMMMVMVYYYYYYYYYYYYYYYMAMMMLLKKLYYYYYididiiidiivhjjjvvvvv",
"YYYYYMMAVMYYYYYIIIIIYYYYYYYYYYYYYYYHHHHHMMMMMYYYYYYYYYYYYYYYYYYYYYYYYYYYYYYYYYYYYYYYYYYYIYHKLLHBBBBB",
"YYYYYVMMMMYYYYYIIIIIYYYYYYYYYYYYYYYHHHHHMMMMMYYYYYYYYYYYYYYYYYYYYYYYYYYYYYYYYYYYYYYYYYYYYYHPHHLBBBBB",
"YYYYYAMMNAYYYYYIIIIIYYYYYYYYYYYYYYYHHHHHMMMMMYYYYYYYYYYYYYYYYYYYYYYYYYYYYYYYYYYYYYYYYYYYYYPHPKKNBBBB",
"YYYYYMMVNNYYYYYIIIIIYYYYYYYYYYYYYYYHHHHHMMMMMYYYYYYYYYYYYYYYYYYYYYYYYYYYYYYYYYYYYYYYYYYYYYKPKKHCBBBB",
"YYYYYMMANNYYYYYIIIIIYYYYYYYYYYYYPYYFHHFHBBMMBPYYYYYYYYYYYYYYYYYYYYYYYYYYYYYYYYYYYYYYYYYYYYHHHHPNBBBB",
"PPPPPSSSSSNNmVVYYYYYYYYYYYYYYYMMmVVmBVmmVVVAVmmmBBYYYYYYYYYYYYYYYHFHHHYYYYYYYYYYYYYYYYYYYYMMVMMCCCCC",
"PPPPPSSSSSVMMVbYYYYYYYYYYYYYYYmmmmmmmmmmNAVVVmmmmmYYYYYYYYYYYYYYYHHFGGYYYYYYYYYYYYYYYYYYYYVmmmmMAAAB",
"PPPPPSSSSSbVVbNYYYYYYYYYYYYYYYmmmmmmmmmmVVVVVmmmmmYYYYYYYYYYYYYYYHJJGGYYYYYYYYYYYYYYYYYYYYmmmmmVAMBA",
"PPPPPSSSSSMMNNNYYYYYYYYYYYYYYYmbmmmmmmmmVVVVVmmmmmYYYYYYYYYYYYYYYGGGGGYYYYYYYYYYYYYYYYYYYYmmmmVVCCAB",
"PPPPPSSSSSVMNNNYYYYYYYYYYYYYYYmVmmmmmmmmVVVVVmmmmmYYYYYYYYYYYYYYYGGGGGYYYYYYYYYYYYYYYYYYYYmmmmmVCABA"
};
