/* XPM */
static char *_ab5d9bd1dd849c4cd21b2c13c0e31cbRryyilCGXmXNyQXv[] = {
/* columns rows colors chars-per-pixel */
"100 100 5 1 ",
"  c None",
". c #0B8309",
"X c #38D209",
"o c #76FF03",
"O c #BAFF47",
/* pixels */
"                                                                                                    ",
"                                                                                                    ",
"                                                                                                    ",
"                                                                                                    ",
"                                                                                                    ",
"                                                                                                    ",
"                                                                                                    ",
"                                                                                                    ",
"                                                                                                    ",
"                                                                                                    ",
"                                                                                                    ",
"                                                                                                    ",
"                                                                                                    ",
"                                                                                                    ",
"                                                                                                    ",
"                                                                                                    ",
"                                  ................................                                  ",
"                                  ................................                                  ",
"                                  ................................                                  ",
"                                  ................................                                  ",
"                              ....OOOOOOOOOOOOOOOOOOOOOOOOOOOOOOOO....                              ",
"                              ....OOOOOOOOOOOOOOOOOOOOOOOOOOOOOOOO....                              ",
"                              ....OOOOOOOOOOOOOOOOOOOOOOOOOOOOOOOO....                              ",
"                              ....OOOOOOOOOOOOOOOOOOOOOOOOOOOOOOOO....                              ",
"                              ....OOOOOOOOOOOOOOOOOOOOOOOOOOOOOOOO....                              ",
"                         .....OOOOooooooooooooooooooooooooooooooooOOOO.....                         ",
"                         .....OOOOooooooooooooooooooooooooooooooooOOOO.....                         ",
"                         .....OOOOooooooooooooooooooooooooooooooooOOOO.....                         ",
"                         .....OOOOooooooooooooooooooooooooooooooooOOOO.....                         ",
"                         .....OOOOooooooooooooooooooooooooooooooooOOOO.....                         ",
"                    .....oooooXXXXXXXXXXXXXXXXXXXXXXXXXXXXXXXXXXXXooooOOOOO.....                    ",
"                    .....oooooXXXXXXXXXXXXXXXXXXXXXXXXXXXXXXXXXXXXooooOOOOO.....                    ",
"                    .....oooooXXXXXXXXXXXXXXXXXXXXXXXXXXXXXXXXXXXXooooOOOOO.....                    ",
"                    .....oooooXXXXXXXXXXXXXXXXXXXXXXXXXXXXXXXXXXXXooooOOOOO.....                    ",
"                    .....XXXXXXXXXXXXXXXXXXXXXXXXXXXXXXXXXXXXXXXXXooooOOOOO.....                    ",
"                    .....XXXXXXXXXXXXXXXXXXXXXXXXXXXXXXXXXXXXXXXXXooooOOOOO.....                    ",
"                    .....XXXXXXXXXXXXXXXXXXXXXXXXXXXXXXXXXXXXXXXXXooooOOOOO.....                    ",
"                    .....XXXXXXXXXXXXXXXXXXXXXXXXXXXXXXXXXXXXXXXXXooooOOOOO.....                    ",
"                    .....XXXXXXXXXXXXXXXXXXXXXXXXXXXXXXXXXXXXXXXXXooooOOOOO.....                    ",
"                    .....XXXXXXXXXXXXXXXXXXXXXXXXXXXXXXXXXXXXXXXXXooooOOOOO.....                    ",
"                    .....XXXXXXXXXXXXXXXXXXXXXXXXXXXXXXXXXXXXXXXXXooooOOOOO.....                    ",
"                ....XXXXXXXXXXXXXX.......XXXXXXXXXXXXXXXXXX.......XXXXoooooOOOOO....                ",
"                ....XXXXXXXXXXXXXX.......XXXXXXXXXXXXXXXXXX.......XXXXoooooOOOOO....                ",
"                ....XXXXXXXXXXXXXX.......XXXXXXXXXXXXXXXXXX.......XXXXoooooOOOOO....                ",
"                ....XXXXXXXXXXXXXX.......XXXXXXXXXXXXXXXXXX.......XXXXoooooOOOOO....                ",
"                ....XXXXXXXXXXXXXX.......XXXXXXXXXXXXXXXXXX.......XXXXoooooOOOOO....                ",
"                ....XXXXXXXXXXXXXX.......XXXXXXXXXXXXXXXXXX.......XXXXoooooOOOOO....                ",
"                ....XXXXXXXXXXXXXX.......XXXXXXXXXXXXXXXXXX.......XXXXoooooOOOOO....                ",
"                ....XXXXXXXXXXXXXX.......XXXXXXXXXXXXXXXXXX.......XXXXoooooOOOOO....                ",
"                ....XXXXXXXXXXXXXX.......XXXXXXXXXXXXXXXXXX.......XXXXoooooOOOOO....                ",
"         .......XXXXXXXXXXXXXXXXXXXXXXXXXXXXXXXXXXXXXXXXXXXXXXXXXXXXXXXXXXXoooooOOOO.......         ",
"         .......XXXXXXXXXXXXXXXXXXXXXXXXXXXXXXXXXXXXXXXXXXXXXXXXXXXXXXXXXXXoooooOOOO.......         ",
"         .......XXXXXXXXXXXXXXXXXXXXXXXXXXXXXXXXXXXXXXXXXXXXXXXXXXXXXXXXXXXoooooOOOO.......         ",
"         .......XXXXXXXXXXXXXXXXXXXXXXXXXXXXXXXXXXXXXXXXXXXXXXXXXXXXXXXXXXXoooooOOOO.......         ",
"         .......XXXXXXXXXXXXXXXXXXXXXXXXXXXXXXXXXXXXXXXXXXXXXXXXXXXXXXXXXXXoooooOOOO.......         ",
"         .......XXXXXXXXXXXXXXXXXXXXXXXXX....XXXXXXXXXX....XXXXXXXXXXXXXXXXoooooOOOO.......         ",
"         .......XXXXXXXXXXXXXXXXXXXXXXXXX....XXXXXXXXXX....XXXXXXXXXXXXXXXXoooooOOOO.......         ",
"         .......XXXXXXXXXXXXXXXXXXXXXXXXX....XXXXXXXXXX....XXXXXXXXXXXXXXXXoooooOOOO.......         ",
"         .......XXXXXXXXXXXXXXXXXXXXXXXXX....XXXXXXXXXX....XXXXXXXXXXXXXXXXoooooOOOO.......         ",
"         .......XXXXXXXXXXXXXXXXXXXXXXXXXXXXX..........XXXXXXXXXXXXXXXXXXXXoooooOOOO.......         ",
"         .......XXXXXXXXXXXXXXXXXXXXXXXXXXXXX..........XXXXXXXXXXXXXXXXXXXXoooooOOOO.......         ",
"         .......XXXXXXXXXXXXXXXXXXXXXXXXXXXXX..........XXXXXXXXXXXXXXXXXXXXoooooOOOO.......         ",
"         .......XXXXXXXXXXXXXXXXXXXXXXXXXXXXX..........XXXXXXXXXXXXXXXXXXXXoooooOOOO.......         ",
"         .......XXXXXXXXXXXXXXXXXXXXXXXXXXXXX..........XXXXXXXXXXXXXXXXXXXXoooooOOOO.......         ",
"         .......XXXXXXXXXXXXXXXXXXXXXXXXXXXXX..........XXXXXXXXXXXXXXXXXXXXoooooOOOO.......         ",
"         .......XXXXXXXXXXXXXXXXXXXXXXXXXXXXX..........XXXXXXXXXXXXXXXXXXXXoooooOOOO.......         ",
"         .......XXXXXXXXXXXXXXXXXXXXXXXXXXXXXXXXXXXXXXXXXXXXXXXXXXXXXXXXXXXXXXXXoooo.......         ",
"         .......XXXXXXXXXXXXXXXXXXXXXXXXXXXXXXXXXXXXXXXXXXXXXXXXXXXXXXXXXXXXXXXXoooo.......         ",
"         .......XXXXXXXXXXXXXXXXXXXXXXXXXXXXXXXXXXXXXXXXXXXXXXXXXXXXXXXXXXXXXXXXoooo.......         ",
"         .......XXXXXXXXXXXXXXXXXXXXXXXXXXXXXXXXXXXXXXXXXXXXXXXXXXXXXXXXXXXXXXXXoooo.......         ",
"                ....XXXXXXXXXXXXXXXXXXXXXXXXXXXXXXXXXXXXXXXXXXXXXXXXXXXXXXXXXXXX....                ",
"                ....XXXXXXXXXXXXXXXXXXXXXXXXXXXXXXXXXXXXXXXXXXXXXXXXXXXXXXXXXXXX....                ",
"                ....XXXXXXXXXXXXXXXXXXXXXXXXXXXXXXXXXXXXXXXXXXXXXXXXXXXXXXXXXXXX....                ",
"                ....XXXXXXXXXXXXXXXXXXXXXXXXXXXXXXXXXXXXXXXXXXXXXXXXXXXXXXXXXXXX....                ",
"                ....XXXXXXXXXXXXXXXXXXXXXXXXXXXXXXXXXXXXXXXXXXXXXXXXXXXXXXXXXXXX....                ",
"                    .....XXXXXXXXXXXXXXXXXXXXXXXXXXXXXXXXXXXXXXXXXXXXXXXXXX.....                    ",
"                    .....XXXXXXXXXXXXXXXXXXXXXXXXXXXXXXXXXXXXXXXXXXXXXXXXXX.....                    ",
"                    .....XXXXXXXXXXXXXXXXXXXXXXXXXXXXXXXXXXXXXXXXXXXXXXXXXX.....                    ",
"                    .....XXXXXXXXXXXXXXXXXXXXXXXXXXXXXXXXXXXXXXXXXXXXXXXXXX.....                    ",
"                    .....XXXXXXXXXXXXXXXXXXXXXXXXXXXXXXXXXXXXXXXXXXXXXXXXXX.....                    ",
"                         ..................................................                         ",
"                         ..................................................                         ",
"                         ..................................................                         ",
"                         ..................................................                         ",
"                                                                                                    ",
"                                                                                                    ",
"                                                                                                    ",
"                                                                                                    ",
"                                                                                                    ",
"                                                                                                    ",
"                                                                                                    ",
"                                                                                                    ",
"                                                                                                    ",
"                                                                                                    ",
"                                                                                                    ",
"                                                                                                    ",
"                                                                                                    ",
"                                                                                                    ",
"                                                                                                    ",
"                                                                                                    "
};
