/* XPM */
static char *_c2481f4ea854e0cecf104e0b676464eWIWtHijQS9xqpWyL[] = {
/* columns rows colors chars-per-pixel */
"50 50 8 1 ",
"  c None",
". c #0A60C2",
"X c #3C83CF",
"o c #2DB0FA",
"O c #1CCAFF",
"+ c #2EE3FF",
"@ c #60D4F7",
"# c #94E6FF",
/* pixels */
"                                                  ",
"                                                  ",
"                                                  ",
"                                                  ",
"                                                  ",
"                                                  ",
"                                                  ",
"                                                  ",
"                                                  ",
"                                                  ",
"                                                  ",
"                                                  ",
"                                                  ",
"                                                  ",
"                                                  ",
"                                                  ",
"                                                  ",
"                                                  ",
"                                                  ",
"                                                  ",
"                                                  ",
"                                                  ",
"                                                  ",
"                     OOoooooo                     ",
"                   OO########oo                   ",
"                 oo##++++XXXX##oo                 ",
"               oo##++##++++XXXX##..               ",
"              o##+++###+++++++XXX##.              ",
"             o#X++++##++++++++++XXX#.             ",
"            .#X+++#+++++++++++++++XX#.            ",
"           .#XX+++#++..++++..+++++#..#.           ",
"           .#X+++++++.X++++.X+++++#..#.           ",
"           .#X+++++++XX++++XX++++++#.#.           ",
"          .#.X+++++++++++++++++++++#..#.          ",
"          .#..++++++++++++++++++++++#.#.          ",
"          .#..++++++++++++++++++++++#.#.          ",
"          .#...###++++++++++++#####+++#.          ",
"          .#.###..XXXXXXXXXXXXXX..###+#.          ",
"          .###..XXXXXXXXXXXXXXXXX...###.          ",
"          .#.....XXXXXXXXXXXXXXX......#.          ",
"          .##.......................@@#.          ",
"           ..##@..................@@@..           ",
"             ...@@@@@@@@@@@@@@@@@@...             ",
"                ..................                ",
"                                                  ",
"                                                  ",
"                                                  ",
"                                                  ",
"                                                  ",
"                                                  "
};
