/* XPM */
static char *ef96f556f553449e841d147b48a699a5OrAR07xDNg8QWunH[] = {
/* columns rows colors chars-per-pixel */
"100 100 6 1 ",
"  c None",
". c #0B8309",
"X c #38D209",
"o c #76FF03",
"O c #82FF1F",
"+ c #BAFF47",
/* pixels */
"                                                                                                    ",
"                                                                                                    ",
"                                                                                                    ",
"                                                                                                    ",
"                                                                                                    ",
"                                                                                                    ",
"                                                                                                    ",
"                                                                                                    ",
"                                                                                                    ",
"                                                                                                    ",
"                                                                                                    ",
"                                                                                                    ",
"                                                                                                    ",
"                                                                                                    ",
"                                                                                                    ",
"                                                                                                    ",
"                                                                                                    ",
"                                                                                                    ",
"                                                                                                    ",
"                                                                                                    ",
"                                                                                                    ",
"                                                                                                    ",
"                                                                                                    ",
"                                                                                                    ",
"                                                                                                    ",
"                                  ................................                                  ",
"                                  ................................                                  ",
"                                  ................................                                  ",
"                                  ................................                                  ",
"                                  ................................                                  ",
"                         .........++++++++++++++++++++++++++++++++.........                         ",
"                         .........++++++++++++++++++++++++++++++++.........                         ",
"                         .........++++++++++++++++++++++++++++++++.........                         ",
"                         .........++++++++++++++++++++++++++++++++.........                         ",
"                    .....+++++++++OOOOOOOOOOOOOOOOoooooooooooooooo+++++++++.....                    ",
"                    .....+++++++++OOOOOOOOOOOOOOOOoooooooooooooooo+++++++++.....                    ",
"                    .....+++++++++OOOOOOOOOOOOOOOOoooooooooooooooo+++++++++.....                    ",
"                    .....+++++++++OOOOOOOOOOOOOOOOoooooooooooooooo+++++++++.....                    ",
"                    .....+++++++++OOOOOOOOOOOOOOOOoooooooooooooooo+++++++++.....                    ",
"                    .....+++++++++OOOOOOOOOOOOOOOOoooooooooooooooo+++++++++.....                    ",
"                    .....+++++++++OOOOOOOOOOOOOOOOoooooooooooooooo+++++++++.....                    ",
"                ....OOOOOXXXXXXXXXXXXXXXXXXXXXXXXXXXXXXXXXXXXXXXXXOOOOOOOOO+++++....                ",
"                ....OOOOOXXXXXXXXXXXXXXXXXXXXXXXXXXXXXXXXXXXXXXXXXOOOOOOOOO+++++....                ",
"                ....OOOOOXXXXXXXXXXXXXXXXXXXXXXXXXXXXXXXXXXXXXXXXXOOOOOOOOO+++++....                ",
"                ....OOOOOXXXXXXXXXXXXXXXXXXXXXXXXXXXXXXXXXXXXXXXXXOOOOOOOOO+++++....                ",
"         .......XXXXXXXXXXXXXXXXXX.......XXXXXXXXXXXXXXXXXX.......XXXXXXXXXOOOOO++++.......         ",
"         .......XXXXXXXXXXXXXXXXXX.......XXXXXXXXXXXXXXXXXX.......XXXXXXXXXOOOOO++++.......         ",
"         .......XXXXXXXXXXXXXXXXXX.......XXXXXXXXXXXXXXXXXX.......XXXXXXXXXOOOOO++++.......         ",
"         .......XXXXXXXXXXXXXXXXXX.......XXXXXXXXXXXXXXXXXX.......XXXXXXXXXOOOOO++++.......         ",
"         .......XXXXXXXXXXXXXXXXXX.......XXXXXXXXXXXXXXXXXX.......XXXXXXXXXOOOOO++++.......         ",
"         .......XXXXXXXXXXXXXXXXXX.......XXXXXXXXXXXXXXXXXX.......XXXXXXXXXOOOOO++++.......         ",
"         .......XXXXXXXXXXXXXXXXXX.......XXXXXXXXXXXXXXXXXX.......XXXXXXXXXOOOOO++++.......         ",
"         .......XXXXXXXXXXXXXXXXXX.......XXXXXXXXXXXXXXXXXX.......XXXXXXXXXOOOOO++++.......         ",
"         .......XXXXXXXXXXXXXXXXXX.......XXXXXXXXXXXXXXXXXX.......XXXXXXXXXOOOOO++++.......         ",
"         .......XXXXXXXXXXXXXXXXXX.......XXXXXXXXXXXXXXXXXX.......XXXXXXXXXOOOOO++++.......         ",
"     ....XXXXXXXXXXXXXXXXXXXXXXXXX.......XXXXXXXXXXXXXXXXXX.......XXXXXXXXXXXXXXOOOO+++++++....     ",
"     ....XXXXXXXXXXXXXXXXXXXXXXXXX.......XXXXXXXXXXXXXXXXXX.......XXXXXXXXXXXXXXOOOO+++++++....     ",
"     ....XXXXXXXXXXXXXXXXXXXXXXXXX.......XXXXXXXXXXXXXXXXXX.......XXXXXXXXXXXXXXOOOO+++++++....     ",
"     ....XXXXXXXXXXXXXXXXXXXXXXXXX.......XXXXXXXXXXXXXXXXXX.......XXXXXXXXXXXXXXOOOO+++++++....     ",
"     ....XXXXXXXXXXXXXXXXXXXXXXXXXXXXXXXXXXXXXXXXXXXXXXXXXXXXXXXXXXXXXXXXXXXXXXXOOOO+++++++....     ",
"     ....XXXXXXXXXXXXXXXXXXXXXXXXXXXXXXXXXXXXXXXXXXXXXXXXXXXXXXXXXXXXXXXXXXXXXXXOOOO+++++++....     ",
"     ....XXXXXXXXXXXXXXXXXXXXXXXXXXXXXXXXXXXXXXXXXXXXXXXXXXXXXXXXXXXXXXXXXXXXXXXOOOO+++++++....     ",
"     ....XXXXXXXXXXXXXXXXXXXXXXXXXXXXXXXXXXXXXXXXXXXXXXXXXXXXXXXXXXXXXXXXXXXXXXXOOOO+++++++....     ",
"     ....XXXXXXXXXXXXXXXXXXXXXXXXXXXXXXXXXXXXXXXXXXXXXXXXXXXXXXXXXXXXXXXXXXXXXXXOOOO+++++++....     ",
"     ....XXXXXXXXXXXXXXXXXXXXXXXXXXXXXXXXXXXXXXXXXXXXXXXXXXXXXXXXXXXXXXXXXXXXXXXOOOO+++++++....     ",
"     ....XXXXXXXXXXXXXXXXXXXXXXXXXXXXXXXXXXXXXXXXXXXXXXXXXXXXXXXXXXXXXXXXXXXXXXXOOOO+++++++....     ",
"     ....XXXXXXXXXXXXXXXXXXXXXXXXXXXXXXXX....XXXXXXXXXX....XXXXXXXXXXXXXXXXXXXXXOOOO+++++++....     ",
"     ....XXXXXXXXXXXXXXXXXXXXXXXXXXXXXXXX....XXXXXXXXXX....XXXXXXXXXXXXXXXXXXXXXOOOO+++++++....     ",
"     ....XXXXXXXXXXXXXXXXXXXXXXXXXXXXXXXX....XXXXXXXXXX....XXXXXXXXXXXXXXXXXXXXXOOOO+++++++....     ",
"     ....XXXXXXXXXXXXXXXXXXXXXXXXXXXXXXXX....XXXXXXXXXX....XXXXXXXXXXXXXXXXXXXXXOOOO+++++++....     ",
"     ....XXXXXXXXXXXXXXXXXXXXXXXXXXXXXXXXXXXX..........XXXXXXXXXXXXXXXXXXXXXXXXXXXXXOOOOOOO....     ",
"     ....XXXXXXXXXXXXXXXXXXXXXXXXXXXXXXXXXXXX..........XXXXXXXXXXXXXXXXXXXXXXXXXXXXXOOOOOOO....     ",
"     ....XXXXXXXXXXXXXXXXXXXXXXXXXXXXXXXXXXXX..........XXXXXXXXXXXXXXXXXXXXXXXXXXXXXOOOOOOO....     ",
"     ....XXXXXXXXXXXXXXXXXXXXXXXXXXXXXXXXXXXX..........XXXXXXXXXXXXXXXXXXXXXXXXXXXXXOOOOOOO....     ",
"     ....XXXXXXXXXXXXXXXXXXXXXXXXXXXXXXXXXXXX..........XXXXXXXXXXXXXXXXXXXXXXXXXXXXXOOOOOOO....     ",
"         .......XXXXXXXXXXXXXXXXXXXXXXXXXXXXXXXXXXXXXXXXXXXXXXXXXXXXXXXXXXXXXXXXXXXX.......         ",
"         .......XXXXXXXXXXXXXXXXXXXXXXXXXXXXXXXXXXXXXXXXXXXXXXXXXXXXXXXXXXXXXXXXXXXX.......         ",
"         .......XXXXXXXXXXXXXXXXXXXXXXXXXXXXXXXXXXXXXXXXXXXXXXXXXXXXXXXXXXXXXXXXXXXX.......         ",
"         .......XXXXXXXXXXXXXXXXXXXXXXXXXXXXXXXXXXXXXXXXXXXXXXXXXXXXXXXXXXXXXXXXXXXX.......         ",
"         .......XXXXXXXXXXXXXXXXXXXXXXXXXXXXXXXXXXXXXXXXXXXXXXXXXXXXXXXXXXXXXXXXXXXX.......         ",
"                ....XXXXXXXXXXXXXXXXXXXXXXXXXXXXXXXXXXXXXXXXXXXXXXXXXXXXXXXXXXXX....                ",
"                ....XXXXXXXXXXXXXXXXXXXXXXXXXXXXXXXXXXXXXXXXXXXXXXXXXXXXXXXXXXXX....                ",
"                ....XXXXXXXXXXXXXXXXXXXXXXXXXXXXXXXXXXXXXXXXXXXXXXXXXXXXXXXXXXXX....                ",
"                ....XXXXXXXXXXXXXXXXXXXXXXXXXXXXXXXXXXXXXXXXXXXXXXXXXXXXXXXXXXXX....                ",
"                    ............................................................                    ",
"                    ............................................................                    ",
"                    ............................................................                    ",
"                    ............................................................                    ",
"                    ............................................................                    ",
"                    ............................................................                    ",
"                    ............................................................                    ",
"                                                                                                    ",
"                                                                                                    ",
"                                                                                                    ",
"                                                                                                    ",
"                                                                                                    ",
"                                                                                                    ",
"                                                                                                    ",
"                                                                                                    ",
"                                                                                                    "
};
