/* XPM */
static char *_f4354fda31b4562a63673f6db765ad4LdFjXHpBjEQ1CbYf[] = {
/* columns rows colors chars-per-pixel */
"100 100 5 1 ",
"  c None",
". c #0B8309",
"X c #38D209",
"o c #76FF03",
"O c #BAFF47",
/* pixels */
"                                                                                                    ",
"                                                                                                    ",
"                                                                                                    ",
"                                                                                                    ",
"                                                                                                    ",
"                                                                                                    ",
"                                                                                                    ",
"                                                                                                    ",
"                                                                                                    ",
"                                                                                                    ",
"                                                                                                    ",
"                                                                                                    ",
"                                                                                                    ",
"                                                                                                    ",
"                                                                                                    ",
"                                                                                                    ",
"                                                                                                    ",
"                                                                                                    ",
"                                                                                                    ",
"                                                                                                    ",
"                                                                                                    ",
"                                                                                                    ",
"                                                                                                    ",
"                                                                                                    ",
"                                                                                                    ",
"                                  ................................                                  ",
"                                  ................................                                  ",
"                                  ................................                                  ",
"                                  ................................                                  ",
"                                  ................................                                  ",
"                         .........OOOOOOOOOOOOOOOOOOOOOOOOOOOOOOOO.........                         ",
"                         .........OOOOOOOOOOOOOOOOOOOOOOOOOOOOOOOO.........                         ",
"                         .........OOOOOOOOOOOOOOOOOOOOOOOOOOOOOOOO.........                         ",
"                         .........OOOOOOOOOOOOOOOOOOOOOOOOOOOOOOOO.........                         ",
"                    .....OOOOOOOOOooooooooooooooooooooooooooooooooOOOOOOOOO.....                    ",
"                    .....OOOOOOOOOooooooooooooooooooooooooooooooooOOOOOOOOO.....                    ",
"                    .....OOOOOOOOOooooooooooooooooooooooooooooooooOOOOOOOOO.....                    ",
"                    .....OOOOOOOOOooooooooooooooooooooooooooooooooOOOOOOOOO.....                    ",
"                    .....OOOOOOOOOooooooooooooooooooooooooooooooooOOOOOOOOO.....                    ",
"                    .....OOOOOOOOOooooooooooooooooooooooooooooooooOOOOOOOOO.....                    ",
"                    .....OOOOOOOOOooooooooooooooooooooooooooooooooOOOOOOOOO.....                    ",
"                ....oooooXXXXXXXXXXXXXXXXXXXXXXXXXXXXXXXXXXXXXXXXXoooooooooOOOOO....                ",
"                ....oooooXXXXXXXXXXXXXXXXXXXXXXXXXXXXXXXXXXXXXXXXXoooooooooOOOOO....                ",
"                ....oooooXXXXXXXXXXXXXXXXXXXXXXXXXXXXXXXXXXXXXXXXXoooooooooOOOOO....                ",
"                ....oooooXXXXXXXXXXXXXXXXXXXXXXXXXXXXXXXXXXXXXXXXXoooooooooOOOOO....                ",
"         .......XXXXXXXXXXXXXXXXXX.......XXXXXXXXXXXXXXXXXX.......XXXXXXXXXoooooOOOO.......         ",
"         .......XXXXXXXXXXXXXXXXXX.......XXXXXXXXXXXXXXXXXX.......XXXXXXXXXoooooOOOO.......         ",
"         .......XXXXXXXXXXXXXXXXXX.......XXXXXXXXXXXXXXXXXX.......XXXXXXXXXoooooOOOO.......         ",
"         .......XXXXXXXXXXXXXXXXXX.......XXXXXXXXXXXXXXXXXX.......XXXXXXXXXoooooOOOO.......         ",
"         .......XXXXXXXXXXXXXXXXXX.......XXXXXXXXXXXXXXXXXX.......XXXXXXXXXoooooOOOO.......         ",
"         .......XXXXXXXXXXXXXXXXXX.......XXXXXXXXXXXXXXXXXX.......XXXXXXXXXoooooOOOO.......         ",
"         .......XXXXXXXXXXXXXXXXXX.......XXXXXXXXXXXXXXXXXX.......XXXXXXXXXoooooOOOO.......         ",
"         .......XXXXXXXXXXXXXXXXXX.......XXXXXXXXXXXXXXXXXX.......XXXXXXXXXoooooOOOO.......         ",
"         .......XXXXXXXXXXXXXXXXXX.......XXXXXXXXXXXXXXXXXX.......XXXXXXXXXoooooOOOO.......         ",
"         .......XXXXXXXXXXXXXXXXXX.......XXXXXXXXXXXXXXXXXX.......XXXXXXXXXoooooOOOO.......         ",
"     ....XXXXXXXXXXXXXXXXXXXXXXXXX.......XXXXXXXXXXXXXXXXXX.......XXXXXXXXXXXXXXooooOOOOOOO....     ",
"     ....XXXXXXXXXXXXXXXXXXXXXXXXX.......XXXXXXXXXXXXXXXXXX.......XXXXXXXXXXXXXXooooOOOOOOO....     ",
"     ....XXXXXXXXXXXXXXXXXXXXXXXXX.......XXXXXXXXXXXXXXXXXX.......XXXXXXXXXXXXXXooooOOOOOOO....     ",
"     ....XXXXXXXXXXXXXXXXXXXXXXXXX.......XXXXXXXXXXXXXXXXXX.......XXXXXXXXXXXXXXooooOOOOOOO....     ",
"     ....XXXXXXXXXXXXXXXXXXXXXXXXXXXXXXXXXXXXXXXXXXXXXXXXXXXXXXXXXXXXXXXXXXXXXXXooooOOOOOOO....     ",
"     ....XXXXXXXXXXXXXXXXXXXXXXXXXXXXXXXXXXXXXXXXXXXXXXXXXXXXXXXXXXXXXXXXXXXXXXXooooOOOOOOO....     ",
"     ....XXXXXXXXXXXXXXXXXXXXXXXXXXXXXXXXXXXXXXXXXXXXXXXXXXXXXXXXXXXXXXXXXXXXXXXooooOOOOOOO....     ",
"     ....XXXXXXXXXXXXXXXXXXXXXXXXXXXXXXXXXXXXXXXXXXXXXXXXXXXXXXXXXXXXXXXXXXXXXXXooooOOOOOOO....     ",
"     ....XXXXXXXXXXXXXXXXXXXXXXXXXXXXXXXXXXXXXXXXXXXXXXXXXXXXXXXXXXXXXXXXXXXXXXXooooOOOOOOO....     ",
"     ....XXXXXXXXXXXXXXXXXXXXXXXXXXXXXXXXXXXXXXXXXXXXXXXXXXXXXXXXXXXXXXXXXXXXXXXooooOOOOOOO....     ",
"     ....XXXXXXXXXXXXXXXXXXXXXXXXXXXXXXXXXXXXXXXXXXXXXXXXXXXXXXXXXXXXXXXXXXXXXXXooooOOOOOOO....     ",
"     ....XXXXXXXXXXXXXXXXXXXXXXXXXXXXXXXX....XXXXXXXXXX....XXXXXXXXXXXXXXXXXXXXXooooOOOOOOO....     ",
"     ....XXXXXXXXXXXXXXXXXXXXXXXXXXXXXXXX....XXXXXXXXXX....XXXXXXXXXXXXXXXXXXXXXooooOOOOOOO....     ",
"     ....XXXXXXXXXXXXXXXXXXXXXXXXXXXXXXXX....XXXXXXXXXX....XXXXXXXXXXXXXXXXXXXXXooooOOOOOOO....     ",
"     ....XXXXXXXXXXXXXXXXXXXXXXXXXXXXXXXX....XXXXXXXXXX....XXXXXXXXXXXXXXXXXXXXXooooOOOOOOO....     ",
"     ....XXXXXXXXXXXXXXXXXXXXXXXXXXXXXXXXXXXX..........XXXXXXXXXXXXXXXXXXXXXXXXXXXXXooooooo....     ",
"     ....XXXXXXXXXXXXXXXXXXXXXXXXXXXXXXXXXXXX..........XXXXXXXXXXXXXXXXXXXXXXXXXXXXXooooooo....     ",
"     ....XXXXXXXXXXXXXXXXXXXXXXXXXXXXXXXXXXXX..........XXXXXXXXXXXXXXXXXXXXXXXXXXXXXooooooo....     ",
"     ....XXXXXXXXXXXXXXXXXXXXXXXXXXXXXXXXXXXX..........XXXXXXXXXXXXXXXXXXXXXXXXXXXXXooooooo....     ",
"     ....XXXXXXXXXXXXXXXXXXXXXXXXXXXXXXXXXXXX..........XXXXXXXXXXXXXXXXXXXXXXXXXXXXXooooooo....     ",
"         .......XXXXXXXXXXXXXXXXXXXXXXXXXXXXXXXXXXXXXXXXXXXXXXXXXXXXXXXXXXXXXXXXXXXX.......         ",
"         .......XXXXXXXXXXXXXXXXXXXXXXXXXXXXXXXXXXXXXXXXXXXXXXXXXXXXXXXXXXXXXXXXXXXX.......         ",
"         .......XXXXXXXXXXXXXXXXXXXXXXXXXXXXXXXXXXXXXXXXXXXXXXXXXXXXXXXXXXXXXXXXXXXX.......         ",
"         .......XXXXXXXXXXXXXXXXXXXXXXXXXXXXXXXXXXXXXXXXXXXXXXXXXXXXXXXXXXXXXXXXXXXX.......         ",
"         .......XXXXXXXXXXXXXXXXXXXXXXXXXXXXXXXXXXXXXXXXXXXXXXXXXXXXXXXXXXXXXXXXXXXX.......         ",
"                ....XXXXXXXXXXXXXXXXXXXXXXXXXXXXXXXXXXXXXXXXXXXXXXXXXXXXXXXXXXXX....                ",
"                ....XXXXXXXXXXXXXXXXXXXXXXXXXXXXXXXXXXXXXXXXXXXXXXXXXXXXXXXXXXXX....                ",
"                ....XXXXXXXXXXXXXXXXXXXXXXXXXXXXXXXXXXXXXXXXXXXXXXXXXXXXXXXXXXXX....                ",
"                ....XXXXXXXXXXXXXXXXXXXXXXXXXXXXXXXXXXXXXXXXXXXXXXXXXXXXXXXXXXXX....                ",
"                    ............................................................                    ",
"                    ............................................................                    ",
"                    ............................................................                    ",
"                    ............................................................                    ",
"                    ............................................................                    ",
"                    ............................................................                    ",
"                    ............................................................                    ",
"                                                                                                    ",
"                                                                                                    ",
"                                                                                                    ",
"                                                                                                    ",
"                                                                                                    ",
"                                                                                                    ",
"                                                                                                    ",
"                                                                                                    ",
"                                                                                                    "
};
