/* XPM */
static char *_882f40a159546a2f05a6607e43bb45eY5tdrMMhxqjPHF4Y[] = {
/* columns rows colors chars-per-pixel */
"50 50 7 1 ",
"  c None",
". c #0A60C2",
"X c #3C83CF",
"o c #2DB0FA",
"O c #1CCAFF",
"+ c #2EE3FF",
"@ c #94E6FF",
/* pixels */
"                                                  ",
"                                                  ",
"                                                  ",
"                                                  ",
"                                                  ",
"                                                  ",
"                                                  ",
"                                                  ",
"                                                  ",
"                                                  ",
"                                                  ",
"                                                  ",
"                                                  ",
"                                                  ",
"                                                  ",
"                                                  ",
"                                                  ",
"                                                  ",
"                                                  ",
"                                                  ",
"                     OOOooooo                     ",
"                   OO@@@@@@@@oo                   ",
"                 oo@@+++++XXX@@oo                 ",
"                o@@++@@++++XXXX@@.                ",
"               o@+++@@@+++++++XXX@.               ",
"              o@X+++@@++++++++++XX@.              ",
"             o@X++@+++++++++++++@XX@.             ",
"             .@X++@++++++++++++++@X@.             ",
"            .@XX+++++..++++..++++@XX@.            ",
"            .@X++++++.X++++.X+++++@.@.            ",
"           .@XX++++++XX++++XX+++++@..@.           ",
"           .@XX+++++++++++++++++++@..@.           ",
"           .@X+++++++++++++++++++++@.@.           ",
"           .@XX++++++++++++++++++++@.@.           ",
"           .@.X+++@@@+++++++++@@@++++@.           ",
"           .@..@@@@XXXXXXXXXXXXX@@@@+@.           ",
"           .@.@@..XXXXXXXXXXXXXXX..@@@.           ",
"           .@@......XXXXXXXXXXX.....@@.           ",
"            .@......................@.            ",
"            .@@....................@@.            ",
"             .@@@@..............@@@@.             ",
"              ...@@@@@@@@@@@@@@@@...              ",
"                 ................                 ",
"                                                  ",
"                                                  ",
"                                                  ",
"                                                  ",
"                                                  ",
"                                                  ",
"                                                  "
};
