/* XPM */
static char *_14d9f939eaf419ab4076054e848666btJQLrAKBNm1OMTId[] = {
/* columns rows colors chars-per-pixel */
"100 100 5 1 ",
"  c None",
". c #0B8309",
"X c #38D209",
"o c #76FF03",
"O c #BAFF47",
/* pixels */
"                                                                                                    ",
"                                                                                                    ",
"                                                                                                    ",
"                                                                                                    ",
"                                                                                                    ",
"                                                                                                    ",
"                                                                                                    ",
"                                                                                                    ",
"                                                                                                    ",
"                                                                                                    ",
"                                                                                                    ",
"                                                                                                    ",
"                                                                                                    ",
"                                                                                                    ",
"                                                                                                    ",
"                                                                                                    ",
"                                                                                                    ",
"                                                                                                    ",
"                                                                                                    ",
"                                                                                                    ",
"                                                                                                    ",
"                                                                                                    ",
"                                                                                                    ",
"                                                                                                    ",
"                                                                                                    ",
"                                                                                                    ",
"                                                                                                    ",
"                                                                                                    ",
"                                                                                                    ",
"                                                                                                    ",
"                                  ................................                                  ",
"                                  ................................                                  ",
"                                  ................................                                  ",
"                                  ................................                                  ",
"                         .........OOOOOOOOOOOOOOOOOOOOOOOOOOOOOOOO.........                         ",
"                         .........OOOOOOOOOOOOOOOOOOOOOOOOOOOOOOOO.........                         ",
"                         .........OOOOOOOOOOOOOOOOOOOOOOOOOOOOOOOO.........                         ",
"                         .........OOOOOOOOOOOOOOOOOOOOOOOOOOOOOOOO.........                         ",
"                         .........OOOOOOOOOOOOOOOOOOOOOOOOOOOOOOOO.........                         ",
"                         .........OOOOOOOOOOOOOOOOOOOOOOOOOOOOOOOO.........                         ",
"                         .........OOOOOOOOOOOOOOOOOOOOOOOOOOOOOOOO.........                         ",
"                .........OOOOOOOOOooooooooooooooooooooooooooooooooOOOOOOOOO.........                ",
"                .........OOOOOOOOOooooooooooooooooooooooooooooooooOOOOOOOOO.........                ",
"                .........OOOOOOOOOooooooooooooooooooooooooooooooooOOOOOOOOO.........                ",
"                .........OOOOOOOOOooooooooooooooooooooooooooooooooOOOOOOOOO.........                ",
"         .......oooooooooXXXXXXXXXXXXXXXXXXXXXXXXXXXXXXXXXXXXXXXXXoooooooooOOOOOOOOO.......         ",
"         .......oooooooooXXXXXXXXXXXXXXXXXXXXXXXXXXXXXXXXXXXXXXXXXoooooooooOOOOOOOOO.......         ",
"         .......oooooooooXXXXXXXXXXXXXXXXXXXXXXXXXXXXXXXXXXXXXXXXXoooooooooOOOOOOOOO.......         ",
"         .......oooooooooXXXXXXXXXXXXXXXXXXXXXXXXXXXXXXXXXXXXXXXXXoooooooooOOOOOOOOO.......         ",
"         .......oooooooooXXXXXXXXXXXXXXXXXXXXXXXXXXXXXXXXXXXXXXXXXoooooooooOOOOOOOOO.......         ",
"     ....XXXXXXXXXXXXXXXXXXXXXXXXX.......XXXXXXXXXXXXXXXXXX.......XXXXXXXXXoooooooooOOOOOOO....     ",
"     ....XXXXXXXXXXXXXXXXXXXXXXXXX.......XXXXXXXXXXXXXXXXXX.......XXXXXXXXXoooooooooOOOOOOO....     ",
"     ....XXXXXXXXXXXXXXXXXXXXXXXXX.......XXXXXXXXXXXXXXXXXX.......XXXXXXXXXoooooooooOOOOOOO....     ",
"     ....XXXXXXXXXXXXXXXXXXXXXXXXX.......XXXXXXXXXXXXXXXXXX.......XXXXXXXXXoooooooooOOOOOOO....     ",
"     ....XXXXXXXXXXXXXXXXXXXXXXXXX.......XXXXXXXXXXXXXXXXXX.......XXXXXXXXXoooooooooOOOOOOO....     ",
".....XXXXXXXXXXXXXXXXXXXXXXXXXXXXX.......XXXXXXXXXXXXXXXXXX.......XXXXXXXXXXXXXXXXXXoooooooOOOO.....",
".....XXXXXXXXXXXXXXXXXXXXXXXXXXXXX.......XXXXXXXXXXXXXXXXXX.......XXXXXXXXXXXXXXXXXXoooooooOOOO.....",
".....XXXXXXXXXXXXXXXXXXXXXXXXXXXXX.......XXXXXXXXXXXXXXXXXX.......XXXXXXXXXXXXXXXXXXoooooooOOOO.....",
".....XXXXXXXXXXXXXXXXXXXXXXXXXXXXX.......XXXXXXXXXXXXXXXXXX.......XXXXXXXXXXXXXXXXXXoooooooOOOO.....",
".....XXXXXXXXXXXXXXXXXXXXXXXXXXXXXXXXXXXXXXXXXXXXXXXXXXXXXXXXXXXXXXXXXXXXXXXXXXXXXXXoooooooOOOO.....",
".....XXXXXXXXXXXXXXXXXXXXXXXXXXXXXXXXXXXXXXXXXXXXXXXXXXXXXXXXXXXXXXXXXXXXXXXXXXXXXXXoooooooOOOO.....",
".....XXXXXXXXXXXXXXXXXXXXXXXXXXXXXXXXXXXXXXXXXXXXXXXXXXXXXXXXXXXXXXXXXXXXXXXXXXXXXXXoooooooOOOO.....",
".....XXXXXXXXXXXXXXXXXXXXXXXXXXXXXXXXXXXXXXXXXXXXXXXXXXXXXXXXXXXXXXXXXXXXXXXXXXXXXXXoooooooOOOO.....",
".....XXXXXXXXXXXXXXXXXXXXXXXXXXXXXXXXXXXXXXXXXXXXXXXXXXXXXXXXXXXXXXXXXXXXXXXXXXXXXXXoooooooOOOO.....",
".....XXXXXXXXXXXXXXXXXXXXXXXXXXXXXXXXXXXXXXXXXXXXXXXXXXXXXXXXXXXXXXXXXXXXXXXXXXXXXXXoooooooOOOO.....",
".....XXXXXXXXXXXXXXXXXXXXXXXXXXXXXXXXXXXXXXXXXXXXXXXXXXXXXXXXXXXXXXXXXXXXXXXXXXXXXXXoooooooOOOO.....",
".....XXXXXXXXXXXXXXXXXXXXXXXXXXXXXXXXXXXX....XXXXXXXXXX....XXXXXXXXXXXXXXXXXXXXXXXXXoooooooOOOO.....",
".....XXXXXXXXXXXXXXXXXXXXXXXXXXXXXXXXXXXX....XXXXXXXXXX....XXXXXXXXXXXXXXXXXXXXXXXXXoooooooOOOO.....",
".....XXXXXXXXXXXXXXXXXXXXXXXXXXXXXXXXXXXX....XXXXXXXXXX....XXXXXXXXXXXXXXXXXXXXXXXXXoooooooOOOO.....",
".....XXXXXXXXXXXXXXXXXXXXXXXXXXXXXXXXXXXX....XXXXXXXXXX....XXXXXXXXXXXXXXXXXXXXXXXXXoooooooOOOO.....",
".....XXXXXXXXXXXXXXXXXXXXXXXXXXXXXXXXXXXXXXXX..........XXXXXXXXXXXXXXXXXXXXXXXXXXXXXXXXXXXXoooo.....",
".....XXXXXXXXXXXXXXXXXXXXXXXXXXXXXXXXXXXXXXXX..........XXXXXXXXXXXXXXXXXXXXXXXXXXXXXXXXXXXXoooo.....",
".....XXXXXXXXXXXXXXXXXXXXXXXXXXXXXXXXXXXXXXXX..........XXXXXXXXXXXXXXXXXXXXXXXXXXXXXXXXXXXXoooo.....",
".....XXXXXXXXXXXXXXXXXXXXXXXXXXXXXXXXXXXXXXXX..........XXXXXXXXXXXXXXXXXXXXXXXXXXXXXXXXXXXXoooo.....",
".....XXXXXXXXXXXXXXXXXXXXXXXXXXXXXXXXXXXXXXXX..........XXXXXXXXXXXXXXXXXXXXXXXXXXXXXXXXXXXXoooo.....",
"     ....XXXXXXXXXXXXXXXXXXXXXXXXXXXXXXXXXXXXXXXXXXXXXXXXXXXXXXXXXXXXXXXXXXXXXXXXXXXXXXXXXX....     ",
"     ....XXXXXXXXXXXXXXXXXXXXXXXXXXXXXXXXXXXXXXXXXXXXXXXXXXXXXXXXXXXXXXXXXXXXXXXXXXXXXXXXXX....     ",
"     ....XXXXXXXXXXXXXXXXXXXXXXXXXXXXXXXXXXXXXXXXXXXXXXXXXXXXXXXXXXXXXXXXXXXXXXXXXXXXXXXXXX....     ",
"     ....XXXXXXXXXXXXXXXXXXXXXXXXXXXXXXXXXXXXXXXXXXXXXXXXXXXXXXXXXXXXXXXXXXXXXXXXXXXXXXXXXX....     ",
"     ....XXXXXXXXXXXXXXXXXXXXXXXXXXXXXXXXXXXXXXXXXXXXXXXXXXXXXXXXXXXXXXXXXXXXXXXXXXXXXXXXXX....     ",
"         .......XXXXXXXXXXXXXXXXXXXXXXXXXXXXXXXXXXXXXXXXXXXXXXXXXXXXXXXXXXXXXXXXXXXX.......         ",
"         .......XXXXXXXXXXXXXXXXXXXXXXXXXXXXXXXXXXXXXXXXXXXXXXXXXXXXXXXXXXXXXXXXXXXX.......         ",
"         .......XXXXXXXXXXXXXXXXXXXXXXXXXXXXXXXXXXXXXXXXXXXXXXXXXXXXXXXXXXXXXXXXXXXX.......         ",
"         .......XXXXXXXXXXXXXXXXXXXXXXXXXXXXXXXXXXXXXXXXXXXXXXXXXXXXXXXXXXXXXXXXXXXX.......         ",
"                ....................................................................                ",
"                ....................................................................                ",
"                ....................................................................                ",
"                ....................................................................                ",
"                ....................................................................                ",
"                ....................................................................                ",
"                ....................................................................                ",
"                                                                                                    ",
"                                                                                                    ",
"                                                                                                    ",
"                                                                                                    ",
"                                                                                                    ",
"                                                                                                    ",
"                                                                                                    ",
"                                                                                                    ",
"                                                                                                    "
};
