/* XPM */
static char *_2f2bbaab4e14cc987b5ec93c29d559dtUFRBtN3IobPu2pG[] = {
/* columns rows colors chars-per-pixel */
"50 50 7 1 ",
"  c None",
". c #0A60C2",
"X c #3C83CF",
"o c #1CCAFF",
"O c #2EE3FF",
"+ c #60D4F7",
"@ c #94E6FF",
/* pixels */
"                                                  ",
"                                                  ",
"                                                  ",
"                                                  ",
"                                                  ",
"                                                  ",
"                                                  ",
"                                                  ",
"                                                  ",
"                                                  ",
"                                                  ",
"                                                  ",
"                                                  ",
"                                                  ",
"                                                  ",
"                     +++ooooo                     ",
"                   ++@@@@@@@@oo                   ",
"                 oo@@OOOOO...@@oo                 ",
"                o@@OO@@OOOOO...@@.                ",
"               o@OOO@@@OOOOOOO...@.               ",
"              o@XOOO@@OOOOOOOOO...@.              ",
"             o@XOO@OOOOOOOOOOOOO...@.             ",
"             .@XOO@OOOOOOOOOOOOO@..@.             ",
"            .@XXOOOOO..OOOO..OOOO@..@.            ",
"            .@XOOOOOO.XOOOO.XOOOO@..@.            ",
"           .@XXOOOOOOXXOOOOXXOOOOO@..@.           ",
"           .@XXOOOOOOOOOOOOOOOOOOO@..@.           ",
"           .@XXOOOOOOOOOOOOOOOOOOOO@.@.           ",
"           .@XXOOOOOOOOOOOOOOOOOOOO@.@.           ",
"           .@X.OOOOOOOOOOOOOOOOOOOO@.@.           ",
"           .@.....@@@OOOOOOO@@@@OOOOO@.           ",
"           .@...@@@XXXXXXXXXXX@@@@OOO@.           ",
"           .@.@@@XXXXXXXXXXXXXXX@@@OO@.           ",
"           .@@@...XXXXXXXXXXXXX....@@@.           ",
"            .@.......XXXXXXX........@.            ",
"            .@......................@.            ",
"             .@@.................@@@.             ",
"              ..@@@...........@@@@..              ",
"                ...@@@@@@@@@@@@...                ",
"                   ............                   ",
"                                                  ",
"                                                  ",
"                                                  ",
"                                                  ",
"                                                  ",
"                                                  ",
"                                                  ",
"                                                  ",
"                                                  ",
"                                                  "
};
