/* XPM */
static char *_472cee88a12403bf334d48fd2f69f97xvJgPVwxZQNPxslD[] = {
/* columns rows colors chars-per-pixel */
"100 100 5 1 ",
"  c None",
". c #5C0499",
"X c #8409DA",
"o c #980BFC",
"O c #B062F3",
/* pixels */
"                                                                                                    ",
"                                                                                                    ",
"                                                                                                    ",
"                                                                                                    ",
"                                                                                                    ",
"                                                                                                    ",
"                                                                                                    ",
"                                                                                                    ",
"                                                                                                    ",
"                                                                                                    ",
"                                                                                                    ",
"                                                                                                    ",
"                                                                                                    ",
"                                                                                                    ",
"                                                                                                    ",
"                                                                                                    ",
"                                                                                                    ",
"                                                                                                    ",
"                                                                                                    ",
"                                                                                                    ",
"                                                                                                    ",
"                                                                                                    ",
"                                                                                                    ",
"                                                                                                    ",
"                                                                                                    ",
"                                                                                                    ",
"                                                                                                    ",
"                                                                                                    ",
"                                                                                                    ",
"                                                                                                    ",
"                                                                                                    ",
"                                                                                                    ",
"                                                                                                    ",
"                                                                                                    ",
"                                                                                                    ",
"                                   ooooooooooooooo                                                  ",
"                                   ooooooooooooooo                                                  ",
"                                   ooooooooooooooo                                                  ",
"                                   ooooooooooooooo                                                  ",
"                                   ooooooooooooooo                                                  ",
"                                   oooooXXXXXXXXXXooooo     OOOOO                                   ",
"                                   oooooXXXXXXXXXXooooo     OOOOO                                   ",
"                                   oooooXXXXXXXXXXooooo     OOOOO                                   ",
"                                   oooooXXXXXXXXXXooooo     OOOOO                                   ",
"                                   oooooXXXXXXXXXXooooo     OOOOO                                   ",
"                              oooooXXXXXXXXXXoooooXXXXX     OOOOOOOOOO                              ",
"                              oooooXXXXXXXXXXoooooXXXXX     OOOOOOOOOO                              ",
"                              oooooXXXXXXXXXXoooooXXXXX     OOOOOOOOOO                              ",
"                              oooooXXXXXXXXXXoooooXXXXX     OOOOOOOOOO                              ",
"                              oooooXXXXXXXXXXoooooXXXXX     OOOOOOOOOO                              ",
"                              oooooXXXXXXXXXXXXXXX.....OOOOOOOOOO                                   ",
"                              oooooXXXXXXXXXXXXXXX.....OOOOOOOOOO                                   ",
"                              oooooXXXXXXXXXXXXXXX.....OOOOOOOOOO                                   ",
"                              oooooXXXXXXXXXXXXXXX.....OOOOOOOOOO                                   ",
"                              oooooXXXXXXXXXXXXXXX.....OOOOOOOOOO                                   ",
"                                   oooooooooo.....OOOOOOOOOO                                        ",
"                                   oooooooooo.....OOOOOOOOOO                                        ",
"                                   oooooooooo.....OOOOOOOOOO                                        ",
"                                   oooooooooo.....OOOOOOOOOO                                        ",
"                                   oooooooooo.....OOOOOOOOOO                                        ",
"                                                                                                    ",
"                                                                                                    ",
"                                                                                                    ",
"                                                                                                    ",
"                                                                                                    ",
"                                                                                                    ",
"                                                                                                    ",
"                                                                                                    ",
"                                                                                                    ",
"                                                                                                    ",
"                                                                                                    ",
"                                                                                                    ",
"                                                                                                    ",
"                                                                                                    ",
"                                                                                                    ",
"                                                                                                    ",
"                                                                                                    ",
"                                                                                                    ",
"                                                                                                    ",
"                                                                                                    ",
"                                                                                                    ",
"                                                                                                    ",
"                                                                                                    ",
"                                                                                                    ",
"                                                                                                    ",
"                                                                                                    ",
"                                                                                                    ",
"                                                                                                    ",
"                                                                                                    ",
"                                                                                                    ",
"                                                                                                    ",
"                                                                                                    ",
"                                                                                                    ",
"                                                                                                    ",
"                                                                                                    ",
"                                                                                                    ",
"                                                                                                    ",
"                                                                                                    ",
"                                                                                                    ",
"                                                                                                    "
};
