/* XPM */
static char *bdbf72081e27486f975b7472359bed98z7qnnzBiiDnJ61SQ[] = {
/* columns rows colors chars-per-pixel */
"50 50 5 1 ",
"  c None",
". c #5C0499",
"X c #8409DA",
"o c #980BFC",
"O c #B062F3",
/* pixels */
"                                                  ",
"                                                  ",
"                                                  ",
"                                                  ",
"                                                  ",
"                                                  ",
"                                                  ",
"                                                  ",
"                                                  ",
"                                                  ",
"                                                  ",
"                                                  ",
"                                                  ",
"                                                  ",
"                                                  ",
"                                                  ",
"                                                  ",
"                                                  ",
"                  ooooooo                         ",
"                 oooXXXXooo    O  O               ",
"                 ooXXXXXXoo    O O                ",
"                ooXXooooXXoo   OO                 ",
"                ooXooXXooXXo   OOO                ",
"               ooXXooXXooXXX   OOOO               ",
"               oXXooX.XXX.XX  OOOOOO              ",
"               ooXoXX....XX. OOOOO                ",
"               oooXXXXX.XX..OOOOO                 ",
"               oooo.XXXXX...OOOO                  ",
"              OOoooo......OOOOO                   ",
"             OOOOOooooo..OOOOO                    ",
"                                                  ",
"                                                  ",
"                                                  ",
"                                                  ",
"                                                  ",
"                                                  ",
"                                                  ",
"                                                  ",
"                                                  ",
"                                                  ",
"                                                  ",
"                                                  ",
"                                                  ",
"                                                  ",
"                                                  ",
"                                                  ",
"                                                  ",
"                                                  ",
"                                                  ",
"                                                  "
};
