/* XPM */
static char *_f85b0efe3cd41cadc4e140484a572edI84xwbKj1uSAD9hE[] = {
/* columns rows colors chars-per-pixel */
"100 100 30 1 ",
"  c None",
". c #5C1E1C",
"X c #750D10",
"o c #317545",
"O c #357C43",
"+ c #367E43",
"@ c #357C44",
"# c #3F8B42",
"$ c #428F42",
"% c #479243",
"& c #4C9545",
"* c #509846",
"= c #589947",
"- c #5E9F47",
"; c #61A048",
": c #60A148",
"> c #62A248",
", c #64A249",
"< c #68A649",
"1 c #69A74A",
"2 c #6BA74A",
"3 c #6CA74A",
"4 c #6DA74B",
"5 c #6CA84A",
"6 c #6DA84A",
"7 c #6DA94A",
"8 c #6DA84B",
"9 c #6EA84A",
"0 c #6EA94A",
"q c #6DAA4B",
/* pixels */
"          qqqqqqqqqqqqqqq000999277799992&&&&&&&&&&>>>>>40499$$$$$99999$$$$$-----$$$$$%%%%%          ",
"          qqqqqqqqqqqqqqq000999977722797&&&&&&&&&&>>>>>04099$$$$$99999$$$$$-----$$$$$%%%%%          ",
"          0qqqqqqqqqqqqq0000040077797292&&&&&&&&&&>>>>>09999$$$$$99999$$$$$-----$$$$$%%%%%          ",
"          qqqqqqqqqqqqqqq000405077799997&&&&&&&&&&>>>>>09999$$$$$99999$$$$$-----$$$$$%%%%%          ",
"          qqqqqq00qq0000q040400077799279&&&&&&&&&&>>>>>00404$$$$$99999$$$$$-----$$$$$%%%%%          ",
"     0000000000000000000000000049999999999999999997707004040999999999999999$$$$$-----$$$$$$$$$$     ",
"     0000000000000000000000000409999999999999999997700000404999999999999999$$$$$-----$$$$$$$$$$     ",
"     0000000000000000000000000049999999999999999997700004040999999999999999$$$$$-----$$$$$$$$$$     ",
"     0000000000000000000000077999999999999999999999900040404040499999999999$$$$$-----$$$$$$$$$$     ",
"     0000000000000000000000777999999999999999999999900004040404099999999999$$$$$-----$$$$$$$$$$     ",
"     000000099409999999999999999999999999999999999990499040499999999999999999999-----$$$$$$$$$$$$$$$",
"     000000494049999999999999999999999999999999999999999404099999999999999999999-----$$$$$$$$$$$$$$$",
"     000999999999999999999999999999999999999999999999999999999999999999999999999-----$$$$$$$$$$$$$$$",
"     000999999999999999999999999999999999999999999999999999999999999999999999999-----$$$$$$$$$$$$$$$",
"     000909999999999999999999999999999999999999999999999999999999999999999999999-----$$$$$$$$$$$$$$$",
"$%#%%9999999999999999999999999999999999999999999999999999999999999999999999$$$$$$$$$$$$$$$$$$$$$$$$$",
"$$$$$4049999999999999999999999999999999999999999999999999999999999999999999$$$$$$$$$$$$$$$$$$$$$$$$$",
"$$$$$0409999999999999999999999999999999999999999999999999999999999999999999$$$$$$$$$$$$$$$$$$$$$$$$$",
"$$$$$9049999999999999999999999999999999999999999999999999999999999999999999$$$$$$$$$$$$$$$$$$$$$$$$$",
"$$$$$9409999999999999999999999999999999999999999999999999999999999999999999$$$$$$$$$$$$$$$$$$$$$$$$$",
"9999999999999999999999999999999999999999999999999999999$$$$$$$$$$99904$$$$$%%%%%$$$$$$$$$$$$$$$$$$$$",
"9999999999999999999999999999999999999999999999999999999$$$$$$$$$$99944$$$$$%%%%%$$$$$$$$$$$$$$$$$$$$",
"9999999999999999999999999999999999999999999999999999999$$$$$$$$$$99999$$$$$%%%%%$$$$$$$$$$$$$$$$$$$$",
"9999999999999999999999999999999999999999999999999999999$$$$$$$$$$99999$$$$$%%%%%$$$$$$$$$$$$$$$$$$$$",
"9999999999999999999999999999999999999999999999999777777$$$%#%##%$40404$$$$$%%%%%$$$$$$$$$$$$$$$$$$$$",
"*****999999999999999999999999999999999999999999997&&&&&:>>:>-----;;;;,$$$$$$$$$$$$$$$$$$$$$$$$$$$$$$",
"*****999999999999999999999999999999999999999999999&&&&&:>->------;;;;;$$$$$$$$$$$$$$$$$$$$$$$$$$$$$$",
"*****999999999999999999999999999999999999999999999&&&&&:->->-----;;;;;$$$$$$$$$$$$$$$$$$$$$$$$$$$$$$",
"*****999999999999999999999999999999999994999999999*&&&&:::::-----;;;;-$$$$$$$$$$$$$$$$$$$$$$$$$$$$$$",
"*****999999999999999999999999999999999990499999999&&&&&:::::-----;;;;,$$$$$$$$$$$$$$$$$$$$$$$$$$$$$$",
"92229<<<<<99999999999999999999999999999944440,,,>>$$$$$$$$$$$$##$%%%%%$$$$$----------$$$$$$$$$$$$$$$",
"99922<<<<<99999999999999999999999999999944440,,,>>$$$$$$$$$$$$$%$%%%%%$$$$$----------$$$$$$$$$$$$$$$",
"72722<<<2299999999999999999999999949999944444,,,,,%#$$$$$$$$$$$$$%%%%%$$$$$----------$$$$$$$$$$$$$$$",
"27277<<<>>99999999999999999999999904999944444,,,,,#%$$$$$$$$$$$$$%%%%%$$$$$----------$$$$$$$$$$$$$$$",
"727222<<22999999999999999999999999909999qq5q4,,,,,#%$$$$$$$$$$$$$%%%%%$$$$$----------$$$$$$$$$$$$$$$",
"<<<<<27292999999299729979929999499942333&&&&&2,5<<5540442242-----$$$$$$$$$$$$$$$$$$$$#####$$$$$$$$$$",
"<<<<<92999999999727992722299404099922222&&&&&1<5<15050023333-----$$$$$$$$$$$$$$$$$$$$#####$$$$$$$$$$",
"<<<<<97929999999992997999992020499922222&&&&&1<<110505423333-----$$$$$$$$$$$$$$$$$$$$#####$$$$$$$$$$",
"<<<<<79797999999997992999992404099922222&&&&&1<<11q050423333-----$$$$$$$$$$$$$$$$$$$$#####$$$$$$$$$$",
"<<<<<29292999999272997272299040099922222&&&&&15<11q502023333-----$$$$$$$$$$$$$$$$$$$$#####$$$$$$$$$$",
"$$$$$9999999999979992<5<<0q9275q040444qq4402299999<<<<2$$$$$$$$$$$$$$$$$$$$#####$$$$$$$$$$$$$$$$$$$$",
"$$$$$7999999999999992<1<222999054020q4444040992922<<<<2$$$$$$$$$$$$$$$$$$$$#####$$$$$$$$$$$$$$$$$$$$",
"$$$$$9999999999999991111<72929504404q4440202929299<<<<>$$$$$$$$$$$$$$$$$$$$#####$$$$$$$$$$$$$$$$$$$$",
"$$$$$999999999999999111129797905qq2044qq4040929992<<<<2$$$$$$$$$$$$$$$$$$$$#####$$$$$$$$$$$$$$$$$$$$",
"$$$$$9999999999994041<5<2927299944q44q440204020492<<2>2$$$$$$$$$$$$$$$$$$$$#####$$$$$$$$$$$$$$$$$$$$",
"9999999999999999904000009-----$$$$$$$$$$$$$$$$$$$$$$$$$$$$$$#####$$$$$##########$$$$$+++++$$$$$$$$$$",
"9999999999999999990400009-----$$$$$$$$$$$$$$$$$$$$$$$$$$$$$$#####$$$$$##########$$$$$+++++$$$$$$$$$$",
"9999999999999999994040007-----$$$$$$$$$$$$$$$$$$$$$$$$$$$$$$#####$$$$$##########$$$$$+++++$$$$$$$$$$",
"9999999999999999999999999-----$$$$$$$$$$$$$$$$$$$$$$$$$$$$$$#####$$$$$##########$$$$$+++++$$$$$$$$$$",
"9999999999999999999999999-----$$$$$$$$$$$$$$$$$$$$$$$$$$$$$$#####$$$$$##########$$$$$+++++$$$$$$$$$$",
"$$$$$999999999999999$$$$$$$$$$$$$$$$$$$$$$$$$$$$$$#####$$$$$$$$$$$$$$$$$$$$+++++$$$$$$$$$$$$$$$$$$$$",
"$$$$$999999999999999$$$$$$$$$$$$$$$$$$$$$$$$$$$$$$#####$$$$$$$$$$$$$$$$$$$$+++++$$$$$$$$$$$$$$$$$$$$",
"$$$$$999999999999999$$$$$$$$$$$$$$$$$$$$$$$$$$$$$$#####$$$$$$$$$$$$$$$$$$$$+++++$$$$$$$$$$$$$$$$$$$$",
"$$$$$999999999999999$$$$$$$$$$$$$$$$$$$$$$$$$$$$$$#####$$$$$$$$$$$$$$$$$$$$+++++$$$$$$$$$$$$$$$$$$$$",
"$$$$$999999999999997$$$$$$$$$$$$$$$$$$$$$$$$$$$$$$#####$$$$$$$$$$$$$$$$$$$$+++++$$$$$$$$$$$$$$$$$$$$",
"$$$$$$$$$$99999$$$$$%%%%%$$$$$$$$$$$$$$$$$$$$##########$$$$$+++++$$$$$+++++#####$$$$$ooooo$$$$$+++++",
"$$$$$$$$$$99999$$$$$%%%%%$$$$$$$$$$$$$$$$$$$$##########$$$$$+++++$$$$$+++++#####$$$$$ooooo$$$$$+++++",
"$$$$$$$$$$99999$$$$$%%%%%$$$$$$$$$$$$$$$$$$$$##########$$$$$+++++$$$$$+++++#####$$$$$ooooo$$$$$+++++",
"$$$$$$$$$$99999$$$$$%%%%%$$$$$$$$$$$$$$$$$$$$##########$$$$$+++++$$$$$+++++#####$$$$$ooooo$$$$$+++++",
"$$$$$$$$$$99999$$$$$%%%%%$$$$$$$$$$$$$$$$$$$$##########$$$$$+++++$$$$$+++++#####$$$$$ooooo$$$$$+++++",
"----------;;>->$$$$$$$$$$$$$$$$$$$$#####$$$$$$$$$$+++++$$$$$$$$$$$$$$$$$$$$$$$$$ooooooooooooooo$$$$$",
"----------;;>>-$$$$$$$$$$$$$$$$$$$$#####$$$$$$$$$$+++++$$$$$$$$$$$$$$$$$$$$$$$$$ooooooooooooooo$$$$$",
"----------;;;>>$$$$$$$$$$$$$$$$$$$$#####$$$$$$$$$$+++++$$$$$$$$$$$$$$$$$$$$$$$$$ooooooooooooooo$$$$$",
"----------;;;--$$$$$$$$$$$$$$$$$$$$#####$$$$$$$$$$+++++$$$$$$$$$$$$$$$$$$$$$$$$$ooooooooooooooo$$$$$",
"----------,-,-,$$$$$$$$$$$$$$$$$$$$#####$$$$$$$$$$+++++$$$$$$$$$$$$$$$$$$$$$$$$$ooooooooooooooo$$$$$",
"$$$$$$$$$$%%%%%$$$$$-----=====$$$$$$$$$$$$$$$+++++$$$$$$$$$$ooooo$$$$$+++++ooooooooooooooooooooooooo",
"$$$$$$$$$$%%%%%$$$$$-----=====$$$$$$$$$$$$$$$+++++$$$$$$$$$$ooooo$$$$$+++++ooooooooooooooooooooooooo",
"$$$$$$$$$$%%%%%$$$$$-----=====$$$$$$$$$$$$$$$+++++$$$$$$$$$$ooooo$$$$$+++++ooooooooooooooooooooooooo",
"$$$$$$$$$$%%%%%$$$$$-----=====$$$$$$$$$$$$$$$+++++$$$$$$$$$$ooooo$$$$$+++++ooooooooooooooooooooooooo",
"$$$$$$$$$$%%%%%$$$$$-----=====$$$$$$$$$$$$$$$+++++$$$$$$$$$$ooooo$$$$$+++++ooooooooooooooooooooooooo",
"$$$$$$$$$$$$$$$$$$$$$#########$$$$$+++++$$$$$$$$$$#####ooooooooooooooo#####+++++ooooooooooooooo$$$$$",
"$$$$$$$$$$$$$$$$$$$$##########$$$$$+++++$$$$$$$$$$#####ooooooooooooooo#####+++++ooooooooooooooo$$$$$",
"$$$$$$$$$$$$$$$$$$$$##########$$$$$+++++$$$$$$$$$$#####ooooooooooooooo#####+++++ooooooooooooooo$$$$$",
"$$$$$$$$$$$$$$$$$$$$##########$$$$$+++++$$$$$$$$$$#####ooooooooooooooo#####+++++ooooooooooooooo$$$$$",
"$$$$$$$$$$$$$$$$$$$$#######$##$$$$$+++++$$$$$$$$$$#####ooooooooooooooo#####+++++ooooooooooooooo$$$$$",
"     $$$$$$$$$$$$$$$$$$$$OOOOO$$$$$$$$$$$$$$$$$$$$ooooooooooooooooooooooooo+++++$$$$$ooooo$$$$$#####",
"     $$$$$$$$$$$$$$$$$$$$O#OO+%$$$$$$$$$$$$$$$$$$$ooooooooooooooooooooooooo+++++$$$$$ooooo$$$$$#####",
"     $$$$$$$$$$$$$$$$$$$$OoOO+$$$$$$$$$$$$$$$$$$$$ooooooooooooooooooooooooo+++++$$$$$ooooo$$$$$#####",
"     $$$$$$$$$$$$$$$$$$$$##o#O$$$$$$$$$$$$$$$$$$$$ooooooooooooooooooooooooo+++++$$$$$ooooo$$$$$#####",
"     $$$$$$$$$$$$$$$$$$$#oOOoO$$$$$$$$$$$$$$$$$$$$ooooooooooooooooooooooooo+++++$$$$$ooooo$$$$$#####",
"               %$$$$+++++$$$$$$$%#%ooooo####$OOOOo.....ooooooooooooooo$$$$$+++++++++O@@@@@#%##%     ",
"               #$$$$+++++$$$$$$$####oooo###%$OOOO#.....ooooooooooooooo$$$$$+++++++++O@@@@@#%#%%     ",
"               %$$$$+++++$$$$$$$#%#ooooo$$%##OooOO.....ooooooooooooooo$$$$$+++++++++o@@@@@###%#     ",
"               %$$$$+++++$$$$$$$###ooooo$%#%#OO#OO.....ooooooooooooooo$$$$$+++++++++#@@@@@#%##%     ",
"               #$$$$#o+++$$$$$$$###ooooo$$$$$##oOO.....OoOoooooooooooo$$$$$++++++++++##o###%%%#     ",
"               %$$$$$#$$$$$$$$oooo#ooooo...............$##%#ooooo$$$$$#####$$$$$$$$$#               ",
"               %$$$$$$$$$$$$$$oooooooooo...............$$$##ooooo$$$$$#####$$$$$$$$$#               ",
"               #$$$$$$$$$$$$$$oooooooooo...............$$%#%ooooo$$$$$#####$$$$$$$$$#               ",
"               %##%###%#$$%##%oooooooooo...............#%#%%ooooo$$$$$#####$$$$$$$$$$               ",
"               %%%#%%%#%$$#%%#oooooooooo...............##%##ooooo$$$$$#####$$$$$$$$$$               ",
"                         XXXXXXXXXXXXXXXXXXXXXXXXX.........................                         ",
"                         XXXXXXXXXXXXXXXXXXXXXXXXX.........................                         ",
"                         XXXXXXXXXXXXXXXXXXXXXXXXX.........................                         ",
"                         XXXXXXXXXXXXXXXXXXXXXXXXX.........................                         ",
"                         XXXXXXXXXXXXXXXXXXXXXXXXX.........................                         ",
"                    .....XXXXXXXXXXXXXXXXXXXXXXXXXXXXXXXXXXXXXXXXXXXXX..........                    ",
"                    .....XXXXXXXXXXXXXXXXXXXXXXXXXXXXXXXXXXXXXXXXXXXXX..........                    ",
"                    .....XXXXXXXXXXXXXXXXXXXXXXXXXXXXXXXXXXXXXXXXXXXXX..........                    ",
"                    .....XXXXXXXXXXXXXXXXXXXXXXXXXXXXXXXXXXXXXXXXXXXXX..........                    ",
"                    .....XXXXXXXXXXXXXXXXXXXXXXXXXXXXXXXXXXXXXXXXXXXXX..........                    "
};
