/* XPM */
static char *_42530797c2e4296fc16ef5ba42e6c1f3U4HefcIu6tkhJdx[] = {
/* columns rows colors chars-per-pixel */
"50 50 31 1 ",
"  c None",
". c #5C1E1C",
"X c #750D10",
"o c #317545",
"O c #357C43",
"+ c #367E43",
"@ c #357C44",
"# c #3F8B42",
"$ c #428F42",
"% c #479243",
"& c #4C9545",
"* c #509846",
"= c #589947",
"- c #5E9F47",
"; c #61A048",
": c #60A148",
"> c #62A248",
", c #64A249",
"< c #68A649",
"1 c #69A74A",
"2 c #6BA74A",
"3 c #6CA74A",
"4 c #6DA74B",
"5 c #6CA84A",
"6 c #6DA84A",
"7 c #6DA94A",
"8 c #6DA84B",
"9 c #6EA84A",
"0 c #6EA94A",
"q c #6DAA4B",
"w c #6DA84C",
/* pixels */
"   wwwqqqqqqq9900055&&&&&>>>99$$$99$$$--$$$%%$$$  ",
"   ww0qqqqqqq9500055&&&&&>>>99$$999$$$--$$%%%$$$  ",
"   wwqqqqqqqq9900055&&&&&>>>00$$999$$$;-$$%%%$$$ $",
"00000000000000099999999990000099999999$$--$$$$$$$$",
"00000000990099999999999999990040999999$$--$$$$$$$$",
"0000000099999999999999999999040499999999--$$$$$$$$",
"0000040499999999999999999999994999999999--$$$$$$$$",
"0000004099999999999999999999999999999999--$$$$$$$$",
"$$$09999999999999999999999999999999999$$$$$$$$$$$$",
"$$$49999999999999999999999999999999999$$$$$$$$$$$$",
"9999999999999999999999999999$$$$994$$$%%$$$$$$$$$$",
"9999999999999999999999999999$$$$994$$$%%$$$$$$$$$$",
"9999999999999999999999994000$$$$404$$$%%$$$$$$$$$$",
"***5999999999999999999990&&*>>--;;>$$$$$$$$$$$$$$$",
"***5999999999999999999404&%%>----;,$$$$$$$$$$$$$$$",
"045<<999999999999999444,,$$$%$$$%%%$$$----$$$$$$$$",
"555<<999999999999999444,,$$$$$$$%%%$$$----$$$$$$$$",
"555<<999999999999999204,,$$$$$$$%%%$$$----$$$$$$$$",
"<<<55999595959559933&&&<202022--$$$$$$$$$$###$$$$$",
"<<<959999595954099<3&&&2<w0442--$$$$$$$$$$###$$$$$",
"$$$9999999<07354000204024<<<$$$$$$$$$$##$$$$$$$$$$",
"$$$999999922<55004w420400<<<$$$$$$$$$$##$$$$$$$$$$",
"$$$9999540<<7555404004024><<$$$$$$$$$$##$$$$$$$$$$",
"9999999404005--$$$$$$$$$%%$$$$##$$$#####$$+++$$$$$",
"9999999999999>-$$$$$$$$$#%$$$$##$$$#####$$+++$$$$$",
"$$$9999995$$$$$$$$$$$$$$$###$$$$$$$$$$++$$$$$$$$$$",
"$$$9999955$$$$$$$$$$$$$$$###$$$$$$$$$$++$$$$$$$$$$",
"$$$9999957$$$$$$$$$$$$$$$###$$$$$$$$$$++$$$$$$$$$$",
"$$$$$999$$%%$$$$$$$$$$$#####$$OO$$$+++##$$ooo$$$++",
"$$$$$999$$%%%$$$$$$$$$$#####$$o#$$$+++##$$ooo$$$++",
"-----;,;$$$$$$$$$$##$$$$$O#o$$$$$$$$$$$$oooooooo$$",
"-----;;;$$$$$$$$$$##$$$$$OOO$$$$$$$$$$$$oooooooo$$",
"-----;;;$$$$$$$$$$$#$$$$$+++$$$$$$$$$$$$oooooooo$$",
"$$$$$%%%$$---==$$$$$$$$++$$$$$oo$$$+++oooooooooooo",
"$$$$$%%%$$---==$$$$$$$$O+$$$$$oo$$$+++oooooooooooo",
"$$$$$$$$$$#####$$$++$$$$$###ooooooo###++oooooooo$$",
"$$$$$$$$$$#####$$$++$$$$$###ooooooo###++oooooooo$$",
"$$$$$$$$$$#####$$$++$$$$$###ooooooo###++oooooooo$$",
"$$$$$$$$$$$$$++$$$$$$$$$$ooooooooooooo++$$ooo$$$##",
"$$$$$$$$$$$$$++$$$$$$$$$$ooooooooooooo++$$ooo$$$##",
"$$$$$$$$$$+++$$$$$oo$$$O+...ooooooo$$$++++@@@$$$$$",
"$$$$$$$$$$+++$$$$$oo$$$OO...ooooooo$$$++++@@@$$$$$",
"$$$$$$$$$$+++$$$$$oo$$$OO...ooooooo$$$++++@@@$$$$$",
"   $$$$$$$$$$$$ooooo........$$oo$$$###$$$$###$$$  ",
"   $$$$$$$$$$$$ooooo........$$oo$$$###$$$$###$$$  ",
"             XXXXXXXXXXXX.............            ",
"             XXXXXXXXXXXX.............            ",
"             XXXXXXXXXXXX.............            ",
"          ...XXXXXXXXXXXXXXXXXXXXXX.....          ",
"          ...XXXXXXXXXXXXXXXXXXXXXX.....          "
};
