/* XPM */
static char *f64b40c25ea34abda6fd94a64e90ee71k6BdiQvhmcZEBtps[] = {
/* columns rows colors chars-per-pixel */
"100 100 63 1 ",
"  c #003D1C",
". c #045F18",
"X c gray30",
"o c #535352",
"O c #535353",
"+ c gray33",
"@ c #555554",
"# c #555555",
"$ c #565656",
"% c #575756",
"& c #585857",
"* c #595958",
"= c gray35",
"- c #5A5A59",
"; c #5B5B5A",
": c #5B5B5B",
"> c #5C5C5B",
", c #5E5E5D",
"< c #5F5F5E",
"1 c #60605E",
"2 c #61615F",
"3 c #616160",
"4 c #626261",
"5 c #636361",
"6 c #646462",
"7 c #656562",
"8 c #646463",
"9 c #656563",
"0 c #666663",
"q c #676765",
"w c #696967",
"e c #6A6A67",
"r c #6A6A68",
"t c #6B6B68",
"y c #6A6A69",
"u c #6B6B6A",
"i c #6C6C6A",
"p c #6D6D6A",
"a c #6D6D6B",
"s c #6E6E6B",
"d c #6D6D6C",
"f c #6E6E6C",
"g c #6F6F6D",
"h c #70706C",
"j c #70706D",
"k c #70706E",
"l c #71716E",
"z c #70706F",
"x c #71716F",
"c c #727270",
"v c #737370",
"b c #737371",
"n c #747472",
"m c #757572",
"M c #757573",
"N c #757574",
"B c #767674",
"V c #767675",
"C c #777775",
"Z c #787876",
"A c #787877",
"S c #7B7B79",
"D c #0B8309",
/* pixels */
"ooooorrrrrrrrrrXXXXXrrrrrrrrrrqqqqqqqqqqrrrrrrrrrriiiiitttttXXXXXXXXXXXXXXXiiiggiigiiknkgvnnnnnmmmmm",
"ooooorrrrrrrrrrXXXXXrrrrrrrrrrqqqqqqqqqqrrrrrrrrrriiiiitttttXXXXXXXXXXXXXXXigiiiigiigkkkvznnnnnmmmmm",
"ooooorrrrrrrrrrXXXXXrrrrrrrrrrqqqqqqqqqqrreerrrrrriiiiitttttXXXXXXXXXXXXXXXigiisiiggiknkvznnnnnnmmmm",
"ooooorrrrrrrrrrXXXXXrrrrrrrreeqqqqqqqqqqrrrerrrrrriiiiitttttXXXXXXXXXXXXXXXgiigigiiiinkkgvnnnnnnmmmm",
"ooooorrrrrrrrrrXXXXXrrrirrrrrreqqqqeqeqqtteettttrrtiiiittteiXXXXXXXXXXXXXXXiisisddddgkvkvznnNvNNmmnN",
"rrrrrrrrrr#####rrrrrXXXXX>>>>>>**>*535q3XXXXXq5qe5eeetettttriiirikknkkkhkkkXXXXXgzgzkggggg.....vvnnv",
"rrrrrrrrrr#####rrrrrXXXXX>>>>>>>>>>5q535XXXXX5q555teeeetttrirdriikxxxxhkkhkXXXXXvzzzvggggg.....nvnvn",
"rrrrrrrrrr#####rrrrrXXXXX>>>>>*>>*>5555qXXXXXqq5qqtteeetttiruririxxxxxkhhkhXXXXXzzzzggggdd.....vvvnv",
"rrrrrrrrrr#####errrrXXXXX>>>>>>>>>*qq555XXXXX5eeqqeeeeetttttirdrtkvkvgkkkhgXXXXXzzzzzggggg.....vnnvv",
"rrrrrrrrrr#####rrrrrXXXXX>>>>>***>>3535qXXXXXq5555eeeeetttttriuuikkvzvkkhkkXXXXXzzzzzggggg.....vvznv",
"++++#rrrrr#@@@#errrr****>11533qqqqeeeeeerrrrrrrrttihihihihihhhkkhgggggddssgggggiXXXXXgggggNnnnn.....",
"+++++rrrrr@@@@#rrrrr*>>*>13131qqqqqeeeeerrrrrrrrethihihihihihhhhhgggggdgigiggigiXXXXXgggggnnnnn.....",
"++++orrrrr@@@@@errrr>***&11113qqqqqeeeeerrrrrrrrerikihihhihihhhhhggggggigggisgsgXXXXXdggggnnnnn.....",
"++++#rrrre@#@@#rrrrr**>>>11533qqqqqeeeeerrrrrrrreehihihiihihhhhhhggggggggiggssgsXXXXXgggggnnnnn.....",
"++++#rrirr####@eerre*>>*>11533qqqqqeeeeerrrrrrrreeihihhhhihihkhhhhkkggiggsigssssXXXXXdgdgdNNnNn.....",
"rrrri#####*****#@@#@1>>1>&&&&&XXXXX&****11111XXXXXiiiiimxxmxidiiskkkkkggggkklxxlzvgvvNBNBNBBBBBnnnNN",
"rrrrr##&&+====&+##@@>3>1<*&&&&XXXXX*****11113XXXXXiiiiixxmxmhthiixxxxlgggggkllllzzvzzNNNNNVVVBBmnnmm",
"rrrrr#&#+&====:###@@>>3>>&&&&&XXXXX*****11111XXXXXiiiiixmxmxhthisxxxllggggkkllllvvgzvNNNNBVVVBBmmmmm",
"rrrrr&#&&+*:===+#@@@>>>>>*&&&&XXXXX*****11111XXXXXiitihxxmxmiiiiixkgllhkgghkllxxgvzvzNNNNNVVVVBBmmmm",
"rrrrr#&#&&**===+#@@@33>3>&&&&&XXXXX*****11111XXXXXiihttmmxmxhihidkkvllhsghkklxxxzzzvzNNNNNVVVVBmmmmm",
"rrrrr><<3>rrrrro++++##@@+o+oooXXXXX>3>33>>3333>31155q52hitiiiikidgvgzvvvxxnxxnxxXXXXXNNNNN.....nnnnn",
"rrrrr><>>1rrrrr#++++##@@++o+ooXXXXX3>>>>313>>33>3>e52q2hhhihidiidzzvzzzzxnxxxxnxXXXXXNNNNN.....nnnnn",
"rrrrr<<>3>rrrrr#++o#@@@@+o+o+oXXXXX>>33>3>>33>3>1155q2qhtiiiiikitvvzvzvvxxnnnnxxXXXXXNNNNN.....nnnnn",
"rrrrr><<>>rrrrr#++@@@@@@++o+o+XXXXX>3>>>33>33>11>3q52q2hthihikiidvgzvzzvnxxxxxxnXXXXXNNNNN.....nnnnn",
"rrrrr<><<>rrrrr#+##+@@@@@@ooooXXXXX>3<>3<<<<<<>3115q55qrihiiiiiidzzgvzvvvvvvvvvvXXXXXBNNCB.....nnnnn",
"&&&&&:::::*:>*******&&@&&@&#&&XXXXX3333344444udiidrrrrrvhhkimmmmvvNnnnnBNnNnNnNnNBNNNggzkk     rrrrr",
"&&&&&::::::*>****>**&@&@&&&#&@XXXXX3444444444ddddirrrrrdikiknvvvvNnnnnBnnNnBnNnBNNNNBgzgkk     rrrrr",
"&&&&&::::::***>>***>&@&&@#&&&@XXXXXq444444444dddidrrrrrdkkkkvvvvvnnnnnnBNnBnNnBnNNNNNvgzkk     rrrrr",
"&&&&&:::::*:****>*>*&&@&&&@&&@XXXXX3444444445diidiitrrrvvdddnvnvvNnnnnnBnBnBnBnBNNNBNzgzkk     trrrr",
"&&&&&:::::***>**>***&#&&&@&&&&XXXXXq444444443idiidrerrrdddvdvnvnvnnnnnBnBnBnBnBnNNNBNgvgkk     trrrr",
"XXXXX><<>3*&*&&##@@@&&#@&XXXXXXXXXX>3><>urrrieqqqqXXXXXXXXXXXXXXXXXXXXXXXXXrrrrrrrrrtdtdiigidii.....",
"XXXXX<<><>&&**&###@@#&&&@XXXXXXXXXX<><>3rrrrrqqqqeXXXXXXXXXXXXXXXXXXXXXXXXXrrrrrrrrrriddgiididd.....",
"XXXXX>><<>&&&&##@@@@#&&&*XXXXXXXXXX<<<><ururuqqqqqXXXXXXXXXXXXXXXXXXXXXXXXXrrrrrrrrrrdddigiiigi.....",
"XXXXX<<<>>&&&&*#@@@@&&###XXXXXXXXXX>><><rrrurqqqqqXXXXXXXXXXXXXXXXXXXXXXXXXrrrrrrrrrrdtddiigiid.....",
"XXXXX<<>3>&&&&&+@@@@&#&&*XXXXXXXXXX<><<<drrruqqqqqXXXXXXXXXXXXXXXXXXXXXXXXXrrrrrrrrrrdddiddigii.....",
"qqqqqXXXXXq3q5q>>>>>XXXXX355533333444443**:*&44q4qddkkiZZmZZBBBBNnnnNvvzzvvrrrrrrrrrrrrrrrtrtrttrrrt",
"qqqqqXXXXXq4q4q>>>>>XXXXX555553q44444444**>>*3q3q3kkdkdZBBSBBVVVBNnnnNvvvvvwuwrrrrrrrrrrrrrrrrrrrrrr",
"qqqqqXXXXX4q4q4:>>>>XXXXX555555344444444>****q3q3qdkikkZSBBBBBVVNnnnnNzznzvrrrrrrrrrrrrrrrrrrrrrrrrr",
"qqqqqXXXXXq4q3q>>>>>XXXXX555354444444444>***>544qqdkkikmBBBBVVVVBNnnnnznzznrrrrrrrrrrrrrrrrrrrrrrrrr",
"qqqqqXXXXXq43q5>>>>>XXXXX5553q4344444444**>**qq435kdkkkZBBSVVVVVNnnnnnvvvvzrrrrrrrrrrrrrrrrrrrrrrrrr",
"qqqqqq44555555555555*>&>*>***>33444<>>3>diiirmvvnvVVVVBrrrrrrrqrwvvvzvnzzvvBBBBBgkkkkxxxmneerrr     ",
"qqqqq43q5e5555555555>&>&*>*>**3q443<3>>3iiiidvvnvnVVVVVrrrrrrrqrwzzvzvzvvvzBBBBBgkkhkxmxxxrtrrr     ",
"qqqqqqq3555555555555&>&>**>*>>33444<>1>1iiiidvvvnvVVVVBrrrrrrqrrwvvvnvzvvzvNBBBBhkhkgxnkvvrrrrr     ",
"qqqqq53q555555555555>&>&>*****35444>3>1>iiiirvvmdnVVVVBrrrrrrrrqwvzzzvnzvvvBBBBBkhkhgnknvvrrrrr     ",
"qq5eq35q355555555555&>**>**>**3q444<>3>1iiiiimmmnnVVBBBrrrrrqrrqwvzvvvvnzvvNCBBBhkkkkxnkzvrrrrr     ",
"5qqq5eqqqqkkkkkrrrrr533533553q>><<>##&#&>>>>*didddq45qqrrrqrnnnnnnNnnnCCAAACCCCSxxxxxsgidtrrrrr     ",
"qqe55qqqeqkhkhkrrrrr5353q355553>>><&*#&&>>>>>ddiddq4q54rqrqrnnnnnnnnnnCCCSCASCSCxxnnxsisddrrrrr     ",
"2q55eqqq5ehkhkkrrrri3535355555>3<<<&#&&#>>>>>diddd4q3qqrqrrrnnnnnnnnnnSCCCACCCCCmxxxmisidirrrrr     ",
"qqq25eqqqqkkkhkerrrr44444q3355>>1>>&&&&#>>>>:ddddiq53q5eqrrrvnnnnnnnnnSCCCCCSCCCxnnxnsisddrrrrr     ",
"q22eqqqqqqkdhkkerrrr44444455553>>1>&##&&>>>>>dduid5qqqqeqrrrvnnnnnnnnnCCCSCSCCCSxxxxkisiddrrrrr     ",
"tthtrqqqqqrrrre>>>>>44443**:*>44q3555555qqqqqqqqqqXXXXXBBBZBnnnnnnnnnnXXXXXnnnnnCBBBCkkhggvzvzv.....",
"etttrqqqqqrrrre>>>>>4444q>***:4433355555qqqqqqqqqeXXXXXZBZBZnnnnnnnnnnXXXXXnnnnnBBBBBkhkkgvzvvz.....",
"eerrrqqqqqrrrrr>>>>>44443*>**>4433355555qqqqqqqqqqXXXXXBZBZBnnnnnnnnnnXXXXXnnnnnBBBBBhkhkhxxvzv.....",
"eerrrqqqqerrrrr>>>>>44443*****44q3355555qqqqqqqqqqXXXXXZBZBZnnnnnnnnnNXXXXXnnnnnBBBBBkhkkkxnvvv.....",
"eeerrqqqqqrrrrr>::::44444*:*>*33444q3553qeqqqqqqqqXXXXXBZBBBnnnnnnnnnnXXXXXnnnnNBBBBCkhkkkxnvvk.....",
"mmmvmrrrrekkkkk34444rrrrr<>3>3ruurrdvdvk>3>><XXXXXkvvvvdkkvdnnnnnSSSSSAACAAzgvggxxnxxsisii.....qqqqq",
"nnnnnrrrrrkkkkk34444rrrrr<<<<<ruruuddvdv><<<>XXXXXndvvvkkkkhmmvmnSSSSSAAAASgkkkknxxnxisiig.....qqqqq",
"nnnnnrrrrrkkkkv54444rrrrr<>>>>ururuvvdvd<<><<XXXXXnvvvvdkkhkmvBvnSSSSSAAAACzkkkknxxnxsigdi.....qqqqq",
"nnnnnrrrrrdkdvd34444rrrrr><<<<rrrurddvdv<><:<XXXXXnndnvdkhkhnnvnnSSSSSCAAACgkkkkxxxxniigid.....qqqqq",
"nnnnnrrqrrkkvdv54444rrrrr<><<>rrurudvdvd<><<>XXXXXdvvvvvhkhknnnnBSSSSSAAAASkkkkgxnnxkgiidd.....eqqqq",
"XXXXXXXXXXXXXXXvnnvndvdvvqqqqq1333<uuuruqqqqqnnnnnnnnnnBBBBBnnnnnCSCACrrrrrrrrrrrrrrtrrrrrrrrrrrrrrr",
"XXXXXXXXXXXXXXXvdvdnvdvddrqqqq11333uuruqqqqqqnnnnnnnnnnBBBSBnnnnnCCCCArrrrrrrrrrrrrrtrrrrrrrrrrrrrrr",
"XXXXXXXXXXXXXXXvvvvvdvdvdqqqqq1313<uyyuuqqqqqnnnnnnnnnvSSBSBnnnnnCCCSCrrrrrrrrrrrrrrrrrrrrrrrrrrrrrr",
"XXXXXXXXXXXXXXXvvvdvvdvdvqqqqe3131<yyyyyqqqqqnnnnnnnnnnBBBVBnnnnnSCSCCrrrrrrrrrrrrrrrrrrrrrrrrrrrrrr",
"XXXXXXXXXXXXXXXvvvvdkkkkkeqqqq13115trrruqqqqqmnnnnmmnmmCVVAVnnnnnVAAAArrrrrrrrrrrrrrtrrtrrtrrrrrittt",
"XXXXXnnnnnnnnnnXXXXXrrrreerrrrdigiitrrrrXXXXXrrrrrssisivzvvvrrrrrrrrrrrrrrr<><<>4444531331DDDDD55555",
"XXXXXnnnnnnnnnnXXXXXrrrrrrrrrridgiirrrrrXXXXXrrrrrdsssdnzvvvrrrrrrrrrrrrrrr><<<<4444313115DDDDD5q5q5",
"XXXXXnnnnnnnnnnXXXXXrrrrrrrrrrdiidirrrrrXXXXXrrrrrigssskvvzzrrrrrrrrrrrrrrr<<>><4444551331DDDDD55555",
"XXXXXnnnnnnnnnnXXXXXrrrrrrrrrrididirrrrrXXXXXrrrrrsgsssnvvvvrrrrrrrrrrrrrrr<<>><4444433315DDDDDqq555",
"XXXXXnnnnnnnnnnXXXXXrrrerrrrrrdidigtrrrrXXXXXrrtrtsissskvvzvrrrrrrrrrrrrrrr><<1>4444333311DDDDD5555q",
"kkkkdnnnnnnnnnnnBnnndkkkkXXXXXierrrrrrrrrrrrrddiiirrrrt5q5q5dddddXXXXXXXXXX<<<<<<<>>1     .....15111",
"kkkdvnnnnnnnnnnnnnnnvdkkkXXXXXrerrrrrrrrrrrrrdididrrrrrq5q5qdddddXXXXXXXXXX<<<<1><<<>     .....31155",
"hkhkkmmBvnnnnnnnnnBvkkvdkXXXXXttrrrrrrrrrrrriiiiggtrrrr5q5q5dddddXXXXXXXXXX1>113<>><<     .....11311",
"khkhdmmvnnnnnnnnnnvmkkdvhXXXXXrerrrrrrrrrrrrtiggiirrrrrq5q5qdddddXXXXXXXXXX1111><<<<<     .....13151",
"kkhkdBnnnnnnnnBvnnmvkkddkXXXXXrrrrrrrrrrrritridiiirrrrt55qq5dddddXXXXXXXXXX>1111><<>>     .....31333",
"mvmmnnnnnvSVBSBrrreemkvnkXXXXXrrrrrrrrrriiidiXXXXXqqqqqrrrrrXXXXX>1>1>:**:*:&:&-.....<><11rrrrtDDDDD",
"vmnnnnnnnnSBSBBrrrrrnvvnvXXXXXrrrrrrrrrrdiigiXXXXXqqqqqrrrrrXXXXX1><<>*::*------.....><<>1rrrrrDDDDD",
"mvnnnnnnnnVBSBSrrrrrdvvdvXXXXXrrrrrrrrrrigiidXXXXXqqqqqrrrrrXXXXX><<<<:**:------.....<<>1>rrrrrDDDDD",
"vnnnnnnnnnVSBBSrrrrrvvvvvXXXXXrrrrrrrrrrgigiiXXXXXeqqqqrrrrrXXXXX<>>>>:*:*:-----.....<1>>1rrrrrDDDDD",
"BvnnnnnnnnSBSBBrrrrrvvdvvXXXXXrrrrrrrrttiigidXXXXXqqqqqrrrrrXXXXX1<<<<*:*:&:----.....><<1>rrrrrDDDDD",
"nnnnnnnnnnSSSSSnnnnnBBBBBdkhkhkmvvzddddiggiiiqqqqqrrrrr33333*:*:*%%%%%5555555555<<><><<<><.....85555",
"nnnnnnnnnnSSSSSnnnnnBBBBBvhkhkmkzvvdtdidiiigiqqqqqrrrrr33333:*:**%%%%&5555555555><><<<><><.....35555",
"nnnnnnnnnnSSSSSnnnnnBBBBBkkkkkkvzvvddidiiiigieqqqqrrrrr33333*:*::%%%%%5555555555<><<<>1><<.....55555",
"nnnnnnnnnnSSSSSnnnnnBBBBBdkkkdvvvvvtddidggiiiqqqqqrrrrr33311:**:*%%%%%5555555555<<<><><1<>.....55555",
"nnnnnnnnnnSSSSSnnnnnBBBBmkkkkhkmvvvdididiiiideqqqqrrrrr33133:*:*:*%%&#5555558358><<><<1>>1.....53855",
"nnnnnSSSSSSSSSSnnnnnBBBBmXXXXXeerrrrtrtrtirrrerrrrrrrrrqeqqq><>1>555555555q><>>1><<><**::*     .....",
"nnnnnSSSSSSSSSSnnnnnBBBBZXXXXXrrrrrrrrrrrrrrrrrrrrrrrrrqqqqq><<1>5555555553><<><<<<<>****:     .....",
"nnnnnSSSSSSSSSSnnnnnBBBBmXXXXXrrrrrrrrrrrrrrrrrrrrrrrrrqqqqq<1>>155555555551><<<<>><<::*:*     .....",
"nnnnnSSSSSSSSSSnvBvmZmZmBXXXXXterrrrrrrrrrrrrrrrrrrrrrrqqqqq>1>1>55555555551<><><<1>>:*:*:     .....",
"nnnnnSSSSSSSSSSnnvmvmZmmBXXXXXrrrrrrrrrrrrrrrrrrrrrrrrrqqqqq1>1>15555555555><<<>>><<1*:*:*     .....",
"XXXXXBVSBSnnvnnnnnmmkkhkkidiidrrrrr.....rrrrrqqqqq5555555555     :*:*:DDDDD.....<<>1>     .....     ",
"XXXXXSVBSVnvnnnnnnmmkkkhkiikdirrrrr.....rrrrrqqqqq5q5q555555     *:*:*DDDDD.....<>1>1     .....     ",
"XXXXXBBSZZmBnnnnnnnnhkhkkkikiiierrr.....rrrrrqqqqq5qq5q55555     ---*:DDDDD.....<<><1     .....     ",
"XXXXXSSBZZmvnnnnnnnnkhkhhiiikirerrr.....rrrrrqqqqq5555555555     ---:&DDDDD.....><><>     .....     ",
"XXXXXZBBSBnnnnnnnnnnkkkkkiiddirrrrr.....rrrrrqqqqq55q5555555     ---->DDDDD.....<><<1     .....     ",
"vBvmmkkkkdnnnnnDDDDDiihii     DDDDDrrrrr     .....DDDDDtrrrr55552.....52558><<><          >1>1>.....",
"nnnnvkkkhkBvnnnDDDDDddkii     .DDDDpttte     .....DDDDDeettr55555.....555551>1>1          <<<><.....",
"nnnnmkkhkhvmnnnDDDDDididi.    DDDDDptett     .....DDDDDeeerr55555.....55555>1>1>          <><><.....",
"nnnnmkkkhkmvnnnDDDDDdidiy     DDDDDteeep     .....DDDDDerrrr55555.....555551<1>1          <><<>.....",
"nnnnmkkdkhvmnnnDDDDDididy    .D.DDD2eeeh     .....DDDDDerrrr55555.....555551>>1>          <<><<....."
};
