/* XPM */
static char *_edbddefa31c460bd58c0f2ec789a33bMET5MBMUnqWO6Sni[] = {
/* columns rows colors chars-per-pixel */
"64 64 97 2 ",
"   c gray39",
".  c #676767",
"X  c #626262",
"o  c gray38",
"O  c gray40",
"+  c DimGray",
"@  c #4B4B4B",
"#  c #656565",
"$  c gray42",
"%  c #646464",
"&  c #606060",
"*  c #6A6A6A",
"=  c #505050",
"-  c #686868",
";  c #5D5D5D",
":  c #535353",
">  c #6C6C6C",
",  c #909090",
"<  c #8B8B8B",
"1  c #848484",
"2  c gray51",
"3  c gray56",
"4  c #868686",
"5  c #7E7E7E",
"6  c #4E4E4E",
"7  c gray62",
"8  c #979797",
"9  c gray60",
"0  c #9B9B9B",
"q  c gray57",
"w  c #939393",
"e  c #8D8D8D",
"r  c #8E8E8E",
"t  c gray54",
"y  c gray50",
"u  c #838383",
"i  c gray32",
"p  c #959595",
"a  c #989898",
"s  c gray61",
"d  c gray58",
"f  c #929292",
"g  c gray59",
"h  c gray55",
"j  c gray53",
"k  c #9A9A9A",
"l  c #818181",
"z  c #808080",
"x  c #797979",
"c  c #9F9F9F",
"v  c gray49",
"b  c gray52",
"n  c #515151",
"m  c #888888",
"M  c #898989",
"N  c #747474",
"B  c #7B7B7B",
"V  c #565656",
"C  c #6F6F6F",
"Z  c gray30",
"A  c #767676",
"S  c #7C7C7C",
"D  c gray48",
"F  c #717171",
"G  c gray31",
"H  c gray47",
"J  c gray37",
"K  c gray44",
"L  c #4C4C4C",
"P  c #777777",
"I  c gray45",
"U  c gray46",
"Y  c #494949",
"T  c #555555",
"R  c gray34",
"E  c gray33",
"W  c gray28",
"Q  c #5B5B5B",
"!  c #585858",
"~  c #464646",
"^  c gray29",
"/  c gray63",
"(  c #9D9D9D",
")  c #A2A2A2",
"_  c gray35",
"`  c #727272",
"'  c #A0A0A0",
"]  c #5F5F5F",
"[  c gray36",
"{  c gray64",
"}  c #A5A5A5",
"|  c gray43",
" . c #484848",
".. c #6D6D6D",
"X. c #444444",
"o. c #A4A4A4",
"O. c #5A5A5A",
/* pixels */
"  . X o X   O + . o @ # # $ + # . $ + o % X O . & X % % * + X = o   $ + O # O $ o   X O - & o % X - + % ; : % + * . % # > O X % ",
", < 1 2 3 < 4 3 4 5 6 7 8 9 0 q q 9 q w 9 e r t y t e u r t 1 i e p a s d f g g , g , , h y 4 , j < r 1 $ - k 9 0 a q f 9 r d d ",
"2 u y 4 2 l 2 z u x @ c y u y y z l l 1 v 2 1 y b 1 v 1 z u y n e j l z y z l 2 u y 2 u l l 4 5 1 z 2 2 - # a y 2 z y 2 2 l 2 z ",
"u 2 4 m 1 j m l M N = k b z y 4 b 1 1 j u l u b j j 1 m 1 1 B V e b b 5 1 m 2 2 j j y 1 2 4 m 2 m 4 z b + + , m v 2 j 2 u j m y ",
"v j j 4 b v b z z C Z a 1 2 z m j b j m u y b j b 1 2 z 1 2 A : m m 1 l j M 1 b j b 2 z j 4 1 4 S j z S   # f 1 2 u j b 1 m j u ",
"b 4 2 y l z x S 2 - Z p 1 b M 4 1 b 1 M 1 2 4 b y z l S D 2 F G t 1 j t 2 m 1 l t 1 2 j 4 y y l 5 H 5 S J - e 4 j u t u 2 m 4 b ",
"5 B 5 v S S z l l K L s u b 2 l 4 t b z M 5 B 5 5 D 5 B u z P n , 4 4 u 5 b M m l j l v v y S y D 1 z y   * f b 1 5 1 j t 2 u 1 ",
"j b u v D 4 l 4 4 F L r 1 t 4 2 l l B 5 y u M u S B 1 z j m P G 2 u b t u z 2 S B u z M u y 5 5 b 4 4 y   % t 1 e 1 l 2 y S u y ",
"1 t h 1 l 2 4 M b * @ r y 1 M M h m 1 5 < y t e M l z 4 M 4 I i y u z h t m e 4 v m l t h t l z 1 j m y & o < y t m j 3 4 z 2 m ",
"l 1 2 S y 2 A D x ; L a M M v l 1 u z b l y 2 u y B 4 U B B # Y < M t v l u 4 5 u 2 S l 1 l D u D x D F T + q < u z u b 5 l b 5 ",
"n R = T V 6 E : i i W Q T = Z G T Z @ 6 6 = T i : ! = : : : i ~ ; T i Z L : i L @ = G i V n V : n E E n 6 : R E 6 L n V L ^ = 6 ",
"z h < 4 4 M h q e 4 m M y S l D 5 j t y # X e t M b < m , 3 m b M 2 5 y S 5 1 t u I @ r < h b M m 3 , t 1 t j y S l S y M j B n ",
"j d , e e , e e m 4 r 3 p r M b f h , h O # c w h t q e , m 4 t e g r t j h f e < D 6 7 , < < , r , t j j , w , r t j d t e m i ",
"h q M l v b 4 z 1 S z M m M 4 b j 1 4 m   . c j 4 x b u u 4 S z M b m t l m b u t A G / j M B 2 1 4 u l y 1 b m t l j 4 u M u = ",
"r r l z B z z b m 2 S S 1 u 1 t u u M b R . ( 2 z S x u 1 t 2 B v 1 l l M 1 1 4 M > @ ) 1 l 5 D 4 2 m 1 z y z l 2 j m 1 1 < v W ",
"b j 2 v v l y 4 1 b b < u D 1 t r b 4 j o X p z l v u v 2 m u m t b 5 y M < t l < I @ k z 2 S z 5 z m u m b m 2 D j t r 2 < y 6 ",
"< M v 2 5 u b 5 y y y 5 u z m l 4 1 4 M O - g z z 5 b 1 z z D y v z l j 1 j l 1 m x G s l 5 z u 2 1 5 B l 5 y 1 1 j 1 l b j b i ",
"l h 5 b 5 M b M l v 2 1 v 4 D j u M 1 l o X g D 1 2 b 4 t 1 S 1 2 z b 5 z 1 j b 2 I Z d 5 1 4 y M j 4 y z z 1 z u x m 1 m u 5 G ",
"2 w 2 b 2 2 t 1 v v z u 5 2 b l S 1 t M _ % a b 4 l l 4 M l 5 y u z y l 4 v 5 M m C @ p t u 2 2 1 h 2 v 5 2 l v l M v S j M l Y ",
"j 3 5 l 2 e t u u 1 4 m < u m 1 l m 1 y J . a u z y r 4 j 1 u 1 4 h 4 4 m 5 M 2 2 F Z 9 j 5 z m m h u l 1 4 h m u M y b 1 b B @ ",
"A 5 v D U H S H z ` v D P U S 5 U 5 P x ; o B 5 v H A B B v A B D H U D B D S H B * Z B z 5 x I D B D S U S x A A S y A B x N Z ",
"6 n = G 6 = n = G Z Y 6 Z = 6 L = G = Z = @ = i G 6 n = n n Z @ Z L G G Z Z L = Z = @ G i G 6 = = n n 6 Z ^ L 6 = Z @ Z = = 6 6 ",
"d r b b w h t g h 1 6 a 0 ) / 9 g ' 8 w g w q t 2 3 e j g q m V j a ' ) s a 7 ( w d w d e 2 t q M f p M F O 9 7 ) c a a c w w d ",
"l 2 l l l 2 2 y z H L ' l 2 1 1 2 j b 4 1 5 u 1 l z 2 u 5 l z = 3 m l 4 l b b j u b z 1 1 y z 2 2 y l l O - a l b l 4 2 j 2 b u ",
"u z 2 M 4 m 1 2 m U 6 s 2 2 v S 1 z l 1 y 2 2 l m t 1 4 u 4 x T e 1 1 y v u y z 1 2 y u z b M u j u 2 2 * - q b z v 5 2 z 1 1 5 ",
"y t m M z z j 1 l F G a 1 z 2 t j u j M 1 l M m m u l 1 m u H : < j 1 l j < 1 1 M j 1 u M m j l l t 2 5 # - w b z 1 < b u M M 1 ",
"l u 2 z b l v v 2 - @ w l 4 j m u b u M 1 y 1 u y u b z v 2 F = b 1 b M b 4 u l M u z u u z l j z B y S J   e u j u M l 2 4 b u ",
"2 5 l S 5 z D 2 v C Z ( b b b l b < 1 2 4 u v l v v l H z y U n q 4 j b y b t 1 u b 1 y y y S y D v l B   $ f j 1 l 1 4 j u 1 b ",
"1 4 y S D l y l 4 ` Z p u m 2 1 1 4 5 5 2 z j u D D z v 1 b D n m 1 j 1 2 u 4 y B 1 y m b B S v z 1 2 2 % O r b j l 1 4 u v 2 l ",
"u u m l l 2 1 j m $ @ e l 1 m y 4 2 v B b y 1 j 1 y 2 1 4 m U = y 1 5 e 2 2 b l D 1 y b b 4 y 2 2 b j 2 & o M y h 1 y m l B z 2 ",
"e d , m 4 M 1 m 5   ^ g h , r d p , h 3 , M q f e 1 t u M 2 > @ j < w t f p w h e , j 3 p 3 1 m 4 j b A _ # f f < q p d e h , h ",
"    ] O O o o X   ; @ x > . [ ] # ] ; ] J X X & % -   & o % J ^ P C + J ;     J ; ] & X   X - # & o % & R o I $ X Q & O J [ o J ",
"O O - %   O . * O % # # J J # J X O +   ! T + O # % O % $ - # % O J ]   ]   # - % ] W > # - # % % $ + O   O o ] &   X X . .   @ ",
"m { s 8 9 k ( c k d s 9 c d f e 9 8 a q O % } ' 9 8 0 0 c k p 9 k ' d q 3 d 0 8 f D Z c ) 9 g 0 k 7 s a p ( ( 9 d w 3 0 p d M n ",
"h r t u y 4 4 u u x v t m h b z < 2 m j   . c m j D 4 u j 4 x v m j < M v t u b m A G ) b m S 1 1 m b v S 2 j t < z b j u M u n ",
"e , u 2 B y l z j z 5 5 j 2 u t y 1 m b [ . s 4 z S B 2 l 4 l v z 1 1 l < l b 1 < C Z ' m 2 z B u 2 u 1 y z z 4 l m 4 l 2 h v @ ",
"4 m 5 S 5 l 2 < m 4 2 M l v 1 < e 4 m 4 ;   g 5 y B z u j h 1 u M 1 y 5 m h h 1 m F @ k z y D y u 2 h 1 4 4 4 y B j h 3 2 t z @ ",
"M 4 2 z z 2 z x S z l l 1 y b 1 M j 2 h # O d 1 2 y b 5 D 5 S u 5 u y 1 4 m u u e P 6 k 2 2 5 u 5 y S D u 5 u u 2 j b 1 m j b n ",
"u h 5 4 D t M j u 5 b m y b y 4 2 t j l . % 8 S u y b m < u S b 4 2 4 z z u < 4 2 P G 8 y 2 b v M < 1 y u b m 2 l v j j 4 b y : ",
"u w l 1 y u m b 5 S 5 l 5 l 2 1 5 u m 4 Q # a u 4 v 2 j m z y S u 5 5 z 1 2 5 j j | L p M 1 z 2 4 M u z D l 5 v l 1 u B j j 5 ^ ",
"2 3 S l l t t 1 B l 2 1 m l u y 5 j j 2 _ X a z z y < j m z v b l M u z b x 4 1 1 | ^ 8 1 v y j j < u D 1 z j b y 4 x u b j S  .",
"l h m M j M t j w 4 e h m b f , b t 4 M J O r M M t j m M r t M h h b e q M M m t F 6 e M M t 1 m t M , 4 r r 4 j f 3 4 M m z L ",
"T i E = G n i n G L n 6 L G Z Z 6 = n Z n 6 i E i G = i : G L n 6 Z L G L G Z G 6 n  .E : E 6 = n i = Z 6 G 6 @ = L 6 L = n G ^ ",
"b u S B u z l < 1 S = b M f , t m q < l 1 u 1 l x l l 5 < m 5 ! D 4 , q < t e 3 2 u u 4 u x v u y j t z C o 4 e q e t M q j l 1 ",
"4 b 2 y b j 2 1 z H L ' M t h 4 j e M t , u 4 m v l m l u 2 z G , h M 3 4 t M e 4 r b m m v y m u 2 1 l # + a t e M m 4 r 1 h < ",
"u 2 5 M b u l u b P L 7 y u 5 x 2 5 z u S 1 u v j m y u u 4 B : e b 2 y D y 5 5 u 5 u u y 2 m y b l 1 z * O p l l v B l 5 2 l z ",
"2 j m M z 1 m 1 4 I n 9 1 y u h 4 1 b M b 2 j j j u 2 j m u B T e b b y M < u u M M u b 4 j j z 4 m l 1 . * q j v 4 e u u j t u ",
"5 2 u l j 5 l v l ..@ g 2 1 2 m b j 1 j u y l 1 l 1 1 z y l U n b j u 1 j 4 b u 4 1 z y u l 2 m 5 z 5 v o o , 2 1 2 4 u 1 4 b 2 ",
"b 1 2 v z y P y 5 > G k 4 b 4 2 b M u 4 1 b u b 5 y z P S y I n , b M 4 z j m 2 4 1 1 1 b y v y D H z D X $ , M 1 2 4 1 1 b 4 b ",
"y z S v D S l 5 4 ` Z 0 u 4 l u m m u 5 4 v y z v H v S 2 u B n e 4 j 2 z j j b 5 4 y l l S D v D 1 y 1   - f b 1 y b m j z 2 u ",
"4 2 4 y v b 1 j m ..@ h 1 M m 5 2 z B v l 2 b 1 l v 1 u m M U 6 z 1 u e z z l 5 B 1 z 4 u u y l 1 j 4 z &   m u r 1 5 u z B 2 5 ",
"< f , M u 4 M h y + @ q 1 < r p p , h m f 4 q f 3 1 1 m e 1 F G 2 4 < e d w w r j , j , w 3 b 2 j < M x ] o e M h , w p e M < r ",
"I C K F I I - C F J @ , 5 B $ C F F K ` | ` | C K ` P - | F X Y j 2 S C | K N | K K C F C F F U > $ K $ V + m 5 A ..C I | C ` | ",
"6 : 6 6 6 Z n = Z Z Z 6 ^ Y L ^ G L L Z Y  .: G Z G Z 6 n 6 Z @ n Y @ @  .6 6 L @ L X.i n Z G Z Z i G Z L G @ @ ^ ^ Z G @ @ 6 ~ ",
"t { 7 9 0 ( / } / 9 ( ( 9 q f h d 9 0 3 . # ) ' ( a ( c o.{ 0 k ( ( f q 3 , a 0 w D L 7 { 7 8 ( ( ) o.7 a 7 7 p q w e p k 8 j n ",
"M e M b 2 m 1 1 z B l M < < 2 B t 1 M j % O s t 1 5 m u j 2 D 5 4 < t 1 v j j 4 4 P G c 4 1 z j 4 m 2 S S 1 t t m l z M u m 1 i ",
"< q 4 u v 2 1 5 b y l 1 j 1 b M l 4 4 m X . s j 1 S l u z 1 y z j 1 b 4 m 2 j 2 < U 6 7 M b 5 y u u z u z 1 u j b b 4 1 u < l G ",
"t < 5 v S 2 l M m b 5 2 l 2 u t t b M j ! # 9 5 5 B v b 4 < u 5 u b z z j M M j m | ^ 7 l y B S j 2 < 1 2 2 1 5 y 4 < < 1 M z W ",
"j 4 b y y 2 5 v 5 1 b m 1 B b 4 h j 2 t % % d 1 2 5 1 S B 2 z M b 4 v 2 m M j 2 e U Z k l 1 v l v v l 5 m 2 m 2 5 j j M j M 2 = ",
"M h S b D 4 m u u 5 2 2 2 l 4 u u b M 1 - . a S l S b m j 2 S l u l 1 b 2 1 4 b 1 H = 0 y 5 2 y 4 m z 5 l u 2 b l u b 1 u m 2 : ",
"l 3 5 b y j 1 m 5 S 5 l 5 u S j l b b u ;   g v 4 z b 4 m 2 5 y l 5 z y u b l b 1 C L d 2 1 1 l m b 4 y v 5 y 5 2 v j y j 1 v L ",
"l , 5 u 1 1 t 1 S y z 2 2 l 1 y S b M j R X 9 l u u 1 4 M l S u z 1 z z 4 x l m j ..Y g b y 2 1 1 h u D 2 y 1 z l M x y j m z W ",
"m , 4 m m r < m , < r , h M d r m < m 4 ] * 8 M j M r j t e h M r , t , f m < m M I = a t b m t M h M r M 3 f < < d t m M M z Z ",
"+ - +   &   O   % [ O o ] & o   ] . X o Q O.O * . o o O O   J % o & ] X &   % o X & L - $ + X ] # O X o ] % o J o & # ] %   o 6 "
};
